<?xml version="1.0" encoding="UTF-8" standalone="no"?>
<svg
   width="55"
   height="55"
   viewBox="0 0 54.999999 55"
   version="1.1"
   xml:space="preserve"
   style="clip-rule:evenodd;fill-rule:evenodd;stroke-linejoin:round;stroke-miterlimit:2"
   id="svg9"
   sodipodi:docname="red.svg"
   inkscape:version="1.3.2 (1:1.3.2+202311252150+091e20ef0f)"
   inkscape:export-filename="logo.png"
   inkscape:export-xdpi="558.54547"
   inkscape:export-ydpi="558.54547"
   xmlns:inkscape="http://www.inkscape.org/namespaces/inkscape"
   xmlns:sodipodi="http://sodipodi.sourceforge.net/DTD/sodipodi-0.dtd"
   xmlns="http://www.w3.org/2000/svg"
   xmlns:svg="http://www.w3.org/2000/svg"
   xmlns:serif="http://www.serif.com/"><defs
     id="defs9" /><sodipodi:namedview
     id="namedview9"
     pagecolor="#505050"
     bordercolor="#eeeeee"
     borderopacity="1"
     inkscape:showpageshadow="0"
     inkscape:pageopacity="0"
     inkscape:pagecheckerboard="0"
     inkscape:deskcolor="#505050"
     inkscape:zoom="4.9576923"
     inkscape:cx="48.308767"
     inkscape:cy="21.280062"
     inkscape:window-width="1920"
     inkscape:window-height="1056"
     inkscape:window-x="0"
     inkscape:window-y="134"
     inkscape:window-maximized="1"
     inkscape:current-layer="svg9" /><clipPath
     id="_clip1"><rect
       id="Artboard31"
       serif:id="Artboard3"
       x="0"
       y="0.054000001"
       width="259.62701"
       height="42.679001" /></clipPath><rect
     style="clip-rule:evenodd;fill-rule:evenodd;stroke-linejoin:round;stroke-miterlimit:2;fill:#000000"
     id="rect1"
     width="55"
     height="55"
     x="0"
     y="0" /><path
     d="m 38.17,48.8395 v -3.557 h 3.556 v 3.557 z m -7.113,0 v -3.557 h 3.556 v 3.557 z M 6.161,41.7265 v -7.113 h 3.557 v -3.557 h 10.669 v -3.557 h 3.557 v -3.556 H 27.5 v -3.557 h 3.557 V 9.7175 h 3.556 v -3.557 h 7.113 v 3.557 H 38.17 v 7.113 h 7.113 v -3.557 h 3.556 v 7.113 h -3.556 v 3.557 h -10.67 v 3.556 h -3.556 v 3.557 H 27.5 v 3.557 h -3.556 v 10.669 h -3.557 v 3.557 h -7.113 v -3.557 h 3.557 v -7.113 H 9.718 v 3.557 z m 7.113,-17.783 v -3.557 h 3.557 v 3.557 z m -7.113,0 v -3.557 h 3.557 v 3.557 z m 35.565,21.339 v -3.556 h 3.557 v 3.556 z m -3.556,0 h -3.557 v -3.556 h 3.557 z m 7.113,-3.556 v -3.557 h 3.556 v 3.557 z m -3.557,0 H 38.17 v -3.557 h 3.556 z m -7.113,0 h -3.556 v -3.557 h 3.556 z m 10.67,-3.557 h -3.557 v -3.556 h 3.557 z m -7.113,0 h -3.557 v -3.556 h 3.557 z m 7.113,-3.556 v -3.557 h 3.556 v 3.557 z m -3.557,0 H 38.17 v -3.557 h 3.556 z M 16.831,20.3865 v -3.556 h 3.556 v 3.556 z m -3.557,0 H 9.718 v -3.556 h 3.556 z m 7.113,-3.556 v -3.557 h 3.557 v 3.557 z m -3.556,0 h -3.557 v -3.557 h 3.557 z m -7.113,0 H 6.161 v -3.557 h 3.557 z m 10.669,-3.557 h -3.556 v -3.556 h 3.556 z m -7.113,0 H 9.718 v -3.556 h 3.556 z m 7.113,-3.556 v -3.557 h 3.557 v 3.557 z m -3.556,0 h -3.557 v -3.557 h 3.557 z"
     style="clip-rule:evenodd;fill:#da3538;fill-rule:evenodd;stroke-linejoin:round;stroke-miterlimit:2"
     id="path1" /></svg>
