<?xml version="1.0" encoding="UTF-8" standalone="no"?>
<!-- Created with Inkscape (http://www.inkscape.org/) -->

<svg
   width="175"
   height="175"
   version="1.1"
   viewBox="0 0 46.301667 46.302"
   id="svg1221"
   sodipodi:docname="armicon.svg"
   inkscape:version="1.2.2 (b0a8486541, 2022-12-01)"
   inkscape:export-filename="armicon.svg"
   inkscape:export-xdpi="96"
   inkscape:export-ydpi="96"
   xmlns:inkscape="http://www.inkscape.org/namespaces/inkscape"
   xmlns:sodipodi="http://sodipodi.sourceforge.net/DTD/sodipodi-0.dtd"
   xmlns="http://www.w3.org/2000/svg"
   xmlns:svg="http://www.w3.org/2000/svg">
  <defs
     id="defs1225" />
  <sodipodi:namedview
     id="namedview1223"
     pagecolor="#ffffff"
     bordercolor="#000000"
     borderopacity="0.25"
     inkscape:showpageshadow="2"
     inkscape:pageopacity="0.0"
     inkscape:pagecheckerboard="0"
     inkscape:deskcolor="#d1d1d1"
     showgrid="false"
     inkscape:zoom="1.7536248"
     inkscape:cx="-14.256185"
     inkscape:cy="107.49164"
     inkscape:window-width="1920"
     inkscape:window-height="1043"
     inkscape:window-x="0"
     inkscape:window-y="149"
     inkscape:window-maximized="1"
     inkscape:current-layer="svg1221" />
  <g
     id="g3339"
     transform="translate(0,3.4789445)">
    <g
       transform="matrix(0.85228551,0,0,0.85228551,-2.2435825,0.00850765)"
       stroke-linecap="square"
       id="g1199">
      <ellipse
         cx="7.8726001"
         cy="5.1949"
         rx="2.0276"
         ry="2.0558"
         fill="#aa4400"
         stroke-width="1.1323"
         style="paint-order:fill markers stroke"
         id="ellipse1177" />
      <g
         transform="matrix(1.209,0,0,1.2258,-3.4692,-9.1453)"
         id="g1193">
        <g
           transform="matrix(-0.28117,-0.83268,0.83268,-0.28117,15.009,51.315)"
           id="g1185">
          <path
             d="M 11.548,3.3838 C 8.8519,3.37994 6.484,5.602 6.484,8.2982 c 0,2.6961 2.1702,4.8664 4.8664,4.8664 h 33.375 c 2.6961,0 4.8669,-2.1702 4.8669,-4.8664 0,-2.6961 -2.1707,-4.863 -4.8669,-4.8669 z m -0.21008,1.4758 h 33.4 c 1.9047,0 3.4386,1.5338 3.4386,3.4385 0,1.9047 -1.5338,3.438 -3.4386,3.438 h -33.4 c -1.9047,0 -3.438,-1.5333 -3.438,-3.438 0,-1.9047 1.5333,-3.4385 3.438,-3.4385 z"
             stroke-width="1.0583"
             style="paint-order:fill markers stroke"
             id="path1179" />
          <path
             d="m 13.571,4.8633 -1.9854,3.4386 -1.7616,3.052 c 0.45436,0.2353 1.3716,0.37954 1.5141,0.3824 l 1.9833,-3.4344 1.9854,-3.4386 z m 2.0273,0 1.9849,3.4386 1.9854,3.438 h 1.7353 L 19.319,8.3019 17.3336,4.8633 Z m 9.9674,0 -1.9849,3.4386 -1.9854,3.438 h 1.7358 l 1.9849,-3.438 1.9854,-3.4386 z m 2.0273,0 1.9849,3.4386 1.9854,3.438 h 1.7353 L 31.3137,8.3019 29.3283,4.8633 Z m 9.9674,0 -1.9849,3.4386 -1.9854,3.438 h 1.7358 l 1.9849,-3.438 1.9854,-3.4386 z m 2.0273,0 0.75815,1.3864 1.5861,-0.287 -0.6084,-1.0994 z"
             fill="#4d4d4d"
             stroke-width="0.85982"
             style="paint-order:fill markers stroke"
             id="path1181" />
          <path
             d="m 31.929,43.907 -2.0449,4.1835 -1.6509,-0.80696 2.0449,-4.1835 z m -5.1508,-2.5177 -2.0449,4.1835 -1.6509,-0.80696 2.0449,-4.1835 z m -1.6509,-0.80696 6.8017,3.3246 -0.72565,1.4846 -6.8017,-3.3246 z"
             fill="#aa4400"
             stroke-width="0.3913"
             style="paint-order:fill markers stroke"
             id="path1183" />
        </g>
        <g
           transform="matrix(0.87349,0.097109,-0.097109,0.87349,0.21596,3.4113)"
           id="g1191">
          <path
             d="m 11.35,3.4313 c -2.6961,0 -4.8664,2.1707 -4.8664,4.8669 0,2.6961 2.1702,4.8664 4.8664,4.8664 h 33.375 c 2.6961,0 4.8669,-2.1702 4.8669,-4.8664 0,-2.6961 -2.1707,-4.8669 -4.8669,-4.8669 z m -0.0124,1.4283 h 33.4 c 1.9047,0 3.4386,1.5338 3.4386,3.4385 0,1.9047 -1.5338,3.438 -3.4386,3.438 h -33.4 c -1.9047,0 -3.438,-1.5333 -3.438,-3.438 0,-1.9047 1.5333,-3.4385 3.438,-3.4385 z"
             stroke-width="1.0583"
             style="paint-order:fill markers stroke"
             id="path1187" />
          <path
             d="m 15.598,4.8633 1.9849,3.4386 1.9854,3.438 h 1.7353 L 19.3187,8.3019 17.3333,4.8633 Z m 9.9674,0 -1.9849,3.4386 -1.9854,3.438 h 1.7358 l 1.9849,-3.438 1.9854,-3.4386 z m 2.0273,0 1.9849,3.4386 1.9854,3.438 h 1.7353 L 31.3134,8.3019 29.328,4.8633 Z m 9.9674,0 -1.9849,3.4386 -1.9854,3.438 h 1.7358 l 1.9849,-3.438 1.9854,-3.4386 z m 2.0273,0 1.9854,3.4386 1.9849,3.438 h 1.249 c 0.15879,0 0.31368,-0.0145 0.46664,-0.03514 l -1.9653,-3.4029 -1.9849,-3.4386 z m 8.5251,2.4986 -0.5426,0.94 -1.9229,3.3311 c 1.4951,-0.37362 2.5978,-1.717 2.5978,-3.3311 0,-0.32654 -0.04801,-0.64114 -0.13229,-0.94 z"
             fill="#4d4d4d"
             stroke-width="0.85982"
             style="paint-order:fill markers stroke"
             id="path1189" />
        </g>
      </g>
      <rect
         transform="matrix(0.99998,-0.0065766,0.02603,0.99966,0,0)"
         x="7.8129001"
         y="34.049999"
         width="20.737"
         height="11.557"
         ry="0.52271998"
         fill="#ffffff"
         stroke="#000000"
         stroke-width="1.5415"
         style="paint-order:fill markers stroke"
         id="rect1195" />
      <ellipse
         transform="matrix(0.83534,-0.54974,0.53915,0.84221,0,0)"
         cx="-5.059"
         cy="43.463001"
         rx="2.036"
         ry="2.0474999"
         fill="#aa4400"
         stroke="#000000"
         stroke-width="1.1324"
         style="paint-order:fill markers stroke"
         id="ellipse1197" />
    </g>
    <g
       transform="matrix(0.21348048,0.3944633,0.3944633,-0.21348048,17.593106,6.2888292)"
       id="g1207">
      <path
         d="m 33.84,46.22 c 6.268,-0.76747 13.694,-2.4357 13.694,-2.4357 1.0988,-0.19544 5.0189,-2.0677 4.5686,-3.4471 -0.45026,-1.3794 -4.5672,-1.8222 -5.666,-1.6267 l -14.254,2.5353 c -1.0988,0.19544 -22.843,4.8117 -22.267,6.5951 0.59409,1.8408 17.657,-0.8535 23.925,-1.621 z"
         fill="#814827"
         stroke="#56311b"
         stroke-linecap="square"
         stroke-width="0.5163"
         style="paint-order:fill markers stroke"
         id="path1201" />
      <path
         d="m 49.68,40.246 c -0.43222,-1.7646 1.0579,-3.4383 3.9322,-2.5327 2.8743,0.90561 5.2292,3.2214 5.2292,3.2214 0,0 -3.4577,-0.50567 -5.235,0.90984 -1.7773,1.4155 -3.4942,0.16601 -3.9264,-1.5986 z"
         fill="#321200"
         style="paint-order:fill markers stroke"
         id="path1203" />
      <path
         d="m 50.031,39.996 c -0.31381,-1.2477 1.0503,-2.6569 3.183,-2.0034 2.1327,0.65352 4.2618,2.0744 4.2618,2.0744 0,0 -4.0361,-1.5424 -5.3632,-0.55208 -1.3271,0.99027 -1.7678,1.7288 -2.0817,0.4811 z"
         fill="#461e07"
         style="paint-order:fill markers stroke"
         id="path1205" />
    </g>
    <path
       d="m 38.425521,10.218036 4.44339,0.589517 -0.245986,1.835142 -4.44339,-0.589518 z m -0.245986,1.835141 1.576813,0.209177 z"
       fill="#aa4400"
       stroke-width="0.385369"
       style="paint-order:fill markers stroke"
       id="path1209" />
    <g
       stroke-linecap="square"
       id="g1219"
       transform="matrix(0.85228551,0,0,0.85228551,-0.52648285,0.00850765)">
      <rect
         x="35.194"
         y="27.976"
         width="12.573"
         height="17.596001"
         ry="1.5229"
         fill="#666666"
         stroke="#262222"
         stroke-width="0.52917"
         style="paint-order:fill markers stroke"
         id="rect1211" />
      <path
         d="m 36.497,33.789 c 0.73441,2.6453 0.59203,1.8861 2.3504,1.7898 0.22706,-0.01244 0.17448,1.4944 1.0784,1.4213 0.65552,-0.053 2.2288,-2.4633 2.7632,-3.2634 0.6021,-0.90141 0.87826,0.93451 1.866,0.32828 0.08267,-0.05074 -0.18055,-1.1689 -0.20237,-1.2749 -0.36822,-1.7885 -1.6675,-1.1558 -2.7558,-2.0221"
         fill="#22b654"
         stroke="#1b9545"
         stroke-width="0.52917"
         style="paint-order:fill markers stroke"
         id="path1213" />
      <path
         d="m 47.826,30.791 c 0.39428,6.3811 -2.8421,2.0901 -3.9586,1.2284 -0.86972,-0.67118 -0.39869,1.4541 -2.9546,1.44 -0.98678,2.4899 -3.6822,-2.6567 -2.2894,-3.527 0.90259,-0.56401 8.9806,-2.7336 9.0436,-1.7143 z"
         fill="#2262b6"
         stroke="#1b5095"
         stroke-width="0.52917"
         style="paint-order:fill markers stroke"
         id="path1215" />
      <path
         d="m 36.43,27.93 c -2.673,-0.02302 -2.1638,9.3445 0.77414,8.3103 1.1232,-0.39534 0.45917,-2.4194 0.86436,-3.1285 0.21081,-0.36892 1.9417,0.24794 2.4924,-0.04663 0.48652,-0.26024 0.15433,-1.2859 0.67993,-1.5902 0.94834,-0.54904 3.1481,0.971 4.2335,-0.29963 0.51128,-0.59851 1.6941,-3.2176 0.59578,-3.2394 -2.2851,-0.04553 -9.6401,-0.14483 -9.6401,-0.0059 z"
         fill="#b62222"
         stroke="#9e1d1d"
         stroke-width="0.34396"
         style="paint-order:fill markers stroke"
         id="path1217" />
    </g>
  </g>
</svg>
