<!-- Created with Inkscape (http://www.inkscape.org/) -->
<svg width="210" height="175" version="1.1" viewBox="0 0 55.562 46.302" xmlns="http://www.w3.org/2000/svg">
 <g transform="translate(-2.0147)" stroke-linecap="square">
  <ellipse cx="7.8726" cy="5.1949" rx="2.0276" ry="2.0558" fill="#a40" stroke-width="1.1323" style="paint-order:fill markers stroke"/>
  <g transform="matrix(1.209,0,0,1.2258,-3.4692,-9.1453)">
   <g transform="matrix(-.28117 -.83268 .83268 -.28117 15.009 51.315)">
    <path d="m11.548 3.3838c-2.6961-0.00386-5.064 2.2182-5.064 4.9144 0 2.6961 2.1702 4.8664 4.8664 4.8664h33.375c2.6961 0 4.8669-2.1702 4.8669-4.8664 0-2.6961-2.1707-4.863-4.8669-4.8669zm-0.21008 1.4758h33.4c1.9047 0 3.4386 1.5338 3.4386 3.4385s-1.5338 3.438-3.4386 3.438h-33.4c-1.9047 0-3.438-1.5333-3.438-3.438s1.5333-3.4385 3.438-3.4385z" stroke-width="1.0583" style="paint-order:fill markers stroke"/>
    <path d="m13.571 4.8633-1.9854 3.4386-1.7616 3.052c0.45436 0.2353 1.3716 0.37954 1.5141 0.3824l1.9833-3.4344 1.9854-3.4386zm2.0273 0 1.9849 3.4386 1.9854 3.438h1.7353l-1.9849-3.438-1.9854-3.4386zm9.9674 0-1.9849 3.4386-1.9854 3.438h1.7358l1.9849-3.438 1.9854-3.4386zm2.0273 0 1.9849 3.4386 1.9854 3.438h1.7353l-1.9849-3.438-1.9854-3.4386zm9.9674 0-1.9849 3.4386-1.9854 3.438h1.7358l1.9849-3.438 1.9854-3.4386zm2.0273 0 0.75815 1.3864 1.5861-0.287-0.6084-1.0994z" fill="#4d4d4d" stroke-width=".85982" style="paint-order:fill markers stroke"/>
    <path d="m31.929 43.907-2.0449 4.1835-1.6509-0.80696 2.0449-4.1835zm-5.1508-2.5177-2.0449 4.1835-1.6509-0.80696 2.0449-4.1835zm-1.6509-0.80696 6.8017 3.3246-0.72565 1.4846-6.8017-3.3246z" fill="#a40" stroke-width=".3913" style="paint-order:fill markers stroke"/>
   </g>
   <g transform="matrix(.87349 .097109 -.097109 .87349 .21596 3.4113)">
    <path d="m11.35 3.4313c-2.6961 0-4.8664 2.1707-4.8664 4.8669 0 2.6961 2.1702 4.8664 4.8664 4.8664h33.375c2.6961 0 4.8669-2.1702 4.8669-4.8664 0-2.6961-2.1707-4.8669-4.8669-4.8669zm-0.0124 1.4283h33.4c1.9047 0 3.4386 1.5338 3.4386 3.4385s-1.5338 3.438-3.4386 3.438h-33.4c-1.9047 0-3.438-1.5333-3.438-3.438s1.5333-3.4385 3.438-3.4385z" stroke-width="1.0583" style="paint-order:fill markers stroke"/>
    <path d="m15.598 4.8633 1.9849 3.4386 1.9854 3.438h1.7353l-1.9849-3.438-1.9854-3.4386zm9.9674 0-1.9849 3.4386-1.9854 3.438h1.7358l1.9849-3.438 1.9854-3.4386zm2.0273 0 1.9849 3.4386 1.9854 3.438h1.7353l-1.9849-3.438-1.9854-3.4386zm9.9674 0-1.9849 3.4386-1.9854 3.438h1.7358l1.9849-3.438 1.9854-3.4386zm2.0273 0 1.9854 3.4386 1.9849 3.438h1.249c0.15879 0 0.31368-0.0145 0.46664-0.03514l-1.9653-3.4029-1.9849-3.4386zm8.5251 2.4986-0.5426 0.94-1.9229 3.3311c1.4951-0.37362 2.5978-1.717 2.5978-3.3311 0-0.32654-0.04801-0.64114-0.13229-0.94z" fill="#4d4d4d" stroke-width=".85982" style="paint-order:fill markers stroke"/>
   </g>
  </g>
  <rect transform="matrix(.99998 -.0065766 .02603 .99966 0 0)" x="7.8129" y="34.05" width="20.737" height="11.557" ry=".52272" fill="#fff" stroke="#000" stroke-width="1.5415" style="paint-order:fill markers stroke"/>
  <ellipse transform="matrix(.83534 -.54974 .53915 .84221 0 0)" cx="-5.059" cy="43.463" rx="2.036" ry="2.0475" fill="#a40" stroke="#000" stroke-width="1.1324" style="paint-order:fill markers stroke"/>
 </g>
 <g transform="matrix(.25048 .46283 .46283 -.25048 21.26 7.3688)">
  <path d="m33.84 46.22c6.268-0.76747 13.694-2.4357 13.694-2.4357 1.0988-0.19544 5.0189-2.0677 4.5686-3.4471-0.45026-1.3794-4.5672-1.8222-5.666-1.6267l-14.254 2.5353c-1.0988 0.19544-22.843 4.8117-22.267 6.5951 0.59409 1.8408 17.657-0.8535 23.925-1.621z" fill="#814827" stroke="#56311b" stroke-linecap="square" stroke-width=".5163" style="paint-order:fill markers stroke"/>
  <path d="m49.68 40.246c-0.43222-1.7646 1.0579-3.4383 3.9322-2.5327 2.8743 0.90561 5.2292 3.2214 5.2292 3.2214s-3.4577-0.50567-5.235 0.90984c-1.7773 1.4155-3.4942 0.16601-3.9264-1.5986z" fill="#321200" style="paint-order:fill markers stroke"/>
  <path d="m50.031 39.996c-0.31381-1.2477 1.0503-2.6569 3.183-2.0034 2.1327 0.65352 4.2618 2.0744 4.2618 2.0744s-4.0361-1.5424-5.3632-0.55208c-1.3271 0.99027-1.7678 1.7288-2.0817 0.4811z" fill="#461e07" style="paint-order:fill markers stroke"/>
 </g>
 <path d="m45.703 11.979 5.2135 0.69169-0.28862 2.1532-5.2135-0.69169zm-0.28862 2.1532 1.8501 0.24543z" fill="#a40" stroke-width=".45216" style="paint-order:fill markers stroke"/>
 <g stroke-linecap="square">
  <rect x="35.194" y="27.976" width="12.573" height="17.596" ry="1.5229" fill="#666" stroke="#262222" stroke-width=".52917" style="paint-order:fill markers stroke"/>
  <path d="m36.497 33.789c0.73441 2.6453 0.59203 1.8861 2.3504 1.7898 0.22706-0.01244 0.17448 1.4944 1.0784 1.4213 0.65552-0.053 2.2288-2.4633 2.7632-3.2634 0.6021-0.90141 0.87826 0.93451 1.866 0.32828 0.08267-0.05074-0.18055-1.1689-0.20237-1.2749-0.36822-1.7885-1.6675-1.1558-2.7558-2.0221" fill="#22b654" stroke="#1b9545" stroke-width=".52917" style="paint-order:fill markers stroke"/>
  <path d="m47.826 30.791c0.39428 6.3811-2.8421 2.0901-3.9586 1.2284-0.86972-0.67118-0.39869 1.4541-2.9546 1.44-0.98678 2.4899-3.6822-2.6567-2.2894-3.527 0.90259-0.56401 8.9806-2.7336 9.0436-1.7143z" fill="#2262b6" stroke="#1b5095" stroke-width=".52917" style="paint-order:fill markers stroke"/>
  <path d="m36.43 27.93c-2.673-0.02302-2.1638 9.3445 0.77414 8.3103 1.1232-0.39534 0.45917-2.4194 0.86436-3.1285 0.21081-0.36892 1.9417 0.24794 2.4924-0.04663 0.48652-0.26024 0.15433-1.2859 0.67993-1.5902 0.94834-0.54904 3.1481 0.971 4.2335-0.29963 0.51128-0.59851 1.6941-3.2176 0.59578-3.2394-2.2851-0.04553-9.6401-0.14483-9.6401-0.0059z" fill="#b62222" stroke="#9e1d1d" stroke-width=".34396" style="paint-order:fill markers stroke"/>
 </g>
</svg>
