<?xml version="1.0" encoding="UTF-8" standalone="no"?>
<!-- Created with Inkscape (http://www.inkscape.org/) -->

<svg
   width="300"
   height="300"
   viewBox="0 0 79.375 79.375"
   version="1.1"
   id="svg1"
   xml:space="preserve"
   inkscape:version="1.3 (1:1.3+202307231459+0e150ed6c4)"
   sodipodi:docname="fireflylogo.svg"
   inkscape:export-filename="fireflylogo.png"
   inkscape:export-xdpi="415.05997"
   inkscape:export-ydpi="415.05997"
   xmlns:inkscape="http://www.inkscape.org/namespaces/inkscape"
   xmlns:sodipodi="http://sodipodi.sourceforge.net/DTD/sodipodi-0.dtd"
   xmlns="http://www.w3.org/2000/svg"
   xmlns:svg="http://www.w3.org/2000/svg"><sodipodi:namedview
     id="namedview1"
     pagecolor="#505050"
     bordercolor="#eeeeee"
     borderopacity="1"
     inkscape:showpageshadow="0"
     inkscape:pageopacity="0"
     inkscape:pagecheckerboard="0"
     inkscape:deskcolor="#505050"
     inkscape:document-units="mm"
     inkscape:zoom="2.2904189"
     inkscape:cx="30.343794"
     inkscape:cy="150.84577"
     inkscape:window-width="1920"
     inkscape:window-height="1131"
     inkscape:window-x="0"
     inkscape:window-y="32"
     inkscape:window-maximized="0"
     inkscape:current-layer="layer1" /><defs
     id="defs1" /><g
     inkscape:label="Layer 1"
     inkscape:groupmode="layer"
     id="layer1"
     transform="translate(-74.513844,-117.90201)"><circle
       style="fill:#f9f9f9;stroke-width:1.34938"
       id="path4"
       cx="114.20135"
       cy="157.58951"
       r="30.597988" /><g
       id="g4"
       transform="translate(9.2015422,63.147977)"><path
         id="path1"
         style="fill:#ff6600;stroke-width:1.34938"
         d="m 104.4493,91.424613 c -0.36351,-10e-4 -0.73631,0.0131 -1.11931,0.0429 -3.06399,0.23869 -5.327326,2.1177 -5.327326,2.1177 0,0 -2.65447,2.45344 -2.963127,4.57853 l -0.308508,2.124947 c 0,0 0.148772,3.15817 1.049031,4.40697 0.900258,1.2488 2.011639,2.75016 3.287138,3.59306 1.275502,0.8429 3.252942,2.70314 3.446822,3.85661 0.19388,1.15347 0.71974,3.21416 0.39119,4.13101 -0.32843,0.91651 -0.6514,1.92574 -0.65164,1.9265 0.004,-10e-4 5.2527,-2.1467 6.74015,-5.65185 1.48797,-3.50635 1.3447,-6.05486 1.11001,-7.08897 -0.23469,-1.0341 -0.90537,-2.74351 -0.90537,-2.74351 0,0 0.21898,-2.12541 1.50999,-0.82423 1.291,1.30117 1.73475,3.74822 1.66398,4.83846 -0.0708,1.09024 -0.66818,3.08508 -0.66818,3.08508 0,0 2.81584,-2.90849 3.14761,-4.88549 0.33178,-1.97698 0.74618,-4.25695 -0.005,-6.108677 -0.75178,-1.85172 -1.58351,-4.18175 -3.81268,-5.4963 -1.95053,-1.15023 -4.04007,-1.89451 -6.58461,-1.90273 z m -0.16898,4.13877 c 0.0961,3.5e-4 0.19217,0.005 0.28784,0.0145 1.53057,0.14978 2.63704,1.3348 2.63704,1.3348 0,0 -0.54265,0.19138 -0.92449,0.31574 -0.38184,0.12435 -1.71996,1.25207 -2.16834,2.22519 -0.44838,0.973137 0.12583,2.561997 0.49351,3.948597 0.36767,1.38661 -0.35605,2.91249 -0.35605,2.91249 0,0 -0.24152,-0.11496 -0.41445,-0.84956 -0.17292,-0.73461 -1.77015,-1.72726 -2.70577,-2.697 -0.93563,-0.96973 -1.01748,-2.00307 -1.11467,-3.466977 -0.09719,-1.4639 1.37408,-2.79724 1.37408,-2.79724 0,0 1.44905,-0.94578 2.8913,-0.94051 z" /><path
         id="path2"
         style="fill:#1a1a1a;stroke-width:1.34938"
         d="m 104.81416,83.80367 c 0,0 0.006,0.04397 0.006,0.04548 -2.89762,0.0063 -5.434331,0.279928 -8.428947,1.865002 -2.661154,1.40857 -6.941309,4.060932 -9.937378,9.377205 -1.78038,3.159137 -0.198258,6.782683 0.420646,7.546823 0.505809,0.6245 1.882629,2.55951 4.58215,2.97915 2.69952,0.41964 5.938275,-3.02046 6.913789,-4.10776 0.785573,-0.87559 4.54472,-6.93423 5.2741,-9.01702 0.52457,-1.497962 1.0815,-5.257101 1.35857,-7.281727 0.27888,2.033802 0.83047,5.749973 1.35186,7.238835 0.72937,2.082791 4.48852,8.141432 5.2741,9.017012 0.97551,1.0873 4.21427,4.5274 6.91379,4.10776 2.69951,-0.41964 4.07685,-2.35464 4.58266,-2.97914 0.61891,-0.76414 2.20051,-4.387687 0.42013,-7.546824 -2.99607,-5.316274 -7.27622,-7.969153 -9.93738,-9.377722 -3.12114,-1.652047 -5.74056,-1.882427 -8.79429,-1.86707 z" /><path
         style="fill:#1a1a1a;stroke-width:1.34938"
         d="m 96.221221,83.714742 c 0,0 4.032079,-1.865508 8.248959,-1.913543 4.21689,-0.04804 7.74137,1.160719 8.97248,1.5866 1.23111,0.425884 -0.95318,-4.200673 -0.95318,-4.200673 0,0 -1.68129,-1.850525 -2.60903,-2.663542 -0.92773,-0.813019 -1.47402,-0.735697 -1.47402,-0.735697 0,0 -0.21506,-1.604407 0.56674,-2.213057 0.7818,-0.608653 1.92401,-0.483312 1.92401,-0.483312 0,0 0.86108,-0.609746 0.75133,-1.139732 -0.10975,-0.52999 -0.44075,-1.20127 -0.81591,-1.250974 -0.37517,-0.0497 -2.12895,-0.09536 -3.05727,0.963559 -0.92833,1.058916 -1.19969,1.647595 -1.19969,1.647595 0,0 -0.34852,1.637517 -0.57586,1.776675 -0.22734,0.13916 -2.27687,0.04408 -2.27687,0.04408 0,0 -0.40152,-1.571808 -0.88092,-2.363873 -0.47941,-0.792064 -1.43897,-1.459029 -1.66361,-1.654402 -0.22464,-0.195376 -1.332465,-0.475988 -1.934789,-0.372491 -0.602324,0.103494 -0.949378,0.605515 -0.949378,0.605515 0,0 -0.240564,0.786863 0.06673,1.139602 0.307298,0.35274 1.166868,0.555567 1.619385,0.61852 0.452522,0.06295 0.805032,0.664442 0.805032,0.664442 0,0 0.59955,0.834697 0.61189,1.376503 0.0123,0.541803 -0.12674,0.816568 -0.12674,0.816568 0,0 -1.713894,0.684564 -2.758863,1.975122 -1.044969,1.290556 -1.961938,2.932361 -2.107523,3.236503 -0.145584,0.304141 -0.29719,2.099228 -0.182904,2.540015 z"
         id="path3" /></g></g></svg>
