<svg version="1.1" viewBox="0.0 0.0 960.0 540.0" fill="none" stroke="none" stroke-linecap="square" stroke-miterlimit="10" xmlns:xlink="http://www.w3.org/1999/xlink" xmlns="http://www.w3.org/2000/svg"><clipPath id="p1.0"><path d="m0 0l960.0 0l0 540.0l-960.0 0l0 -540.0z" clip-rule="nonzero"/></clipPath><g clip-path="url(#p1.0)"><path fill="#ffffff" d="m0 0l960.0 0l0 540.0l-960.0 0z" fill-rule="evenodd"/><path fill="#000000" fill-opacity="0.0" d="m32.73071 78.16063l894.5386 0l0 215.50865l-894.5386 0z" fill-rule="evenodd"/><path fill="#000000" d="m79.44989 184.8293l0 -41.234375l-14.734375 0l0 -8.390625l39.437492 0l0 8.390625l-14.687492 0l0 41.234375l-10.015625 0zm40.582756 -49.625l0 18.25q4.609375 -5.390625 11.000008 -5.390625q3.28125 0 5.921875 1.21875q2.640625 1.21875 3.96875 3.125q1.34375 1.890625 1.828125 4.1875q0.5 2.296875 0.5 7.140625l0 21.09375l-9.5 0l0 -18.984375q0 -5.65625 -0.546875 -7.171875q-0.546875 -1.53125 -1.921875 -2.421875q-1.359375 -0.90625 -3.4218826 -0.90625q-2.375 0 -4.234375 1.15625q-1.859375 1.140625 -2.734375 3.46875q-0.859375 2.3125 -0.859375 6.84375l0 18.015625l-9.515625 0l0 -49.625l9.515625 0zm53.692146 38.1875l9.46875 1.59375q-1.8125 5.203125 -5.765625 7.9375q-3.9375 2.71875 -9.859375 2.71875q-9.390625 0 -13.890625 -6.125q-3.546875 -4.90625 -3.546875 -12.390625q0 -8.9375 4.671875 -14.0q4.671875 -5.0625 11.8125 -5.0625q8.015625 0 12.65625 5.296875q4.640625 5.296875 4.4375 16.234375l-23.828125 0q0.09375 4.234375 2.296875 6.59375q2.203125 2.34375 5.484375 2.34375q2.234375 0 3.75 -1.21875q1.53125 -1.21875 2.3125 -3.921875zm0.546875 -9.625q-0.109375 -4.125 -2.140625 -6.265625q-2.03125 -2.15625 -4.9375 -2.15625q-3.125 0 -5.15625 2.265625q-2.03125 2.265625 -1.984375 6.15625l14.21875 0zm33.97484 4.921875l9.75 -0.953125q0.890625 4.90625 3.578125 7.21875q2.6875 2.296875 7.265625 2.296875q4.828125 0 7.28125 -2.046875q2.46875 -2.046875 2.46875 -4.796875q0 -1.765625 -1.046875 -3.0q-1.03125 -1.234375 -3.59375 -2.140625q-1.765625 -0.609375 -8.03125 -2.171875q-8.046875 -2.0 -11.296875 -4.90625q-4.578125 -4.09375 -4.578125 -9.984375q0 -3.796875 2.140625 -7.09375q2.15625 -3.296875 6.203125 -5.015625q4.046875 -1.734375 9.765625 -1.734375q9.34375 0 14.0625 4.09375q4.734375 4.09375 4.96875 10.9375l-10.015625 0.4375q-0.65625 -3.828125 -2.765625 -5.5q-2.109375 -1.671875 -6.34375 -1.671875q-4.375 0 -6.84375 1.78125q-1.59375 1.15625 -1.59375 3.09375q0 1.75 1.5 3.0q1.890625 1.59375 9.203125 3.328125q7.3125 1.71875 10.8125 3.5625q3.5 1.84375 5.484375 5.046875q1.984375 3.203125 1.984375 7.90625q0 4.265625 -2.375 8.0q-2.375 3.71875 -6.703125 5.53125q-4.328125 1.796875 -10.796875 1.796875q-9.40625 0 -14.453125 -4.34375q-5.046875 -4.34375 -6.03125 -12.671875zm65.21007 -19.8125l0 7.578125l-6.5 0l0 14.5q0 4.390625 0.171875 5.125q0.1875 0.734375 0.84375 1.203125q0.671875 0.46875 1.625 0.46875q1.3125 0 3.8125 -0.90625l0.8125 7.375q-3.3125 1.421875 -7.515625 1.421875q-2.5625 0 -4.640625 -0.859375q-2.0625 -0.859375 -3.03125 -2.234375q-0.953125 -1.375 -1.328125 -3.703125q-0.296875 -1.671875 -0.296875 -6.703125l0 -15.6875l-4.375 0l0 -7.578125l4.375 0l0 -7.140625l9.546875 -5.546875l0 12.6875l6.5 0zm13.696167 10.96875l-8.625 -1.5625q1.453125 -5.203125 5.0 -7.703125q3.5625 -2.515625 10.5781555 -2.515625q6.359375 0 9.46875 1.515625q3.125 1.5 4.390625 3.828125q1.265625 2.3125 1.265625 8.5l-0.09375 11.109375q0 4.734375 0.453125 6.984375q0.453125 2.25 1.703125 4.828125l-9.40625 0q-0.375 -0.953125 -0.921875 -2.8125q-0.234375 -0.84375 -0.328125 -1.109375q-2.4375 2.359375 -5.21875 3.546875q-2.78125 1.1875 -5.921875 1.1875q-5.5469055 0 -8.7500305 -3.015625q-3.203125 -3.015625 -3.203125 -7.609375q0 -3.046875 1.453125 -5.4375q1.453125 -2.390625 4.078125 -3.65625q2.625 -1.265625 7.5781555 -2.21875q6.65625 -1.25 9.234375 -2.328125l0 -0.953125q0 -2.75 -1.359375 -3.90625q-1.34375 -1.171875 -5.109375 -1.171875q-2.53125 0 -3.953125 1.0q-1.4219055 1.0 -2.3125305 3.5zm12.7344055 7.71875q-1.828125 0.609375 -5.796875 1.453125q-3.953125 0.84375 -5.171875 1.65625q-1.8594055 1.328125 -1.8594055 3.359375q0 2.0 1.484375 3.453125q1.5000305 1.453125 3.7969055 1.453125q2.578125 0 4.90625 -1.6875q1.734375 -1.296875 2.265625 -3.15625q0.375 -1.21875 0.375 -4.640625l0 -1.890625zm35.213257 -18.6875l0 7.578125l-6.5 0l0 14.5q0 4.390625 0.171875 5.125q0.1875 0.734375 0.84375 1.203125q0.671875 0.46875 1.625 0.46875q1.3125 0 3.8125 -0.90625l0.8125 7.375q-3.3125 1.421875 -7.515625 1.421875q-2.5625 0 -4.640625 -0.859375q-2.0625 -0.859375 -3.03125 -2.234375q-0.953125 -1.375 -1.328125 -3.703125q-0.296875 -1.671875 -0.296875 -6.703125l0 -15.6875l-4.375 0l0 -7.578125l4.375 0l0 -7.140625l9.546875 -5.546875l0 12.6875l6.5 0zm27.414917 24.515625l9.46875 1.59375q-1.8125 5.203125 -5.765625 7.9375q-3.9375 2.71875 -9.859375 2.71875q-9.390625 0 -13.890625 -6.125q-3.546875 -4.90625 -3.546875 -12.390625q0 -8.9375 4.671875 -14.0q4.671875 -5.0625 11.8125 -5.0625q8.015625 0 12.65625 5.296875q4.640625 5.296875 4.4375 16.234375l-23.828125 0q0.09375 4.234375 2.296875 6.59375q2.203125 2.34375 5.484375 2.34375q2.234375 0 3.75 -1.21875q1.53125 -1.21875 2.3125 -3.921875zm0.546875 -9.625q-0.109375 -4.125 -2.140625 -6.265625q-2.03125 -2.15625 -4.9375 -2.15625q-3.125 0 -5.15625 2.265625q-2.03125 2.265625 -1.984375 6.15625l14.21875 0zm34.256104 2.578125q0 -4.734375 2.328125 -9.171875q2.34375 -4.4375 6.625 -6.765625q4.28125 -2.34375 9.5625 -2.34375q8.15625 0 13.359375 5.296875q5.21875 5.296875 5.21875 13.390625q0 8.15625 -5.265625 13.53125q-5.265625 5.359375 -13.25 5.359375q-4.9375 0 -9.421875 -2.234375q-4.484375 -2.234375 -6.828125 -6.546875q-2.328125 -4.3125 -2.328125 -10.515625zm9.75 0.515625q0 5.34375 2.53125 8.1875q2.546875 2.84375 6.265625 2.84375q3.71875 0 6.234375 -2.84375q2.53125 -2.84375 2.53125 -8.265625q0 -5.28125 -2.53125 -8.125q-2.515625 -2.84375 -6.234375 -2.84375q-3.71875 0 -6.265625 2.84375q-2.53125 2.84375 -2.53125 8.203125zm30.629639 -17.984375l5.28125 0l0 -2.703125q0 -4.53125 0.953125 -6.765625q0.96875 -2.234375 3.5625 -3.640625q2.59375 -1.40625 6.546875 -1.40625q4.0625 0 7.96875 1.21875l-1.296875 6.625q-2.265625 -0.53125 -4.359375 -0.53125q-2.0625 0 -2.96875 0.96875q-0.890625 0.953125 -0.890625 3.703125l0 2.53125l7.109375 0l0 7.484375l-7.109375 0l0 28.46875l-9.515625 0l0 -28.46875l-5.28125 0l0 -7.484375zm46.44214 35.953125l0 -49.625l15.0 0l9.0 33.84375l8.90625 -33.84375l15.03125 0l0 49.625l-9.3125 0l0 -39.0625l-9.84375 39.0625l-9.65625 0l-9.8125 -39.0625l0 39.0625l-9.3125 0zm64.92273 -24.984375l-8.625 -1.5625q1.453125 -5.203125 5.0 -7.703125q3.5625 -2.515625 10.578125 -2.515625q6.359375 0 9.46875 1.515625q3.125 1.5 4.390625 3.828125q1.265625 2.3125 1.265625 8.5l-0.09375 11.109375q0 4.734375 0.453125 6.984375q0.453125 2.25 1.703125 4.828125l-9.40625 0q-0.375 -0.953125 -0.921875 -2.8125q-0.234375 -0.84375 -0.328125 -1.109375q-2.4375 2.359375 -5.21875 3.546875q-2.78125 1.1875 -5.921875 1.1875q-5.546875 0 -8.75 -3.015625q-3.203125 -3.015625 -3.203125 -7.609375q0 -3.046875 1.453125 -5.4375q1.453125 -2.390625 4.078125 -3.65625q2.625 -1.265625 7.578125 -2.21875q6.65625 -1.25 9.234375 -2.328125l0 -0.953125q0 -2.75 -1.359375 -3.90625q-1.34375 -1.171875 -5.109375 -1.171875q-2.53125 0 -3.953125 1.0q-1.421875 1.0 -2.3125 3.5zm12.734375 7.71875q-1.828125 0.609375 -5.796875 1.453125q-3.953125 0.84375 -5.171875 1.65625q-1.859375 1.328125 -1.859375 3.359375q0 2.0 1.484375 3.453125q1.5 1.453125 3.796875 1.453125q2.578125 0 4.90625 -1.6875q1.734375 -1.296875 2.265625 -3.15625q0.375 -1.21875 0.375 -4.640625l0 -1.890625zm18.385132 17.265625l0 -49.625l9.515625 0l0 26.328125l11.125 -12.65625l11.71875 0l-12.28125 13.140625l13.15625 22.8125l-10.25 0l-9.046875 -16.140625l-4.421875 4.625l0 11.515625l-9.515625 0zm59.713257 -11.4375l9.46875 1.59375q-1.8125 5.203125 -5.765625 7.9375q-3.9375 2.71875 -9.859375 2.71875q-9.390625 0 -13.890625 -6.125q-3.546875 -4.90625 -3.546875 -12.390625q0 -8.9375 4.671875 -14.0q4.671875 -5.0625 11.8125 -5.0625q8.015625 0 12.65625 5.296875q4.640625 5.296875 4.4375 16.234375l-23.828125 0q0.09375 4.234375 2.296875 6.59375q2.203125 2.34375 5.484375 2.34375q2.234375 0 3.75 -1.21875q1.53125 -1.21875 2.3125 -3.921875zm0.546875 -9.625q-0.109375 -4.125 -2.140625 -6.265625q-2.03125 -2.15625 -4.9375 -2.15625q-3.125 0 -5.15625 2.265625q-2.03125 2.265625 -1.984375 6.15625l14.21875 0zm26.291382 21.0625l-9.515625 0l0 -35.953125l8.84375 0l0 5.109375q2.265625 -3.625 4.078125 -4.765625q1.8125 -1.15625 4.109375 -1.15625q3.25 0 6.265625 1.796875l-2.9375 8.296875q-2.40625 -1.5625 -4.46875 -1.5625q-2.0 0 -3.390625 1.109375q-1.390625 1.09375 -2.1875 3.96875q-0.796875 2.875 -0.796875 12.046875l0 11.109375zm14.526611 -10.25l9.546875 -1.46875q0.609375 2.78125 2.46875 4.21875q1.859375 1.4375 5.21875 1.4375q3.6875 0 5.546875 -1.34375q1.25 -0.953125 1.25 -2.546875q0 -1.078125 -0.671875 -1.796875q-0.71875 -0.671875 -3.1875 -1.25q-11.5 -2.53125 -14.59375 -4.640625q-4.265625 -2.90625 -4.265625 -8.09375q0 -4.671875 3.6875 -7.84375q3.703125 -3.1875 11.453125 -3.1875q7.375 0 10.96875 2.40625q3.59375 2.40625 4.9375 7.109375l-8.96875 1.65625q-0.578125 -2.09375 -2.1875 -3.203125q-1.609375 -1.125 -4.578125 -1.125q-3.765625 0 -5.390625 1.046875q-1.078125 0.75 -1.078125 1.921875q0 1.015625 0.953125 1.734375q1.28125 0.953125 8.875 2.6875q7.609375 1.71875 10.625 4.21875q2.96875 2.53125 2.96875 7.078125q0 4.9375 -4.125 8.5q-4.125 3.546875 -12.21875 3.546875q-7.34375 0 -11.640625 -2.96875q-4.28125 -2.984375 -5.59375 -8.09375zm41.63513 -25.703125l8.875 0l0 5.28125q1.71875 -2.703125 4.65625 -4.390625q2.953125 -1.703125 6.546875 -1.703125q6.265625 0 10.625 4.90625q4.375 4.90625 4.375 13.6875q0 9.0 -4.40625 14.0q-4.40625 4.984375 -10.65625 4.984375q-2.984375 0 -5.40625 -1.1875q-2.421875 -1.1875 -5.09375 -4.0625l0 18.109375l-9.515625 0l0 -49.625zm9.40625 17.375q0 6.046875 2.40625 8.953125q2.40625 2.890625 5.859375 2.890625q3.3125 0 5.515625 -2.65625q2.203125 -2.65625 2.203125 -8.71875q0 -5.65625 -2.265625 -8.390625q-2.265625 -2.75 -5.625 -2.75q-3.484375 0 -5.796875 2.703125q-2.296875 2.6875 -2.296875 7.96875zm40.31714 -6.40625l-8.625 -1.5625q1.453125 -5.203125 5.0 -7.703125q3.5625 -2.515625 10.578125 -2.515625q6.359375 0 9.46875 1.515625q3.125 1.5 4.390625 3.828125q1.265625 2.3125 1.265625 8.5l-0.09375 11.109375q0 4.734375 0.453125 6.984375q0.453125 2.25 1.703125 4.828125l-9.40625 0q-0.375 -0.953125 -0.921875 -2.8125q-0.234375 -0.84375 -0.328125 -1.109375q-2.4375 2.359375 -5.21875 3.546875q-2.78125 1.1875 -5.921875 1.1875q-5.546875 0 -8.75 -3.015625q-3.203125 -3.015625 -3.203125 -7.609375q0 -3.046875 1.453125 -5.4375q1.453125 -2.390625 4.078125 -3.65625q2.625 -1.265625 7.578125 -2.21875q6.65625 -1.25 9.234375 -2.328125l0 -0.953125q0 -2.75 -1.359375 -3.90625q-1.34375 -1.171875 -5.109375 -1.171875q-2.53125 0 -3.953125 1.0q-1.421875 1.0 -2.3125 3.5zm12.734375 7.71875q-1.828125 0.609375 -5.796875 1.453125q-3.953125 0.84375 -5.171875 1.65625q-1.859375 1.328125 -1.859375 3.359375q0 2.0 1.484375 3.453125q1.5 1.453125 3.796875 1.453125q2.578125 0 4.90625 -1.6875q1.734375 -1.296875 2.265625 -3.15625q0.375 -1.21875 0.375 -4.640625l0 -1.890625zm50.07263 -8.0625l-9.375 1.703125q-0.484375 -2.8125 -2.15625 -4.234375q-1.671875 -1.421875 -4.34375 -1.421875q-3.5625 0 -5.6875 2.453125q-2.109375 2.453125 -2.109375 8.203125q0 6.40625 2.140625 9.046875q2.15625 2.640625 5.78125 2.640625q2.71875 0 4.4375 -1.53125q1.734375 -1.546875 2.4375 -5.3125l9.34375 1.59375q-1.453125 6.4375 -5.59375 9.71875q-4.125 3.28125 -11.0625 3.28125q-7.890625 0 -12.578125 -4.96875q-4.6875 -4.984375 -4.6875 -13.78125q0 -8.90625 4.703125 -13.859375q4.703125 -4.96875 12.734375 -4.96875q6.5625 0 10.4375 2.828125q3.875 2.828125 5.578125 8.609375zm28.025757 13.890625l9.46875 1.59375q-1.8125 5.203125 -5.765625 7.9375q-3.9375 2.71875 -9.859375 2.71875q-9.390625 0 -13.890625 -6.125q-3.546875 -4.90625 -3.546875 -12.390625q0 -8.9375 4.671875 -14.0q4.671875 -5.0625 11.8125 -5.0625q8.015625 0 12.65625 5.296875q4.640625 5.296875 4.4375 16.234375l-23.828125 0q0.09375 4.234375 2.296875 6.59375q2.203125 2.34375 5.484375 2.34375q2.234375 0 3.75 -1.21875q1.53125 -1.21875 2.3125 -3.921875zm0.546875 -9.625q-0.109375 -4.125 -2.140625 -6.265625q-2.03125 -2.15625 -4.9375 -2.15625q-3.125 0 -5.15625 2.265625q-2.03125 2.265625 -1.984375 6.15625l14.21875 0zm13.838257 10.8125l9.546875 -1.46875q0.609375 2.78125 2.46875 4.21875q1.859375 1.4375 5.21875 1.4375q3.6875 0 5.546875 -1.34375q1.25 -0.953125 1.25 -2.546875q0 -1.078125 -0.671875 -1.796875q-0.71875 -0.671875 -3.1875 -1.25q-11.5 -2.53125 -14.59375 -4.640625q-4.265625 -2.90625 -4.265625 -8.09375q0 -4.671875 3.6875 -7.84375q3.703125 -3.1875 11.453125 -3.1875q7.375 0 10.96875 2.40625q3.59375 2.40625 4.9375 7.109375l-8.96875 1.65625q-0.578125 -2.09375 -2.1875 -3.203125q-1.609375 -1.125 -4.578125 -1.125q-3.765625 0 -5.390625 1.046875q-1.078125 0.75 -1.078125 1.921875q0 1.015625 0.953125 1.734375q1.28125 0.953125 8.875 2.6875q7.609375 1.71875 10.625 4.21875q2.96875 2.53125 2.96875 7.078125q0 4.9375 -4.125 8.5q-4.125 3.546875 -12.21875 3.546875q-7.34375 0 -11.640625 -2.96875q-4.28125 -2.984375 -5.59375 -8.09375z" fill-rule="nonzero"/><path fill="#000000" d="m347.0363 243.04492l-8.625 -1.5625q1.453125 -5.203125 5.0 -7.703125q3.5625 -2.515625 10.578125 -2.515625q6.359375 0 9.46875 1.515625q3.125 1.5 4.390625 3.828125q1.265625 2.3125 1.265625 8.5l-0.09375 11.109375q0 4.734375 0.453125 6.984375q0.453125 2.25 1.703125 4.828125l-9.40625 0q-0.375 -0.953125 -0.921875 -2.8125q-0.234375 -0.84375 -0.328125 -1.109375q-2.4375 2.359375 -5.21875 3.546875q-2.78125 1.1875 -5.921875 1.1875q-5.546875 0 -8.75 -3.015625q-3.203125 -3.015625 -3.203125 -7.609375q0 -3.046875 1.453125 -5.4375q1.453125 -2.390625 4.078125 -3.65625q2.625 -1.265625 7.578125 -2.21875q6.65625 -1.25 9.234375 -2.328125l0 -0.953125q0 -2.75 -1.359375 -3.90625q-1.34375 -1.171875 -5.109375 -1.171875q-2.53125 0 -3.953125 1.0q-1.421875 1.0 -2.3125 3.5zm12.734375 7.71875q-1.828125 0.609375 -5.796875 1.453125q-3.953125 0.84375 -5.171875 1.65625q-1.859375 1.328125 -1.859375 3.359375q0 2.0 1.484375 3.453125q1.5 1.453125 3.796875 1.453125q2.578125 0 4.90625 -1.6875q1.734375 -1.296875 2.265625 -3.15625q0.375 -1.21875 0.375 -4.640625l0 -1.890625zm35.213257 -18.6875l0 7.578125l-6.5 0l0 14.5q0 4.390625 0.171875 5.125q0.1875 0.734375 0.84375 1.203125q0.671875 0.46875 1.625 0.46875q1.3125 0 3.8125 -0.90625l0.8125 7.375q-3.3125 1.421875 -7.515625 1.421875q-2.5625 0 -4.640625 -0.859375q-2.0625 -0.859375 -3.03125 -2.234375q-0.953125 -1.375 -1.328125 -3.703125q-0.296875 -1.671875 -0.296875 -6.703125l0 -15.6875l-4.375 0l0 -7.578125l4.375 0l0 -7.140625l9.546875 -5.546875l0 12.6875l6.5 0zm25.848389 -13.671875l10.03125 0l0 26.875q0 6.40625 0.375 8.296875q0.640625 3.046875 3.0625 4.890625q2.421875 1.84375 6.609375 1.84375q4.265625 0 6.4375 -1.734375q2.171875 -1.75 2.609375 -4.28125q0.4375 -2.546875 0.4375 -8.4375l0 -27.453125l10.015625 0l0 26.0625q0 8.9375 -0.8125 12.625q-0.8125 3.6875 -3.0 6.234375q-2.171875 2.53125 -5.828125 4.046875q-3.65625 1.5 -9.546875 1.5q-7.109375 0 -10.78125 -1.640625q-3.671875 -1.640625 -5.8125 -4.265625q-2.125 -2.625 -2.8125 -5.5q-0.984375 -4.265625 -0.984375 -12.59375l0 -26.46875zm81.894684 31.375l9.71875 3.078125q-2.234375 8.125 -7.4375 12.078125q-5.1875 3.9375 -13.1875 3.9375q-9.875 0 -16.25 -6.75q-6.359375 -6.75 -6.359375 -18.46875q0 -12.390625 6.390625 -19.234375q6.40625 -6.859375 16.828125 -6.859375q9.109375 0 14.796875 5.375q3.390625 3.1875 5.078125 9.140625l-9.921875 2.375q-0.875 -3.859375 -3.671875 -6.09375q-2.78125 -2.234375 -6.78125 -2.234375q-5.515625 0 -8.953125 3.96875q-3.4375 3.953125 -3.4375 12.8125q0 9.421875 3.375 13.421875q3.390625 3.984375 8.8125 3.984375q4.0 0 6.875 -2.53125q2.875 -2.546875 4.125 -8.0zm16.050903 -0.234375q0 -4.734375 2.328125 -9.171875q2.34375 -4.4375 6.625 -6.765625q4.28125 -2.34375 9.5625 -2.34375q8.156311 0 13.359436 5.296875q5.21875 5.296875 5.21875 13.390625q0 8.15625 -5.265625 13.53125q-5.265625 5.359375 -13.250061 5.359375q-4.9375 0 -9.421875 -2.234375q-4.484375 -2.234375 -6.828125 -6.546875q-2.328125 -4.3125 -2.328125 -10.515625zm9.75 0.515625q0 5.34375 2.53125 8.1875q2.546875 2.84375 6.265625 2.84375q3.71875 0 6.234375 -2.84375q2.531311 -2.84375 2.531311 -8.265625q0 -5.28125 -2.531311 -8.125q-2.515625 -2.84375 -6.234375 -2.84375q-3.71875 0 -6.265625 2.84375q-2.53125 2.84375 -2.53125 8.203125zm67.489075 17.96875l-9.5 0l0 -18.34375q0 -5.828125 -0.609375 -7.53125q-0.609375 -1.71875 -1.984375 -2.65625q-1.375 -0.953125 -3.296875 -0.953125q-2.484375 0 -4.453125 1.359375q-1.953125 1.34375 -2.6875 3.578125q-0.71875 2.234375 -0.71875 8.265625l0 16.28125l-9.515625 0l0 -35.953125l8.84375 0l0 5.28125q4.703125 -6.09375 11.84375 -6.09375q3.140625 0 5.75 1.140625q2.609375 1.125 3.9375 2.890625q1.34375 1.765625 1.859375 4.0q0.53125 2.234375 0.53125 6.390625l0 22.34375zm42.34839 0l-9.5 0l0 -18.34375q0 -5.828125 -0.609375 -7.53125q-0.609375 -1.71875 -1.984375 -2.65625q-1.375 -0.953125 -3.296875 -0.953125q-2.484375 0 -4.453125 1.359375q-1.953125 1.34375 -2.6875 3.578125q-0.71875 2.234375 -0.71875 8.265625l0 16.28125l-9.515625 0l0 -35.953125l8.84375 0l0 5.28125q4.703125 -6.09375 11.84375 -6.09375q3.140625 0 5.75 1.140625q2.609375 1.125 3.9375 2.890625q1.34375 1.765625 1.859375 4.0q0.53125 2.234375 0.53125 6.390625l0 22.34375z" fill-rule="nonzero"/><path fill="#000000" fill-opacity="0.0" d="m32.73071 297.5622l894.5386 0l0 83.22522l-894.5386 0z" fill-rule="evenodd"/><path fill="#595959" d="m256.87537 342.4022l0 -26.71875l3.53125 0l0 13.25l13.265625 -13.25l4.796875 0l-11.203125 10.828125l11.703125 15.890625l-4.671875 0l-9.515625 -13.53125l-4.375 4.265625l0 9.265625l-3.53125 0zm37.256958 -2.390625q-1.828125 1.546875 -3.515625 2.1875q-1.6875 0.640625 -3.6094055 0.640625q-3.1875 0 -4.90625 -1.546875q-1.71875 -1.5625 -1.71875 -4.0q0 -1.421875 0.640625 -2.59375q0.65625 -1.171875 1.703125 -1.875q1.046875 -0.71875 2.359375 -1.078125q0.96875 -0.265625 2.921875 -0.5q3.9687805 -0.46875 5.8437805 -1.125q0.03125 -0.671875 0.03125 -0.859375q0 -2.0 -0.9375 -2.828125q-1.25 -1.109375 -3.734375 -1.109375q-2.3125305 0 -3.4219055 0.8125q-1.09375 0.8125 -1.625 2.875l-3.21875 -0.4375q0.4375 -2.0625 1.4375 -3.328125q1.015625 -1.265625 2.90625 -1.953125q1.890625 -0.6875 4.3906555 -0.6875q2.484375 0 4.03125 0.59375q1.546875 0.578125 2.28125 1.46875q0.734375 0.875 1.015625 2.21875q0.171875 0.84375 0.171875 3.03125l0 4.375q0 4.578125 0.203125 5.796875q0.21875 1.203125 0.828125 2.3125l-3.421875 0q-0.515625 -1.015625 -0.65625 -2.390625zm-0.28125 -7.328125q-1.78125 0.734375 -5.3594055 1.25q-2.015625 0.28125 -2.859375 0.65625q-0.828125 0.359375 -1.296875 1.0625q-0.453125 0.703125 -0.453125 1.5625q0 1.3125 0.984375 2.1875q1.0 0.875 2.921875 0.875q1.8906555 0 3.3594055 -0.828125q1.484375 -0.84375 2.1875 -2.28125q0.515625 -1.109375 0.515625 -3.28125l0 -1.203125zm8.338257 9.71875l0 -26.71875l3.28125 0l0 26.71875l-3.28125 0zm8.386841 -22.953125l0 -3.765625l3.28125 0l0 3.765625l-3.28125 0zm0 22.953125l0 -19.359375l3.28125 0l0 19.359375l-3.28125 0zm8.261902 0l0 -19.359375l2.953125 0l0 2.75q2.140625 -3.1875 6.171875 -3.1875q1.75 0 3.21875 0.640625q1.46875 0.625 2.1875 1.640625q0.734375 1.015625 1.03125 2.421875q0.171875 0.90625 0.171875 3.1875l0 11.90625l-3.28125 0l0 -11.78125q0 -2.0 -0.390625 -2.984375q-0.375 -1.0 -1.359375 -1.59375q-0.96875 -0.59375 -2.28125 -0.59375q-2.09375 0 -3.625 1.328125q-1.515625 1.328125 -1.515625 5.046875l0 10.578125l-3.28125 0zm31.412323 0l0 -26.71875l3.53125 0l0 13.25l13.265625 -13.25l4.796875 0l-11.203125 10.828125l11.703125 15.890625l-4.671875 0l-9.515625 -13.53125l-4.375 4.265625l0 9.265625l-3.53125 0zm23.397552 -9.671875q0 -5.390625 3.0 -7.96875q2.484375 -2.15625 6.078125 -2.15625q4.0 0 6.53125 2.625q2.53125 2.609375 2.53125 7.21875q0 3.734375 -1.125 5.875q-1.109375 2.140625 -3.265625 3.328125q-2.140625 1.1875 -4.671875 1.1875q-4.0625 0 -6.578125 -2.609375q-2.5 -2.609375 -2.5 -7.5zm3.375 0q0 3.71875 1.625 5.5625q1.625 1.84375 4.078125 1.84375q2.453125 0 4.0625 -1.859375q1.625 -1.859375 1.625 -5.65625q0 -3.59375 -1.640625 -5.4375q-1.625 -1.859375 -4.046875 -1.859375q-2.453125 0 -4.078125 1.84375q-1.625 1.84375 -1.625 5.5625zm31.244507 2.578125l3.21875 0.421875q-0.515625 3.34375 -2.703125 5.234375q-2.171875 1.875 -5.34375 1.875q-3.984375 0 -6.40625 -2.59375q-2.40625 -2.59375 -2.40625 -7.453125q0 -3.125 1.03125 -5.46875q1.046875 -2.359375 3.171875 -3.53125q2.125 -1.1875 4.625 -1.1875q3.15625 0 5.15625 1.59375q2.0 1.59375 2.578125 4.53125l-3.203125 0.5q-0.453125 -1.953125 -1.609375 -2.9375q-1.15625 -0.984375 -2.796875 -0.984375q-2.484375 0 -4.03125 1.78125q-1.546875 1.765625 -1.546875 5.609375q0 3.90625 1.484375 5.671875q1.5 1.765625 3.90625 1.765625q1.9375 0 3.234375 -1.171875q1.296875 -1.1875 1.640625 -3.65625zm6.0234375 7.09375l0 -26.71875l3.28125 0l0 9.578125q2.296875 -2.65625 5.796875 -2.65625q2.15625 0 3.734375 0.859375q1.59375 0.84375 2.28125 2.34375q0.6875 1.484375 0.6875 4.328125l0 12.265625l-3.28125 0l0 -12.265625q0 -2.46875 -1.078125 -3.578125q-1.0625 -1.125 -3.015625 -1.125q-1.453125 0 -2.75 0.765625q-1.28125 0.75 -1.828125 2.046875q-0.546875 1.28125 -0.546875 3.5625l0 10.59375l-3.28125 0zm20.760132 0l0 -19.359375l2.953125 0l0 2.75q2.140625 -3.1875 6.171875 -3.1875q1.75 0 3.21875 0.640625q1.46875 0.625 2.1875 1.640625q0.734375 1.015625 1.03125 2.421875q0.171875 0.90625 0.171875 3.1875l0 11.90625l-3.28125 0l0 -11.78125q0 -2.0 -0.390625 -2.984375q-0.375 -1.0 -1.359375 -1.59375q-0.96875 -0.59375 -2.28125 -0.59375q-2.09375 0 -3.625 1.328125q-1.515625 1.328125 -1.515625 5.046875l0 10.578125l-3.28125 0zm34.025757 -6.234375l3.375 0.421875q-0.796875 2.96875 -2.96875 4.609375q-2.15625 1.640625 -5.53125 1.640625q-4.25 0 -6.75 -2.609375q-2.484375 -2.625 -2.484375 -7.34375q0 -4.890625 2.515625 -7.578125q2.515625 -2.703125 6.53125 -2.703125q3.890625 0 6.34375 2.640625q2.453125 2.640625 2.453125 7.4375q0 0.296875 -0.015625 0.875l-14.4375 0q0.1875 3.1875 1.8125 4.890625q1.625 1.6875 4.046875 1.6875q1.796875 0 3.078125 -0.9375q1.28125 -0.953125 2.03125 -3.03125zm-10.78125 -5.296875l10.8125 0q-0.21875 -2.453125 -1.234375 -3.671875q-1.578125 -1.890625 -4.078125 -1.890625q-2.25 0 -3.796875 1.515625q-1.53125 1.5 -1.703125 4.046875zm23.666382 11.53125l-7.375 -19.359375l3.46875 0l4.15625 11.59375q0.671875 1.875 1.234375 3.90625q0.4375 -1.53125 1.21875 -3.6875l4.3125 -11.8125l3.375 0l-7.328125 19.359375l-3.0625 0zm11.3619995 0l0 -3.734375l3.734375 0l0 3.734375q0 2.0625 -0.734375 3.328125q-0.71875 1.265625 -2.296875 1.953125l-0.921875 -1.40625q1.046875 -0.453125 1.53125 -1.34375q0.5 -0.875 0.546875 -2.53125l-1.859375 0zm27.945007 0l-10.3593445 -26.71875l3.8280945 0l6.953125 19.40625q0.84375 2.34375 1.40625 4.375q0.609375 -2.1875 1.4375 -4.375l7.21875 -19.40625l3.609375 0l-10.46875 26.71875l-3.625 0zm16.191833 -22.953125l0 -3.765625l3.28125 0l0 3.765625l-3.28125 0zm0 22.953125l0 -19.359375l3.28125 0l0 19.359375l-3.28125 0zm8.261902 0l0 -26.71875l3.28125 0l0 9.578125q2.296875 -2.65625 5.796875 -2.65625q2.15625 0 3.734375 0.859375q1.59375 0.84375 2.28125 2.34375q0.6875 1.484375 0.6875 4.328125l0 12.265625l-3.28125 0l0 -12.265625q0 -2.46875 -1.078125 -3.578125q-1.0625 -1.125 -3.015625 -1.125q-1.453125 0 -2.75 0.765625q-1.28125 0.75 -1.828125 2.046875q-0.546875 1.28125 -0.546875 3.5625l0 10.59375l-3.28125 0zm33.400757 -2.390625q-1.828125 1.546875 -3.515625 2.1875q-1.6875 0.640625 -3.609375 0.640625q-3.1875 0 -4.90625 -1.546875q-1.71875 -1.5625 -1.71875 -4.0q0 -1.421875 0.640625 -2.59375q0.65625 -1.171875 1.703125 -1.875q1.046875 -0.71875 2.359375 -1.078125q0.96875 -0.265625 2.921875 -0.5q3.96875 -0.46875 5.84375 -1.125q0.03125 -0.671875 0.03125 -0.859375q0 -2.0 -0.9375 -2.828125q-1.25 -1.109375 -3.734375 -1.109375q-2.3125 0 -3.421875 0.8125q-1.09375 0.8125 -1.625 2.875l-3.21875 -0.4375q0.4375 -2.0625 1.4375 -3.328125q1.015625 -1.265625 2.90625 -1.953125q1.890625 -0.6875 4.390625 -0.6875q2.484375 0 4.03125 0.59375q1.546875 0.578125 2.28125 1.46875q0.734375 0.875 1.015625 2.21875q0.171875 0.84375 0.171875 3.03125l0 4.375q0 4.578125 0.203125 5.796875q0.21875 1.203125 0.828125 2.3125l-3.421875 0q-0.515625 -1.015625 -0.65625 -2.390625zm-0.28125 -7.328125q-1.78125 0.734375 -5.359375 1.25q-2.015625 0.28125 -2.859375 0.65625q-0.828125 0.359375 -1.296875 1.0625q-0.453125 0.703125 -0.453125 1.5625q0 1.3125 0.984375 2.1875q1.0 0.875 2.921875 0.875q1.890625 0 3.359375 -0.828125q1.484375 -0.84375 2.1875 -2.28125q0.515625 -1.109375 0.515625 -3.28125l0 -1.203125zm21.041382 7.328125q-1.828125 1.546875 -3.515625 2.1875q-1.6875 0.640625 -3.609375 0.640625q-3.1875 0 -4.90625 -1.546875q-1.71875 -1.5625 -1.71875 -4.0q0 -1.421875 0.640625 -2.59375q0.65625 -1.171875 1.703125 -1.875q1.046875 -0.71875 2.359375 -1.078125q0.96875 -0.265625 2.921875 -0.5q3.96875 -0.46875 5.84375 -1.125q0.03125 -0.671875 0.03125 -0.859375q0 -2.0 -0.9375 -2.828125q-1.25 -1.109375 -3.734375 -1.109375q-2.3125 0 -3.421875 0.8125q-1.09375 0.8125 -1.625 2.875l-3.21875 -0.4375q0.4375 -2.0625 1.4375 -3.328125q1.015625 -1.265625 2.90625 -1.953125q1.890625 -0.6875 4.390625 -0.6875q2.484375 0 4.03125 0.59375q1.546875 0.578125 2.28125 1.46875q0.734375 0.875 1.015625 2.21875q0.171875 0.84375 0.171875 3.03125l0 4.375q0 4.578125 0.203125 5.796875q0.21875 1.203125 0.828125 2.3125l-3.421875 0q-0.515625 -1.015625 -0.65625 -2.390625zm-0.28125 -7.328125q-1.78125 0.734375 -5.359375 1.25q-2.015625 0.28125 -2.859375 0.65625q-0.828125 0.359375 -1.296875 1.0625q-0.453125 0.703125 -0.453125 1.5625q0 1.3125 0.984375 2.1875q1.0 0.875 2.921875 0.875q1.890625 0 3.359375 -0.828125q1.484375 -0.84375 2.1875 -2.28125q0.515625 -1.109375 0.515625 -3.28125l0 -1.203125zm8.400757 9.71875l0 -19.359375l2.953125 0l0 2.75q2.140625 -3.1875 6.171875 -3.1875q1.75 0 3.21875 0.640625q1.46875 0.625 2.1875 1.640625q0.734375 1.015625 1.03125 2.421875q0.171875 0.90625 0.171875 3.1875l0 11.90625l-3.28125 0l0 -11.78125q0 -2.0 -0.390625 -2.984375q-0.375 -1.0 -1.359375 -1.59375q-0.96875 -0.59375 -2.28125 -0.59375q-2.09375 0 -3.625 1.328125q-1.515625 1.328125 -1.515625 5.046875l0 10.578125l-3.28125 0zm30.349854 -8.578125l3.34375 -0.296875q0.234375 2.0 1.09375 3.296875q0.875 1.28125 2.6875 2.078125q1.828125 0.78125 4.109375 0.78125q2.015625 0 3.5625 -0.59375q1.5625 -0.609375 2.3125 -1.65625q0.75 -1.046875 0.75 -2.28125q0 -1.265625 -0.734375 -2.203125q-0.71875 -0.9375 -2.390625 -1.578125q-1.078125 -0.421875 -4.765625 -1.296875q-3.671875 -0.890625 -5.15625 -1.671875q-1.90625 -1.0 -2.84375 -2.484375q-0.9375 -1.484375 -0.9375 -3.328125q0 -2.015625 1.140625 -3.78125q1.15625 -1.765625 3.359375 -2.671875q2.203125 -0.90625 4.90625 -0.90625q2.96875 0 5.234375 0.953125q2.265625 0.953125 3.484375 2.8125q1.21875 1.859375 1.3125 4.21875l-3.390625 0.25q-0.265625 -2.53125 -1.84375 -3.828125q-1.578125 -1.296875 -4.65625 -1.296875q-3.203125 0 -4.671875 1.1875q-1.46875 1.171875 -1.46875 2.828125q0 1.4375 1.03125 2.359375q1.03125 0.9375 5.328125 1.921875q4.3125 0.96875 5.921875 1.6875q2.328125 1.078125 3.4375 2.734375q1.125 1.640625 1.125 3.796875q0 2.140625 -1.234375 4.03125q-1.21875 1.875 -3.5 2.921875q-2.28125 1.046875 -5.15625 1.046875q-3.625 0 -6.078125 -1.046875q-2.453125 -1.0625 -3.84375 -3.1875q-1.390625 -2.125 -1.46875 -4.796875zm25.678833 8.578125l0 -26.71875l3.28125 0l0 9.578125q2.296875 -2.65625 5.796875 -2.65625q2.15625 0 3.734375 0.859375q1.59375 0.84375 2.28125 2.34375q0.6875 1.484375 0.6875 4.328125l0 12.265625l-3.28125 0l0 -12.265625q0 -2.46875 -1.078125 -3.578125q-1.0625 -1.125 -3.015625 -1.125q-1.453125 0 -2.75 0.765625q-1.28125 0.75 -1.828125 2.046875q-0.546875 1.28125 -0.546875 3.5625l0 10.59375l-3.28125 0zm33.400757 -2.390625q-1.828125 1.546875 -3.515625 2.1875q-1.6875 0.640625 -3.609375 0.640625q-3.1875 0 -4.90625 -1.546875q-1.71875 -1.5625 -1.71875 -4.0q0 -1.421875 0.640625 -2.59375q0.65625 -1.171875 1.703125 -1.875q1.046875 -0.71875 2.359375 -1.078125q0.96875 -0.265625 2.921875 -0.5q3.96875 -0.46875 5.84375 -1.125q0.03125 -0.671875 0.03125 -0.859375q0 -2.0 -0.9375 -2.828125q-1.25 -1.109375 -3.734375 -1.109375q-2.3125 0 -3.421875 0.8125q-1.09375 0.8125 -1.625 2.875l-3.21875 -0.4375q0.4375 -2.0625 1.4375 -3.328125q1.015625 -1.265625 2.90625 -1.953125q1.890625 -0.6875 4.390625 -0.6875q2.484375 0 4.03125 0.59375q1.546875 0.578125 2.28125 1.46875q0.734375 0.875 1.015625 2.21875q0.171875 0.84375 0.171875 3.03125l0 4.375q0 4.578125 0.203125 5.796875q0.21875 1.203125 0.828125 2.3125l-3.421875 0q-0.515625 -1.015625 -0.65625 -2.390625zm-0.28125 -7.328125q-1.78125 0.734375 -5.359375 1.25q-2.015625 0.28125 -2.859375 0.65625q-0.828125 0.359375 -1.296875 1.0625q-0.453125 0.703125 -0.453125 1.5625q0 1.3125 0.984375 2.1875q1.0 0.875 2.921875 0.875q1.890625 0 3.359375 -0.828125q1.484375 -0.84375 2.1875 -2.28125q0.515625 -1.109375 0.515625 -3.28125l0 -1.203125zm8.400757 9.71875l0 -26.71875l3.28125 0l0 9.578125q2.296875 -2.65625 5.796875 -2.65625q2.15625 0 3.734375 0.859375q1.59375 0.84375 2.28125 2.34375q0.6875 1.484375 0.6875 4.328125l0 12.265625l-3.28125 0l0 -12.265625q0 -2.46875 -1.078125 -3.578125q-1.0625 -1.125 -3.015625 -1.125q-1.453125 0 -2.75 0.765625q-1.28125 0.75 -1.828125 2.046875q-0.546875 1.28125 -0.546875 3.5625l0 10.59375l-3.28125 0z" fill-rule="nonzero"/></g></svg>