<svg version="1.1" viewBox="0.0 0.0 960.0 540.0" fill="none" stroke="none" stroke-linecap="square" stroke-miterlimit="10" xmlns:xlink="http://www.w3.org/1999/xlink" xmlns="http://www.w3.org/2000/svg"><clipPath id="p15.0"><path d="m0 0l960.0 0l0 540.0l-960.0 0l0 -540.0z" clip-rule="nonzero"/></clipPath><g clip-path="url(#p15.0)"><path fill="#ffffff" d="m0 0l960.0 0l0 540.0l-960.0 0z" fill-rule="evenodd"/><path fill="#000000" fill-opacity="0.0" d="m32.73071 78.16063l894.5386 0l0 215.50865l-894.5386 0z" fill-rule="evenodd"/><path fill="#000000" d="m190.13318 176.00117l0 8.828125l-33.34375 0q0.546875 -5.015625 3.25 -9.5q2.71875 -4.484375 10.703125 -11.890625q6.4375 -6.0 7.890625 -8.125q1.96875 -2.953125 1.96875 -5.828125q0 -3.171875 -1.71875 -4.875q-1.703125 -1.71875 -4.71875 -1.71875q-2.984375 0 -4.75 1.796875q-1.75 1.78125 -2.015625 5.953125l-9.484375 -0.953125q0.84375 -7.84375 5.3125 -11.265625q4.46875 -3.421875 11.171875 -3.421875q7.34375 0 11.53125 3.96875q4.203125 3.953125 4.203125 9.84375q0 3.34375 -1.203125 6.375q-1.1875 3.03125 -3.796875 6.34375q-1.734375 2.203125 -6.234375 6.34375q-4.5 4.125 -5.703125 5.484375q-1.203125 1.34375 -1.9375 2.640625l18.875 0zm22.525757 -41.0q7.203125 0 11.265625 5.140625q4.84375 6.09375 4.84375 20.21875q0 14.078125 -4.875 20.234375q-4.03125 5.078125 -11.234375 5.078125q-7.25 0 -11.6875 -5.5625q-4.4375 -5.578125 -4.4375 -19.859375q0 -14.015625 4.875 -20.171875q4.03125 -5.078125 11.25 -5.078125zm0 7.890625q-1.734375 0 -3.09375 1.109375q-1.34375 1.09375 -2.09375 3.9375q-0.984375 3.6875 -0.984375 12.421875q0 8.734375 0.875 12.0q0.890625 3.265625 2.21875 4.34375q1.34375 1.078125 3.078125 1.078125q1.71875 0 3.0625 -1.09375q1.359375 -1.09375 2.109375 -3.9375q0.984375 -3.65625 0.984375 -12.390625q0 -8.734375 -0.890625 -12.0q-0.875 -3.265625 -2.21875 -4.359375q-1.328125 -1.109375 -3.046875 -1.109375zm54.588257 33.109375l0 8.828125l-33.34375 0q0.546875 -5.015625 3.25 -9.5q2.71875 -4.484375 10.703125 -11.890625q6.4375 -6.0 7.890625 -8.125q1.96875 -2.953125 1.96875 -5.828125q0 -3.171875 -1.71875 -4.875q-1.703125 -1.71875 -4.71875 -1.71875q-2.984375 0 -4.75 1.796875q-1.75 1.78125 -2.015625 5.953125l-9.484375 -0.953125q0.84375 -7.84375 5.3125 -11.265625q4.46875 -3.421875 11.171875 -3.421875q7.34375 0 11.53125 3.96875q4.203125 3.953125 4.203125 9.84375q0 3.34375 -1.203125 6.375q-1.1875 3.03125 -3.796875 6.34375q-1.734375 2.203125 -6.234375 6.34375q-4.5 4.125 -5.703125 5.484375q-1.203125 1.34375 -1.9375 2.640625l18.875 0zm38.557007 0l0 8.828125l-33.34375 0q0.546875 -5.015625 3.25 -9.5q2.71875 -4.484375 10.703125 -11.890625q6.4375 -6.0 7.890625 -8.125q1.96875 -2.953125 1.96875 -5.828125q0 -3.171875 -1.71875 -4.875q-1.703125 -1.71875 -4.71875 -1.71875q-2.984375 0 -4.75 1.796875q-1.75 1.78125 -2.015625 5.953125l-9.484375 -0.953125q0.84375 -7.84375 5.3125 -11.265625q4.46875 -3.421875 11.171875 -3.421875q7.34375 0 11.53125 3.96875q4.203125 3.953125 4.203125 9.84375q0 3.34375 -1.203125 6.375q-1.1875 3.03125 -3.796875 6.34375q-1.734375 2.203125 -6.234375 6.34375q-4.5 4.125 -5.703125 5.484375q-1.203125 1.34375 -1.9375 2.640625l18.875 0zm27.896729 8.828125l0 -49.625l9.75 0l20.3125 33.140625l0 -33.140625l9.3125 0l0 49.625l-10.046875 0l-20.015625 -32.359375l0 32.359375l-9.3125 0zm94.72278 0l-10.90625 0l-4.328125 -11.265625l-19.84375 0l-4.09375 11.265625l-10.625 0l19.328125 -49.625l10.59375 0l19.875 49.625zm-18.453125 -19.640625l-6.828125 -18.40625l-6.703125 18.40625l13.53125 0zm21.22284 3.5l9.75 -0.953125q0.890625 4.90625 3.578125 7.21875q2.6875 2.296875 7.265625 2.296875q4.828125 0 7.28125 -2.046875q2.46875 -2.046875 2.46875 -4.796875q0 -1.765625 -1.046875 -3.0q-1.03125 -1.234375 -3.59375 -2.140625q-1.765625 -0.609375 -8.03125 -2.171875q-8.046875 -2.0 -11.296875 -4.90625q-4.578125 -4.09375 -4.578125 -9.984375q0 -3.796875 2.140625 -7.09375q2.15625 -3.296875 6.203125 -5.015625q4.046875 -1.734375 9.765625 -1.734375q9.34375 0 14.0625 4.09375q4.734375 4.09375 4.96875 10.9375l-10.015625 0.4375q-0.65625 -3.828125 -2.765625 -5.5q-2.109375 -1.671875 -6.34375 -1.671875q-4.375 0 -6.84375 1.78125q-1.59375 1.15625 -1.59375 3.09375q0 1.75 1.5 3.0q1.890625 1.59375 9.203125 3.328125q7.3125 1.71875 10.8125 3.5625q3.5 1.84375 5.484375 5.046875q1.984375 3.203125 1.984375 7.90625q0 4.265625 -2.375 8.0q-2.375 3.71875 -6.703125 5.53125q-4.328125 1.796875 -10.796875 1.796875q-9.40625 0 -14.453125 -4.34375q-5.046875 -4.34375 -6.03125 -12.671875zm93.53821 16.140625l-10.90625 0l-4.328125 -11.265625l-19.84375 0l-4.09375 11.265625l-10.625 0l19.328125 -49.625l10.59375 0l19.875 49.625zm-18.453125 -19.640625l-6.828125 -18.40625l-6.703125 18.40625l13.53125 0zm40.489624 -29.984375l19.84375 0q5.890625 0 8.78125 0.5q2.890625 0.484375 5.171875 2.046875q2.28125 1.546875 3.796875 4.140625q1.53125 2.59375 1.53125 5.796875q0 3.484375 -1.875 6.40625q-1.875 2.90625 -5.09375 4.359375q4.53125 1.328125 6.96875 4.515625q2.4375 3.171875 2.4375 7.46875q0 3.390625 -1.578125 6.59375q-1.5625 3.1875 -4.296875 5.109375q-2.71875 1.90625 -6.703125 2.34375q-2.515625 0.28125 -12.09375 0.34375l-16.890625 0l0 -49.625zm10.015625 8.265625l0 11.46875l6.578125 0q5.84375 0 7.265625 -0.171875q2.578125 -0.296875 4.046875 -1.765625q1.484375 -1.484375 1.484375 -3.890625q0 -2.296875 -1.28125 -3.734375q-1.265625 -1.4375 -3.765625 -1.75q-1.5 -0.15625 -8.5625 -0.15625l-5.765625 0zm0 19.734375l0 13.265625l9.28125 0q5.421875 0 6.875 -0.3125q2.234375 -0.40625 3.625 -1.96875q1.40625 -1.578125 1.40625 -4.21875q0 -2.234375 -1.078125 -3.78125q-1.078125 -1.5625 -3.125 -2.265625q-2.046875 -0.71875 -8.890625 -0.71875l-8.09375 0zm39.707214 21.625l0 -49.625l10.03125 0l0 49.625l-10.03125 0zm42.65216 -18.25l0 -8.359375l21.609375 0l0 19.765625q-3.15625 3.046875 -9.140625 5.375q-5.96875 2.3125 -12.09375 2.3125q-7.78125 0 -13.578125 -3.265625q-5.78125 -3.265625 -8.703125 -9.34375q-2.90625 -6.078125 -2.90625 -13.21875q0 -7.75 3.25 -13.765625q3.25 -6.03125 9.515625 -9.25q4.78125 -2.46875 11.890625 -2.46875q9.234375 0 14.421875 3.875q5.203125 3.875 6.6875 10.71875l-9.953125 1.859375q-1.046875 -3.65625 -3.9375 -5.765625q-2.890625 -2.125 -7.21875 -2.125q-6.578125 0 -10.453125 4.171875q-3.875 4.15625 -3.875 12.34375q0 8.84375 3.921875 13.265625q3.9375 4.40625 10.296875 4.40625q3.15625 0 6.3125 -1.234375q3.171875 -1.234375 5.4375 -3.0l0 -6.296875l-11.484375 0zm49.79663 18.25l0 -49.625l10.03125 0l0 49.625l-10.03125 0zm52.480347 0l-8.84375 0l0 -5.28125q-2.203125 3.078125 -5.203125 4.59375q-2.984375 1.5 -6.03125 1.5q-6.203125 0 -10.625 -4.984375q-4.40625 -5.0 -4.40625 -13.9375q0 -9.140625 4.296875 -13.890625q4.296875 -4.765625 10.875 -4.765625q6.015625 0 10.421875 5.015625l0 -17.875l9.515625 0l0 49.625zm-25.390625 -18.75q0 5.75 1.59375 8.328125q2.296875 3.71875 6.421875 3.71875q3.28125 0 5.578125 -2.78125q2.3125 -2.796875 2.3125 -8.359375q0 -6.1875 -2.234375 -8.90625q-2.234375 -2.734375 -5.71875 -2.734375q-3.390625 0 -5.671875 2.6875q-2.28125 2.6875 -2.28125 8.046875zm55.582764 7.3125l9.46875 1.59375q-1.8125 5.203125 -5.765625 7.9375q-3.9375 2.71875 -9.859375 2.71875q-9.390625 0 -13.890625 -6.125q-3.546875 -4.90625 -3.546875 -12.390625q0 -8.9375 4.671875 -14.0q4.671875 -5.0625 11.8125 -5.0625q8.015625 0 12.65625 5.296875q4.640625 5.296875 4.4375 16.234375l-23.828125 0q0.09375 4.234375 2.296875 6.59375q2.203125 2.34375 5.484375 2.34375q2.234375 0 3.75 -1.21875q1.53125 -1.21875 2.3125 -3.921875zm0.546875 -9.625q-0.109375 -4.125 -2.140625 -6.265625q-2.03125 -2.15625 -4.9375 -2.15625q-3.125 0 -5.15625 2.265625q-2.03125 2.265625 -1.984375 6.15625l14.21875 0zm24.291382 -3.921875l-8.625 -1.5625q1.453125 -5.203125 5.0 -7.703125q3.5625 -2.515625 10.578125 -2.515625q6.359375 0 9.46875 1.515625q3.125 1.5 4.390625 3.828125q1.265625 2.3125 1.265625 8.5l-0.09375 11.109375q0 4.734375 0.453125 6.984375q0.453125 2.25 1.703125 4.828125l-9.40625 0q-0.375 -0.953125 -0.921875 -2.8125q-0.234375 -0.84375 -0.328125 -1.109375q-2.4375 2.359375 -5.21875 3.546875q-2.78125 1.1875 -5.921875 1.1875q-5.546875 0 -8.75 -3.015625q-3.203125 -3.015625 -3.203125 -7.609375q0 -3.046875 1.453125 -5.4375q1.453125 -2.390625 4.078125 -3.65625q2.625 -1.265625 7.578125 -2.21875q6.65625 -1.25 9.234375 -2.328125l0 -0.953125q0 -2.75 -1.359375 -3.90625q-1.34375 -1.171875 -5.109375 -1.171875q-2.53125 0 -3.953125 1.0q-1.421875 1.0 -2.3125 3.5zm12.734375 7.71875q-1.828125 0.609375 -5.796875 1.453125q-3.953125 0.84375 -5.171875 1.65625q-1.859375 1.328125 -1.859375 3.359375q0 2.0 1.484375 3.453125q1.5 1.453125 3.796875 1.453125q2.578125 0 4.90625 -1.6875q1.734375 -1.296875 2.265625 -3.15625q0.375 -1.21875 0.375 -4.640625l0 -1.890625z" fill-rule="nonzero"/><path fill="#000000" d="m360.14395 249.7793l9.71875 3.078125q-2.234375 8.125 -7.4375 12.078125q-5.1875 3.9375 -13.1875 3.9375q-9.875 0 -16.25 -6.75q-6.359375 -6.75 -6.359375 -18.46875q0 -12.390625 6.390625 -19.234375q6.40625 -6.859375 16.828125 -6.859375q9.109375 0 14.796875 5.375q3.390625 3.1875 5.078125 9.140625l-9.921875 2.375q-0.875 -3.859375 -3.671875 -6.09375q-2.78125 -2.234375 -6.78125 -2.234375q-5.515625 0 -8.953125 3.96875q-3.4375 3.953125 -3.4375 12.8125q0 9.421875 3.375 13.421875q3.390625 3.984375 8.8125 3.984375q4.0 0 6.875 -2.53125q2.875 -2.546875 4.125 -8.0zm27.722809 -31.375l0 18.25q4.609375 -5.390625 11.0 -5.390625q3.28125 0 5.921875 1.21875q2.640625 1.21875 3.96875 3.125q1.34375 1.890625 1.828125 4.1875q0.5 2.296875 0.5 7.140625l0 21.09375l-9.5 0l0 -18.984375q0 -5.65625 -0.546875 -7.171875q-0.546875 -1.53125 -1.921875 -2.421875q-1.359375 -0.90625 -3.421875 -0.90625q-2.375 0 -4.234375 1.15625q-1.859375 1.140625 -2.734375 3.46875q-0.859375 2.3125 -0.859375 6.84375l0 18.015625l-9.515625 0l0 -49.625l9.515625 0zm39.97339 24.640625l-8.625 -1.5625q1.453125 -5.203125 5.0 -7.703125q3.5625 -2.515625 10.578125 -2.515625q6.359375 0 9.46875 1.515625q3.125 1.5 4.390625 3.828125q1.265625 2.3125 1.265625 8.5l-0.09375 11.109375q0 4.734375 0.453125 6.984375q0.453125 2.25 1.703125 4.828125l-9.40625 0q-0.375 -0.953125 -0.921875 -2.8125q-0.234375 -0.84375 -0.328125 -1.109375q-2.4375 2.359375 -5.21875 3.546875q-2.78125 1.1875 -5.921875 1.1875q-5.546875 0 -8.75 -3.015625q-3.203125 -3.015625 -3.203125 -7.609375q0 -3.046875 1.453125 -5.4375q1.453125 -2.390625 4.078125 -3.65625q2.625 -1.265625 7.578125 -2.21875q6.65625 -1.25 9.234375 -2.328125l0 -0.953125q0 -2.75 -1.359375 -3.90625q-1.34375 -1.171875 -5.109375 -1.171875q-2.53125 0 -3.953125 1.0q-1.421875 1.0 -2.3125 3.5zm12.734375 7.71875q-1.828125 0.609375 -5.796875 1.453125q-3.953125 0.84375 -5.171875 1.65625q-1.859375 1.328125 -1.859375 3.359375q0 2.0 1.484375 3.453125q1.5 1.453125 3.796875 1.453125q2.578125 0 4.90625 -1.6875q1.734375 -1.296875 2.265625 -3.15625q0.375 -1.21875 0.375 -4.640625l0 -1.890625zm18.713257 17.265625l0 -49.625l9.515625 0l0 49.625l-9.515625 0zm19.261597 0l0 -49.625l9.515625 0l0 49.625l-9.515625 0zm40.08966 -11.4375l9.46875 1.59375q-1.8125 5.203125 -5.765625 7.9375q-3.9375 2.71875 -9.859375 2.71875q-9.3905945 0 -13.8905945 -6.125q-3.546875 -4.90625 -3.546875 -12.390625q0 -8.9375 4.671875 -14.0q4.671875 -5.0625 11.8125 -5.0625q8.0155945 0 12.6562195 5.296875q4.640625 5.296875 4.4375 16.234375l-23.828094 0q0.09375 4.234375 2.296875 6.59375q2.203125 2.34375 5.4843445 2.34375q2.234375 0 3.75 -1.21875q1.53125 -1.21875 2.3125 -3.921875zm0.546875 -9.625q-0.109375 -4.125 -2.140625 -6.265625q-2.03125 -2.15625 -4.9375 -2.15625q-3.1249695 0 -5.1562195 2.265625q-2.03125 2.265625 -1.984375 6.15625l14.2187195 0zm49.88513 21.0625l-9.5 0l0 -18.34375q0 -5.828125 -0.609375 -7.53125q-0.609375 -1.71875 -1.984375 -2.65625q-1.375 -0.953125 -3.296875 -0.953125q-2.484375 0 -4.453125 1.359375q-1.953125 1.34375 -2.6875 3.578125q-0.71875 2.234375 -0.71875 8.265625l0 16.28125l-9.515625 0l0 -35.953125l8.84375 0l0 5.28125q4.703125 -6.09375 11.84375 -6.09375q3.140625 0 5.75 1.140625q2.609375 1.125 3.9375 2.890625q1.34375 1.765625 1.859375 4.0q0.53125 2.234375 0.53125 6.390625l0 22.34375zm8.770264 2.375l10.875 1.3125q0.265625 1.890625 1.25 2.609375q1.34375 1.015625 4.265625 1.015625q3.71875 0 5.578125 -1.125q1.25 -0.734375 1.90625 -2.390625q0.4375 -1.1875 0.4375 -4.375l0 -5.25q-4.265625 5.828125 -10.765625 5.828125q-7.25 0 -11.484375 -6.125q-3.3125 -4.84375 -3.3125 -12.046875q0 -9.046875 4.34375 -13.8125q4.359375 -4.78125 10.828125 -4.78125q6.65625 0 11.0 5.859375l0 -5.046875l8.890625 0l0 32.265625q0 6.359375 -1.046875 9.5q-1.046875 3.15625 -2.9375 4.953125q-1.890625 1.796875 -5.0625 2.8125q-3.171875 1.015625 -8.0 1.015625q-9.140625 0 -12.96875 -3.140625q-3.828125 -3.125 -3.828125 -7.9375q0 -0.46875 0.03125 -1.140625zm8.5 -21.09375q0 5.71875 2.21875 8.375q2.21875 2.65625 5.46875 2.65625q3.484375 0 5.890625 -2.71875q2.40625 -2.734375 2.40625 -8.078125q0 -5.578125 -2.3125 -8.28125q-2.296875 -2.71875 -5.8125 -2.71875q-3.421875 0 -5.640625 2.65625q-2.21875 2.65625 -2.21875 8.109375zm55.551514 7.28125l9.46875 1.59375q-1.8125 5.203125 -5.765625 7.9375q-3.9375 2.71875 -9.859375 2.71875q-9.390625 0 -13.890625 -6.125q-3.546875 -4.90625 -3.546875 -12.390625q0 -8.9375 4.671875 -14.0q4.671875 -5.0625 11.8125 -5.0625q8.015625 0 12.65625 5.296875q4.640625 5.296875 4.4375 16.234375l-23.828125 0q0.09375 4.234375 2.296875 6.59375q2.203125 2.34375 5.484375 2.34375q2.234375 0 3.75 -1.21875q1.53125 -1.21875 2.3125 -3.921875zm0.546875 -9.625q-0.109375 -4.125 -2.140625 -6.265625q-2.03125 -2.15625 -4.9375 -2.15625q-3.125 0 -5.15625 2.265625q-2.03125 2.265625 -1.984375 6.15625l14.21875 0z" fill-rule="nonzero"/><path fill="#000000" fill-opacity="0.0" d="m32.73071 297.5622l894.5386 0l0 83.22522l-894.5386 0z" fill-rule="evenodd"/><path fill="#595959" d="m383.12946 342.4022l10.25 -26.71875l3.8125 0l10.9375 26.71875l-4.03125 0l-3.109375 -8.09375l-11.171875 0l-2.9375 8.09375l-3.75 0zm7.703125 -10.96875l9.0625 0l-2.796875 -7.40625q-1.265625 -3.375 -1.890625 -5.53125q-0.515625 2.5625 -1.4375 5.09375l-2.9375 7.84375zm40.64612 3.875l3.21875 0.421875q-0.515625 3.34375 -2.703125 5.234375q-2.171875 1.875 -5.34375 1.875q-3.984375 0 -6.40625 -2.59375q-2.40625 -2.59375 -2.40625 -7.453125q0 -3.125 1.03125 -5.46875q1.046875 -2.359375 3.171875 -3.53125q2.125 -1.1875 4.625 -1.1875q3.15625 0 5.15625 1.59375q2.0 1.59375 2.578125 4.53125l-3.203125 0.5q-0.453125 -1.953125 -1.609375 -2.9375q-1.15625 -0.984375 -2.796875 -0.984375q-2.484375 0 -4.03125 1.78125q-1.546875 1.765625 -1.546875 5.609375q0 3.90625 1.484375 5.671875q1.5 1.765625 3.90625 1.765625q1.9375 0 3.234375 -1.171875q1.296875 -1.1875 1.640625 -3.65625zm18.664062 4.703125q-1.828125 1.546875 -3.515625 2.1875q-1.6875 0.640625 -3.609375 0.640625q-3.1875 0 -4.90625 -1.546875q-1.71875 -1.5625 -1.71875 -4.0q0 -1.421875 0.640625 -2.59375q0.65625 -1.171875 1.703125 -1.875q1.046875 -0.71875 2.359375 -1.078125q0.96875 -0.265625 2.921875 -0.5q3.96875 -0.46875 5.84375 -1.125q0.03125 -0.671875 0.03125 -0.859375q0 -2.0 -0.9375 -2.828125q-1.25 -1.109375 -3.734375 -1.109375q-2.3125 0 -3.421875 0.8125q-1.09375 0.8125 -1.625 2.875l-3.21875 -0.4375q0.4375 -2.0625 1.4375 -3.328125q1.015625 -1.265625 2.90625 -1.953125q1.890625 -0.6875 4.390625 -0.6875q2.484375 0 4.03125 0.59375q1.546875 0.578125 2.28125 1.46875q0.734375 0.875 1.015625 2.21875q0.171875 0.84375 0.171875 3.03125l0 4.375q0 4.578125 0.203125 5.796875q0.21875 1.203125 0.828125 2.3125l-3.421875 0q-0.515625 -1.015625 -0.65625 -2.390625zm-0.28125 -7.328125q-1.78125 0.734375 -5.359375 1.25q-2.015625 0.28125 -2.859375 0.65625q-0.828125 0.359375 -1.296875 1.0625q-0.453125 0.703125 -0.453125 1.5625q0 1.3125 0.984375 2.1875q1.0 0.875 2.921875 0.875q1.890625 0 3.359375 -0.828125q1.484375 -0.84375 2.1875 -2.28125q0.515625 -1.109375 0.515625 -3.28125l0 -1.203125zm7.088257 3.9375l3.25 -0.5q0.28125 1.9375 1.515625 2.984375q1.25 1.03125 3.5 1.03125q2.265625 0 3.359375 -0.90625q1.09375 -0.921875 1.09375 -2.171875q0 -1.109375 -0.96875 -1.75q-0.671875 -0.4375 -3.359375 -1.109375q-3.609375 -0.90625 -5.0 -1.5625q-1.390625 -0.671875 -2.125 -1.84375q-0.71875 -1.1875 -0.71875 -2.609375q0 -1.296875 0.59375 -2.390625q0.59375 -1.109375 1.625 -1.84375q0.765625 -0.5625 2.078125 -0.953125q1.328125 -0.390625 2.84375 -0.390625q2.265625 0 3.984375 0.65625q1.734375 0.65625 2.546875 1.78125q0.828125 1.125 1.140625 3.0l-3.21875 0.4375q-0.21875 -1.5 -1.265625 -2.328125q-1.046875 -0.84375 -2.953125 -0.84375q-2.265625 0 -3.234375 0.75q-0.96875 0.734375 -0.96875 1.75q0 0.625 0.40625 1.140625q0.40625 0.53125 1.265625 0.875q0.484375 0.1875 2.890625 0.84375q3.484375 0.921875 4.859375 1.515625q1.375 0.59375 2.15625 1.734375q0.78125 1.125 0.78125 2.796875q0 1.640625 -0.953125 3.09375q-0.953125 1.453125 -2.765625 2.25q-1.796875 0.78125 -4.078125 0.78125q-3.765625 0 -5.75 -1.5625q-1.984375 -1.578125 -2.53125 -4.65625zm33.242188 -0.453125l3.375 0.421875q-0.796875 2.96875 -2.96875 4.609375q-2.15625 1.640625 -5.53125 1.640625q-4.25 0 -6.75 -2.609375q-2.484375 -2.625 -2.484375 -7.34375q0 -4.890625 2.515625 -7.578125q2.515625 -2.703125 6.53125 -2.703125q3.890625 0 6.34375 2.640625q2.453125 2.640625 2.453125 7.4375q0 0.296875 -0.015625 0.875l-14.4375 0q0.1875 3.1875 1.8125 4.890625q1.625 1.6875 4.046875 1.6875q1.796875 0 3.078125 -0.9375q1.28125 -0.953125 2.03125 -3.03125zm-10.78125 -5.296875l10.8125 0q-0.21875 -2.453125 -1.234375 -3.671875q-1.578125 -1.890625 -4.078125 -1.890625q-2.25 0 -3.796875 1.515625q-1.53125 1.5 -1.703125 4.046875zm27.334229 5.75l3.25 -0.5q0.28125 1.9375 1.515625 2.984375q1.25 1.03125 3.5 1.03125q2.265625 0 3.359375 -0.90625q1.09375 -0.921875 1.09375 -2.171875q0 -1.109375 -0.96875 -1.75q-0.671875 -0.4375 -3.359375 -1.109375q-3.609375 -0.90625 -5.0 -1.5625q-1.390625 -0.671875 -2.125 -1.84375q-0.71875 -1.1875 -0.71875 -2.609375q0 -1.296875 0.59375 -2.390625q0.59375 -1.109375 1.625 -1.84375q0.765625 -0.5625 2.078125 -0.953125q1.328125 -0.390625 2.84375 -0.390625q2.265625 0 3.984375 0.65625q1.734375 0.65625 2.546875 1.78125q0.828125 1.125 1.140625 3.0l-3.21875 0.4375q-0.21875 -1.5 -1.265625 -2.328125q-1.046875 -0.84375 -2.953125 -0.84375q-2.265625 0 -3.234375 0.75q-0.96875 0.734375 -0.96875 1.75q0 0.625 0.40625 1.140625q0.40625 0.53125 1.265625 0.875q0.484375 0.1875 2.890625 0.84375q3.484375 0.921875 4.859375 1.515625q1.375 0.59375 2.15625 1.734375q0.78125 1.125 0.78125 2.796875q0 1.640625 -0.953125 3.09375q-0.953125 1.453125 -2.765625 2.25q-1.796875 0.78125 -4.078125 0.78125q-3.765625 0 -5.75 -1.5625q-1.984375 -1.578125 -2.53125 -4.65625zm27.148438 2.84375l0.46875 2.90625q-1.375 0.28125 -2.46875 0.28125q-1.796875 0 -2.78125 -0.5625q-0.984375 -0.5625 -1.390625 -1.484375q-0.390625 -0.921875 -0.390625 -3.875l0 -11.140625l-2.40625 0l0 -2.546875l2.40625 0l0 -4.796875l3.265625 -1.96875l0 6.765625l3.296875 0l0 2.546875l-3.296875 0l0 11.328125q0 1.40625 0.171875 1.8125q0.171875 0.390625 0.5625 0.625q0.390625 0.234375 1.125 0.234375q0.546875 0 1.4375 -0.125zm15.886597 2.9375l0 -2.84375q-2.25 3.28125 -6.140625 3.28125q-1.703125 0 -3.203125 -0.65625q-1.484375 -0.65625 -2.203125 -1.640625q-0.71875 -1.0 -1.0 -2.4375q-0.203125 -0.96875 -0.203125 -3.0625l0 -12.0l3.28125 0l0 10.734375q0 2.578125 0.203125 3.46875q0.296875 1.296875 1.296875 2.03125q1.015625 0.734375 2.484375 0.734375q1.484375 0 2.765625 -0.75q1.296875 -0.765625 1.828125 -2.0625q0.546875 -1.296875 0.546875 -3.78125l0 -10.375l3.28125 0l0 19.359375l-2.9375 0zm20.635132 0l0 -2.4375q-1.84375 2.875 -5.40625 2.875q-2.3125 0 -4.265625 -1.265625q-1.9375 -1.28125 -3.0 -3.5625q-1.0625 -2.296875 -1.0625 -5.265625q0 -2.90625 0.953125 -5.265625q0.96875 -2.359375 2.90625 -3.609375q1.9375 -1.265625 4.3125 -1.265625q1.75 0 3.109375 0.75q1.375 0.734375 2.234375 1.90625l0 -9.578125l3.265625 0l0 26.71875l-3.046875 0zm-10.375 -9.65625q0 3.71875 1.5625 5.5625q1.578125 1.828125 3.71875 1.828125q2.140625 0 3.640625 -1.75q1.515625 -1.765625 1.515625 -5.375q0 -3.96875 -1.53125 -5.828125q-1.53125 -1.859375 -3.78125 -1.859375q-2.1875 0 -3.65625 1.796875q-1.46875 1.78125 -1.46875 5.625zm18.432007 17.109375l-0.359375 -3.078125q1.078125 0.296875 1.875 0.296875q1.09375 0 1.75 -0.375q0.65625 -0.359375 1.078125 -1.015625q0.3125 -0.5 1.0 -2.4375q0.09375 -0.28125 0.296875 -0.8125l-7.359375 -19.390625l3.546875 0l4.03125 11.21875q0.78125 2.125 1.390625 4.484375q0.578125 -2.265625 1.359375 -4.421875l4.140625 -11.28125l3.28125 0l-7.375 19.6875q-1.1875 3.1875 -1.84375 4.390625q-0.875 1.625 -2.0 2.375q-1.125 0.765625 -2.703125 0.765625q-0.9375 0 -2.109375 -0.40625z" fill-rule="nonzero"/></g></svg>