<svg version="1.1" viewBox="0.0 0.0 960.0 540.0" fill="none" stroke="none" stroke-linecap="square" stroke-miterlimit="10" xmlns:xlink="http://www.w3.org/1999/xlink" xmlns="http://www.w3.org/2000/svg"><clipPath id="p22.0"><path d="m0 0l960.0 0l0 540.0l-960.0 0l0 -540.0z" clip-rule="nonzero"/></clipPath><g clip-path="url(#p22.0)"><path fill="#ffffff" d="m0 0l960.0 0l0 540.0l-960.0 0z" fill-rule="evenodd"/><path fill="#000000" fill-opacity="0.0" d="m47.43307 -15.76063l668.5229 0l0 429.4677l-668.5229 0z" fill-rule="evenodd"/><path fill="#000000" d="m71.40182 145.21323l0 -38.062492l-13.593746 0l0 -7.75l36.406246 0l0 7.75l-13.5625 0l0 38.062492l-9.25 0zm37.46875 -45.812492l0 16.84375q4.25 -4.96875 10.15625 -4.96875q3.03125 0 5.46875 1.125q2.4375 1.125 3.6718826 2.875q1.234375 1.75 1.6875 3.875q0.453125 2.125 0.453125 6.59375l0 19.468742l-8.781258 0l0 -17.531242q0 -5.21875 -0.5 -6.625q-0.5 -1.40625 -1.765625 -2.234375q-1.265625 -0.828125 -3.171875 -0.828125q-2.1875 0 -3.90625 1.0625q-1.71875 1.0625 -2.515625 3.203125q-0.796875 2.140625 -0.796875 6.3281174l0 16.625l-8.78125 0l0 -45.812492l8.78125 0zm30.343758 8.125l0 -8.125l8.78125 0l0 8.125l-8.78125 0zm0 37.687492l0 -33.187492l8.78125 0l0 33.187492l-8.78125 0zm14.6875 -9.46875l8.8125 -1.34375q0.5625 2.5625 2.28125 3.890625q1.71875 1.328125 4.8125 1.328125q3.40625 0 5.125 -1.25q1.15625 -0.875 1.15625 -2.34375q0 -1.0 -0.625 -1.65625q-0.65625 -0.625 -2.9375 -1.15625q-10.625 -2.34375 -13.46875 -4.28125q-3.9375 -2.6874924 -3.9375 -7.4687424q0 -4.3125 3.40625 -7.25q3.40625 -2.9375 10.5625 -2.9375q6.8125 0 10.125 2.21875q3.3125 2.21875 4.5625 6.5625l-8.28125 1.53125q-0.53125 -1.9375 -2.015625 -2.96875q-1.484375 -1.03125 -4.234375 -1.03125q-3.46875 0 -4.96875 0.96875q-1.0 0.6875 -1.0 1.78125q0 0.9375 0.875 1.59375q1.1875 0.875 8.203125 2.46875q7.015625 1.59375 9.796875 3.9062424q2.75 2.34375 2.75 6.53125q0 4.5625 -3.8125 7.84375q-3.8125 3.28125 -11.28125 3.28125q-6.78125 0 -10.734375 -2.75q-3.953125 -2.75 -5.171875 -7.46875zm56.46875 -28.218742l0 -8.125l8.78125 0l0 8.125l-8.78125 0zm0 37.687492l0 -33.187492l8.78125 0l0 33.187492l-8.78125 0zm14.6875 -9.46875l8.8125 -1.34375q0.5625 2.5625 2.28125 3.890625q1.71875 1.328125 4.8125 1.328125q3.40625 0 5.125 -1.25q1.15625 -0.875 1.15625 -2.34375q0 -1.0 -0.625 -1.65625q-0.65625 -0.625 -2.9375 -1.15625q-10.625 -2.34375 -13.46875 -4.28125q-3.9375 -2.6874924 -3.9375 -7.4687424q0 -4.3125 3.40625 -7.25q3.40625 -2.9375 10.5625 -2.9375q6.8125 0 10.125 2.21875q3.3125 2.21875 4.5625 6.5625l-8.28125 1.53125q-0.53125 -1.9375 -2.015625 -2.96875q-1.484375 -1.03125 -4.234375 -1.03125q-3.46875 0 -4.96875 0.96875q-1.0 0.6875 -1.0 1.78125q0 0.9375 0.875 1.59375q1.1875 0.875 8.203125 2.46875q7.015625 1.59375 9.796875 3.9062424q2.75 2.34375 2.75 6.53125q0 4.5625 -3.8125 7.84375q-3.8125 3.28125 -11.28125 3.28125q-6.78125 0 -10.734375 -2.75q-3.953125 -2.75 -5.171875 -7.46875zm62.65625 9.46875l-10.5 -33.187492l8.53125 0l6.21875 21.749992l5.71875 -21.749992l8.46875 0l5.53125 21.749992l6.34375 -21.749992l8.65625 0l-10.65625 33.187492l-8.4375 0l-5.71875 -21.343742l-5.625 21.343742l-8.53125 0zm52.34375 -45.812492l0 16.84375q4.25 -4.96875 10.15625 -4.96875q3.03125 0 5.46875 1.125q2.4375 1.125 3.671875 2.875q1.234375 1.75 1.6875 3.875q0.453125 2.125 0.453125 6.59375l0 19.468742l-8.78125 0l0 -17.531242q0 -5.21875 -0.5 -6.625q-0.5 -1.40625 -1.765625 -2.234375q-1.265625 -0.828125 -3.171875 -0.828125q-2.1875 0 -3.90625 1.0625q-1.71875 1.0625 -2.515625 3.203125q-0.796875 2.140625 -0.796875 6.3281174l0 16.625l-8.78125 0l0 -45.812492l8.78125 0zm36.90625 22.75l-7.96875 -1.4375q1.34375 -4.8125 4.625 -7.125q3.28125 -2.3125 9.75 -2.3125q5.875 0 8.75 1.390625q2.875 1.390625 4.046875 3.53125q1.171875 2.140625 1.171875 7.859375l-0.09375 10.249992q0 4.375 0.421875 6.453125q0.421875 2.078125 1.578125 4.453125l-8.6875 0q-0.34375 -0.875 -0.84375 -2.59375q-0.21875 -0.78125 -0.3125 -1.03125q-2.25 2.1875 -4.8125 3.28125q-2.5625 1.09375 -5.46875 1.09375q-5.125 0 -8.078125 -2.78125q-2.953125 -2.78125 -2.953125 -7.03125q0 -2.8125 1.34375 -5.015625q1.34375 -2.203125 3.765625 -3.3749924q2.421875 -1.171875 6.984375 -2.046875q6.15625 -1.15625 8.53125 -2.15625l0 -0.875q0 -2.53125 -1.25 -3.609375q-1.25 -1.078125 -4.71875 -1.078125q-2.34375 0 -3.65625 0.921875q-1.3125 0.921875 -2.125 3.234375zm11.75 7.1249924q-1.6875 0.5625 -5.34375 1.34375q-3.65625 0.78125 -4.78125 1.53125q-1.71875 1.21875 -1.71875 3.09375q0 1.84375 1.375 3.1875q1.375 1.34375 3.5 1.34375q2.375 0 4.53125 -1.5625q1.59375 -1.1875 2.09375 -2.90625q0.34375 -1.125 0.34375 -4.28125l0 -1.75zm32.5 -17.249992l0 7.0l-6.0 0l0 13.374992q0 4.0625 0.171875 4.734375q0.171875 0.671875 0.78125 1.109375q0.609375 0.4375 1.484375 0.4375q1.21875 0 3.53125 -0.84375l0.75 6.8125q-3.0625 1.3125 -6.9375 1.3125q-2.375 0 -4.28125 -0.796875q-1.90625 -0.796875 -2.796875 -2.0625q-0.890625 -1.265625 -1.234375 -3.421875q-0.28125 -1.53125 -0.28125 -6.1875l0 -14.468742l-4.03125 0l0 -7.0l4.03125 0l0 -6.59375l8.8125 -5.125l0 11.71875l6.0 0zm32.625 -12.625l0 16.84375q4.25 -4.96875 10.15625 -4.96875q3.03125 0 5.46875 1.125q2.4375 1.125 3.671875 2.875q1.234375 1.75 1.6875 3.875q0.453125 2.125 0.453125 6.59375l0 19.468742l-8.78125 0l0 -17.531242q0 -5.21875 -0.5 -6.625q-0.5 -1.40625 -1.765625 -2.234375q-1.265625 -0.828125 -3.171875 -0.828125q-2.1875 0 -3.90625 1.0625q-1.71875 1.0625 -2.515625 3.203125q-0.796875 2.140625 -0.796875 6.3281174l0 16.625l-8.78125 0l0 -45.812492l8.78125 0zm36.90625 22.75l-7.96875 -1.4375q1.34375 -4.8125 4.625 -7.125q3.28125 -2.3125 9.75 -2.3125q5.875 0 8.75 1.390625q2.875 1.390625 4.046875 3.53125q1.171875 2.140625 1.171875 7.859375l-0.09375 10.249992q0 4.375 0.421875 6.453125q0.421875 2.078125 1.5780945 4.453125l-8.6874695 0q-0.34375 -0.875 -0.84375 -2.59375q-0.21875 -0.78125 -0.3125 -1.03125q-2.25 2.1875 -4.8125 3.28125q-2.5625 1.09375 -5.46875 1.09375q-5.125 0 -8.078125 -2.78125q-2.953125 -2.78125 -2.953125 -7.03125q0 -2.8125 1.34375 -5.015625q1.34375 -2.203125 3.765625 -3.3749924q2.421875 -1.171875 6.984375 -2.046875q6.15625 -1.15625 8.53125 -2.15625l0 -0.875q0 -2.53125 -1.25 -3.609375q-1.25 -1.078125 -4.71875 -1.078125q-2.34375 0 -3.65625 0.921875q-1.3125 0.921875 -2.125 3.234375zm11.75 7.1249924q-1.6875 0.5625 -5.34375 1.34375q-3.65625 0.78125 -4.78125 1.53125q-1.71875 1.21875 -1.71875 3.09375q0 1.84375 1.375 3.1875q1.375 1.34375 3.5 1.34375q2.375 0 4.53125 -1.5625q1.59375 -1.1875 2.09375 -2.90625q0.34375 -1.125 0.34375 -4.28125l0 -1.75zm17.03122 -17.249992l8.1875 0l0 4.875q1.59375 -2.5 4.3125 -4.0625q2.71875 -1.5625 6.03125 -1.5625q5.78125 0 9.8125 4.53125q4.03125 4.53125 4.03125 12.624992q0 8.3125 -4.0625 12.921875q-4.0625 4.609375 -9.84375 4.609375q-2.75 0 -4.984375 -1.09375q-2.234375 -1.09375 -4.703125 -3.75l0 16.71875l-8.78125 0l0 -45.812492zm8.6875 16.031242q0 5.59375 2.21875 8.265625q2.21875 2.671875 5.40625 2.671875q3.0625 0 5.09375 -2.453125q2.03125 -2.453125 2.03125 -8.046875q0 -5.2187424 -2.09375 -7.7499924q-2.09375 -2.53125 -5.1875 -2.53125q-3.21875 0 -5.34375 2.484375q-2.125 2.484375 -2.125 7.3593674zm30.40625 -16.031242l8.1875 0l0 4.875q1.59375 -2.5 4.3125 -4.0625q2.71875 -1.5625 6.03125 -1.5625q5.78125 0 9.8125 4.53125q4.03125 4.53125 4.03125 12.624992q0 8.3125 -4.0625 12.921875q-4.0625 4.609375 -9.84375 4.609375q-2.75 0 -4.984375 -1.09375q-2.234375 -1.09375 -4.703125 -3.75l0 16.71875l-8.78125 0l0 -45.812492zm8.6875 16.031242q0 5.59375 2.21875 8.265625q2.21875 2.671875 5.40625 2.671875q3.0625 0 5.09375 -2.453125q2.03125 -2.453125 2.03125 -8.046875q0 -5.2187424 -2.09375 -7.7499924q-2.09375 -2.53125 -5.1875 -2.53125q-3.21875 0 -5.34375 2.484375q-2.125 2.484375 -2.125 7.3593674zm49.875 6.59375l8.75 1.46875q-1.6875 4.8125 -5.328125 7.328125q-3.640625 2.515625 -9.109375 2.515625q-8.65625 0 -12.8125 -5.65625q-3.28125 -4.53125 -3.28125 -11.4375q0 -8.249992 4.3125 -12.921867q4.3125 -4.671875 10.90625 -4.671875q7.40625 0 11.6875 4.890625q4.28125 4.890625 4.09375 14.984367l-22.0 0q0.09375 3.90625 2.125 6.078125q2.03125 2.171875 5.0625 2.171875q2.0625 0 3.46875 -1.125q1.40625 -1.125 2.125 -3.625zm0.5 -8.874992q-0.09375 -3.8125 -1.96875 -5.796875q-1.875 -1.984375 -4.5625 -1.984375q-2.875 0 -4.75 2.09375q-1.875 2.09375 -1.84375 5.6875l13.125 0zm46.0625 19.437492l-8.78125 0l0 -16.9375q0 -5.3749924 -0.5625 -6.9531174q-0.5625 -1.578125 -1.828125 -2.453125q-1.265625 -0.875 -3.046875 -0.875q-2.28125 0 -4.09375 1.25q-1.8125 1.25 -2.484375 3.3125q-0.671875 2.0625 -0.671875 7.6249924l0 15.03125l-8.78125 0l0 -33.187492l8.15625 0l0 4.875q4.34375 -5.625 10.9375 -5.625q2.90625 0 5.3125 1.046875q2.40625 1.046875 3.640625 2.671875q1.234375 1.625 1.71875 3.6875q0.484375 2.0625 0.484375 5.90625l0 20.624992zm5.8125 -9.46875l8.8125 -1.34375q0.5625 2.5625 2.28125 3.890625q1.71875 1.328125 4.8125 1.328125q3.40625 0 5.125 -1.25q1.15625 -0.875 1.15625 -2.34375q0 -1.0 -0.625 -1.65625q-0.65625 -0.625 -2.9375 -1.15625q-10.625 -2.34375 -13.46875 -4.28125q-3.9375 -2.6874924 -3.9375 -7.4687424q0 -4.3125 3.40625 -7.25q3.40625 -2.9375 10.5625 -2.9375q6.8125 0 10.125 2.21875q3.3125 2.21875 4.5625 6.5625l-8.28125 1.53125q-0.53125 -1.9375 -2.015625 -2.96875q-1.484375 -1.03125 -4.234375 -1.03125q-3.46875 0 -4.96875 0.96875q-1.0 0.6875 -1.0 1.78125q0 0.9375 0.875 1.59375q1.1875 0.875 8.203125 2.46875q7.015625 1.59375 9.796875 3.9062424q2.75 2.34375 2.75 6.53125q0 4.5625 -3.8125 7.84375q-3.8125 3.28125 -11.28125 3.28125q-6.78125 0 -10.734375 -2.75q-3.953125 -2.75 -5.171875 -7.46875z" fill-rule="nonzero"/><path fill="#000000" d="m67.21432 222.01323l-10.499996 -33.1875l8.531246 0l6.21875 21.75l5.71875 -21.75l8.46875 0l5.53125 21.75l6.34375 -21.75l8.65625 0l-10.65625 33.1875l-8.4375 0l-5.71875 -21.34375l-5.625 21.34375l-8.53125 0zm52.34375 -45.8125l0 16.84375q4.25 -4.96875 10.156258 -4.96875q3.03125 0 5.46875 1.125q2.4375 1.125 3.671875 2.875q1.234375 1.75 1.6875 3.875q0.453125 2.125 0.453125 6.59375l0 19.46875l-8.78125 0l0 -17.53125q0 -5.21875 -0.5 -6.625q-0.5 -1.40625 -1.765625 -2.234375q-1.265625 -0.828125 -3.1718826 -0.828125q-2.1875 0 -3.90625 1.0625q-1.71875 1.0625 -2.515625 3.203125q-0.796875 2.140625 -0.796875 6.328125l0 16.625l-8.78125 0l0 -45.8125l8.78125 0zm49.562508 35.25l8.75 1.46875q-1.6875 4.8125 -5.328125 7.328125q-3.640625 2.515625 -9.109375 2.515625q-8.65625 0 -12.8125 -5.65625q-3.28125 -4.53125 -3.28125 -11.4375q0 -8.25 4.3125 -12.921875q4.3125 -4.671875 10.90625 -4.671875q7.40625 0 11.6875 4.890625q4.28125 4.890625 4.09375 14.984375l-22.0 0q0.09375 3.90625 2.125 6.078125q2.03125 2.171875 5.0625 2.171875q2.0625 0 3.46875 -1.125q1.40625 -1.125 2.125 -3.625zm0.5 -8.875q-0.09375 -3.8125 -1.96875 -5.796875q-1.875 -1.984375 -4.5625 -1.984375q-2.875 0 -4.75 2.09375q-1.875 2.09375 -1.84375 5.6875l13.125 0zm46.0625 19.4375l-8.78125 0l0 -16.9375q0 -5.375 -0.5625 -6.953125q-0.5625 -1.578125 -1.828125 -2.453125q-1.265625 -0.875 -3.046875 -0.875q-2.28125 0 -4.09375 1.25q-1.8125 1.25 -2.484375 3.3125q-0.671875 2.0625 -0.671875 7.625l0 15.03125l-8.78125 0l0 -33.1875l8.15625 0l0 4.875q4.34375 -5.625 10.9375 -5.625q2.90625 0 5.3125 1.046875q2.40625 1.046875 3.640625 2.671875q1.234375 1.625 1.71875 3.6875q0.484375 2.0625 0.484375 5.90625l0 20.625zm26.6875 -45.8125l9.25 0l0 24.8125q0 5.90625 0.34375 7.65625q0.59375 2.8125 2.828125 4.515625q2.234375 1.703125 6.109375 1.703125q3.9375 0 5.9375 -1.609375q2.0 -1.609375 2.40625 -3.953125q0.40625 -2.34375 0.40625 -7.78125l0 -25.34375l9.25 0l0 24.0625q0 8.25 -0.75 11.65625q-0.75 3.40625 -2.765625 5.75q-2.015625 2.34375 -5.390625 3.734375q-3.375 1.390625 -8.8125 1.390625q-6.5625 0 -9.953125 -1.515625q-3.390625 -1.515625 -5.359375 -3.9375q-1.96875 -2.421875 -2.59375 -5.078125q-0.90625 -3.9375 -0.90625 -11.625l0 -24.4375zm75.59375 28.96875l8.96875 2.84375q-2.0625 7.5 -6.859375 11.140625q-4.796875 3.640625 -12.171875 3.640625q-9.125 0 -15.0 -6.234375q-5.875 -6.234375 -5.875 -17.046875q0 -11.4375 5.90625 -17.765625q5.90625 -6.328125 15.53125 -6.328125q8.40625 0 13.65625 4.96875q3.125 2.9375 4.6875 8.4375l-9.15625 2.1875q-0.8125 -3.5625 -3.390625 -5.625q-2.578125 -2.0625 -6.265625 -2.0625q-5.09375 0 -8.265625 3.65625q-3.171875 3.65625 -3.171875 11.84375q0 8.6875 3.125 12.375q3.125 3.6875 8.125 3.6875q3.6875 0 6.34375 -2.34375q2.65625 -2.34375 3.8125 -7.375zm14.8125 -0.21875q0 -4.375 2.15625 -8.46875q2.15625 -4.09375 6.109375 -6.25q3.953125 -2.15625 8.828125 -2.15625q7.53125 0 12.34375 4.890625q4.8125 4.890625 4.8125 12.359375q0 7.53125 -4.859375 12.484375q-4.859375 4.953125 -12.234375 4.953125q-4.5625 0 -8.703125 -2.0625q-4.140625 -2.0625 -6.296875 -6.046875q-2.15625 -3.984375 -2.15625 -9.703125zm9.0 0.46875q0 4.9375 2.34375 7.5625q2.34375 2.625 5.78125 2.625q3.4375 0 5.765625 -2.625q2.328125 -2.625 2.328125 -7.625q0 -4.875 -2.328125 -7.5q-2.328125 -2.625 -5.765625 -2.625q-3.4375 0 -5.78125 2.625q-2.34375 2.625 -2.34375 7.5625zm62.3125 16.59375l-8.78125 0l0 -16.9375q0 -5.375 -0.5625 -6.953125q-0.5625 -1.578125 -1.828125 -2.453125q-1.265625 -0.875 -3.046875 -0.875q-2.28125 0 -4.09375 1.25q-1.8125 1.25 -2.484375 3.3125q-0.671875 2.0625 -0.671875 7.625l0 15.03125l-8.78125 0l0 -33.1875l8.15625 0l0 4.875q4.34375 -5.625 10.9375 -5.625q2.90625 0 5.3125 1.046875q2.40625 1.046875 3.640625 2.671875q1.234375 1.625 1.71875 3.6875q0.484375 2.0625 0.484375 5.90625l0 20.625zm39.09375 0l-8.78125 0l0 -16.9375q0 -5.375 -0.5625 -6.953125q-0.5625 -1.578125 -1.828125 -2.453125q-1.265625 -0.875 -3.046875 -0.875q-2.28125 0 -4.09375 1.25q-1.8125 1.25 -2.484375 3.3125q-0.671875 2.0625 -0.671875 7.625l0 15.03125l-8.78125 0l0 -33.1875l8.15625 0l0 4.875q4.34375 -5.625 10.9375 -5.625q2.90625 0 5.3125 1.046875q2.40625 1.046875 3.640625 2.671875q1.234375 1.625 1.71875 3.6875q0.484375 2.0625 0.484375 5.90625l0 20.625zm57.125 0l-8.15625 0l0 -4.875q-2.03125 2.84375 -4.796875 4.234375q-2.765625 1.390625 -5.578125 1.390625q-5.71875 0 -9.796875 -4.609375q-4.078125 -4.609375 -4.078125 -12.859375q0 -8.4375 3.96875 -12.828125q3.96875 -4.390625 10.03125 -4.390625q5.5625 0 9.625 4.625l0 -16.5l8.78125 0l0 45.8125zm-23.4375 -17.3125q0 5.3125 1.46875 7.6875q2.125 3.4375 5.9375 3.4375q3.03125 0 5.15625 -2.578125q2.125 -2.578125 2.125 -7.703125q0 -5.71875 -2.0625 -8.234375q-2.0625 -2.515625 -5.28125 -2.515625q-3.125 0 -5.234375 2.484375q-2.109375 2.484375 -2.109375 7.421875zm30.0625 0.25q0 -4.375 2.15625 -8.46875q2.15625 -4.09375 6.1093445 -6.25q3.953125 -2.15625 8.828125 -2.15625q7.53125 0 12.34375 4.890625q4.8125 4.890625 4.8125 12.359375q0 7.53125 -4.859375 12.484375q-4.859375 4.953125 -12.234375 4.953125q-4.5625 0 -8.703125 -2.0625q-4.1405945 -2.0625 -6.2968445 -6.046875q-2.15625 -3.984375 -2.15625 -9.703125zm8.9999695 0.46875q0 4.9375 2.34375 7.5625q2.34375 2.625 5.78125 2.625q3.4375 0 5.765625 -2.625q2.328125 -2.625 2.328125 -7.625q0 -4.875 -2.328125 -7.5q-2.328125 -2.625 -5.765625 -2.625q-3.4375 0 -5.78125 2.625q-2.34375 2.625 -2.34375 7.5625zm51.34375 6.03125l8.75 1.46875q-1.6875 4.8125 -5.328125 7.328125q-3.640625 2.515625 -9.109375 2.515625q-8.65625 0 -12.8125 -5.65625q-3.28125 -4.53125 -3.28125 -11.4375q0 -8.25 4.3125 -12.921875q4.3125 -4.671875 10.90625 -4.671875q7.40625 0 11.6875 4.890625q4.28125 4.890625 4.09375 14.984375l-22.0 0q0.09375 3.90625 2.125 6.078125q2.03125 2.171875 5.0625 2.171875q2.0625 0 3.46875 -1.125q1.40625 -1.125 2.125 -3.625zm0.5 -8.875q-0.09375 -3.8125 -1.96875 -5.796875q-1.875 -1.984375 -4.5625 -1.984375q-2.875 0 -4.75 2.09375q-1.875 2.09375 -1.84375 5.6875l13.125 0zm12.78125 9.96875l8.8125 -1.34375q0.5625 2.5625 2.28125 3.890625q1.71875 1.328125 4.8125 1.328125q3.40625 0 5.125 -1.25q1.15625 -0.875 1.15625 -2.34375q0 -1.0 -0.625 -1.65625q-0.65625 -0.625 -2.9375 -1.15625q-10.625 -2.34375 -13.46875 -4.28125q-3.9375 -2.6875 -3.9375 -7.46875q0 -4.3125 3.40625 -7.25q3.40625 -2.9375 10.5625 -2.9375q6.8125 0 10.125 2.21875q3.3125 2.21875 4.5625 6.5625l-8.28125 1.53125q-0.53125 -1.9375 -2.015625 -2.96875q-1.484375 -1.03125 -4.234375 -1.03125q-3.46875 0 -4.96875 0.96875q-1.0 0.6875 -1.0 1.78125q0 0.9375 0.875 1.59375q1.1875 0.875 8.203125 2.46875q7.015625 1.59375 9.796875 3.90625q2.75 2.34375 2.75 6.53125q0 4.5625 -3.8125 7.84375q-3.8125 3.28125 -11.28125 3.28125q-6.78125 0 -10.734375 -2.75q-3.953125 -2.75 -5.171875 -7.46875zm68.875 9.46875l-8.78125 0l0 -16.9375q0 -5.375 -0.5625 -6.953125q-0.5625 -1.578125 -1.828125 -2.453125q-1.265625 -0.875 -3.046875 -0.875q-2.28125 0 -4.09375 1.25q-1.8125 1.25 -2.484375 3.3125q-0.671875 2.0625 -0.671875 7.625l0 15.03125l-8.78125 0l0 -33.1875l8.15625 0l0 4.875q4.34375 -5.625 10.9375 -5.625q2.90625 0 5.3125 1.046875q2.40625 1.046875 3.640625 2.671875q1.234375 1.625 1.71875 3.6875q0.484375 2.0625 0.484375 5.90625l0 20.625zm8.6875 -45.6875l8.78125 0l0 6.28125q0 3.8125 -0.65625 6.015625q-0.65625 2.203125 -2.484375 3.953125q-1.828125 1.75 -4.640625 2.75l-1.71875 -3.625q2.65625 -0.875 3.78125 -2.40625q1.125 -1.53125 1.1875 -4.1875l-4.25 0l0 -8.78125zm33.21875 12.5l0 7.0l-6.0 0l0 13.375q0 4.0625 0.171875 4.734375q0.171875 0.671875 0.78125 1.109375q0.609375 0.4375 1.484375 0.4375q1.21875 0 3.53125 -0.84375l0.75 6.8125q-3.0625 1.3125 -6.9375 1.3125q-2.375 0 -4.28125 -0.796875q-1.90625 -0.796875 -2.796875 -2.0625q-0.890625 -1.265625 -1.234375 -3.421875q-0.28125 -1.53125 -0.28125 -6.1875l0 -14.46875l-4.03125 0l0 -7.0l4.03125 0l0 -6.59375l8.8125 -5.125l0 11.71875l6.0 0z" fill-rule="nonzero"/><path fill="#000000" d="m61.02682 261.12573l0 -8.125015l8.781246 0l0 8.125015l-8.781246 0zm0 37.6875l0 -33.1875l8.781246 0l0 33.1875l-8.781246 0zm47.968746 0l-8.78125 0l0 -16.9375q0 -5.375 -0.5625 -6.953125q-0.5625 -1.578125 -1.828125 -2.453125q-1.265625 -0.875 -3.046875 -0.875q-2.28125 0 -4.09375 1.25q-1.8125 1.25 -2.484375 3.3125q-0.671875 2.0625 -0.671875 7.625l0 15.03125l-8.78125 0l0 -33.1875l8.15625 0l0 4.875q4.34375 -5.625 10.9375 -5.625q2.90625 0 5.3125 1.046875q2.40625 1.046875 3.640625 2.671875q1.234375 1.625 1.71875 3.6875q0.484375 2.0625 0.484375 5.90625l0 20.625zm18.03125 0l-13.375 -33.1875l9.21875 0l6.2500076 16.9375l1.8125 5.65625q0.71875 -2.15625 0.90625 -2.84375q0.4375 -1.40625 0.9375 -2.8125l6.3125 -16.9375l9.03125 0l-13.1875 33.1875l-7.9062576 0zm45.687508 -10.5625l8.75 1.46875q-1.6875 4.8125 -5.328125 7.328125q-3.640625 2.515625 -9.109375 2.515625q-8.65625 0 -12.8125 -5.65625q-3.28125 -4.53125 -3.28125 -11.4375q0 -8.25 4.3125 -12.921875q4.3125 -4.671875 10.90625 -4.671875q7.40625 0 11.6875 4.890625q4.28125 4.890625 4.09375 14.984375l-22.0 0q0.09375 3.90625 2.125 6.078125q2.03125 2.171875 5.0625 2.171875q2.0625 0 3.46875 -1.125q1.40625 -1.125 2.125 -3.625zm0.5 -8.875q-0.09375 -3.8125 -1.96875 -5.796875q-1.875 -1.984375 -4.5625 -1.984375q-2.875 0 -4.75 2.09375q-1.875 2.09375 -1.84375 5.6875l13.125 0zm12.78125 9.96875l8.8125 -1.34375q0.5625 2.5625 2.28125 3.890625q1.71875 1.328125 4.8125 1.328125q3.40625 0 5.125 -1.25q1.15625 -0.875 1.15625 -2.34375q0 -1.0 -0.625 -1.65625q-0.65625 -0.625 -2.9375 -1.15625q-10.625 -2.34375 -13.46875 -4.28125q-3.9375 -2.6875 -3.9375 -7.46875q0 -4.3125 3.40625 -7.25q3.40625 -2.9375 10.5625 -2.9375q6.8125 0 10.125 2.21875q3.3125 2.21875 4.5625 6.5625l-8.28125 1.53125q-0.53125 -1.9375 -2.015625 -2.96875q-1.484375 -1.03125 -4.234375 -1.03125q-3.46875 0 -4.96875 0.96875q-1.0 0.6875 -1.0 1.78125q0 0.9375 0.875 1.59375q1.1875 0.875 8.203125 2.46875q7.015625 1.59375 9.796875 3.90625q2.75 2.34375 2.75 6.53125q0 4.5625 -3.8125 7.84375q-3.8125 3.28125 -11.28125 3.28125q-6.78125 0 -10.734375 -2.75q-3.953125 -2.75 -5.171875 -7.46875zm53.90625 -23.71875l0 7.0l-6.0 0l0 13.375q0 4.0625 0.171875 4.734375q0.171875 0.671875 0.78125 1.109375q0.609375 0.4375 1.484375 0.4375q1.21875 0 3.53125 -0.84375l0.75 6.8125q-3.0625 1.3125 -6.9375 1.3125q-2.375 0 -4.28125 -0.796875q-1.90625 -0.796875 -2.796875 -2.0625q-0.890625 -1.265625 -1.234375 -3.421875q-0.28125 -1.53125 -0.28125 -6.1875l0 -14.46875l-4.03125 0l0 -7.0l4.03125 0l0 -6.59375l8.8125 -5.1250153l0 11.718765l6.0 0zm23.875 -4.5l0 -8.125015l8.78125 0l0 8.125015l-8.78125 0zm0 37.6875l0 -33.1875l8.78125 0l0 33.1875l-8.78125 0zm47.96875 0l-8.78125 0l0 -16.9375q0 -5.375 -0.5625 -6.953125q-0.5625 -1.578125 -1.828125 -2.453125q-1.265625 -0.875 -3.046875 -0.875q-2.28125 0 -4.09375 1.25q-1.8125 1.25 -2.484375 3.3125q-0.671875 2.0625 -0.671875 7.625l0 15.03125l-8.78125 0l0 -33.1875l8.15625 0l0 4.875q4.34375 -5.625 10.9375 -5.625q2.90625 0 5.3125 1.046875q2.40625 1.046875 3.640625 2.671875q1.234375 1.625 1.71875 3.6875q0.484375 2.0625 0.484375 5.90625l0 20.625zm26.6875 -37.6875l0 -8.125015l8.78125 0l0 8.125015l-8.78125 0zm0 37.6875l0 -33.1875l8.78125 0l0 33.1875l-8.78125 0zm33.0 -33.1875l0 7.0l-6.0 0l0 13.375q0 4.0625 0.171875 4.734375q0.171875 0.671875 0.78125 1.109375q0.609375 0.4375 1.484375 0.4375q1.21875 0 3.53125 -0.84375l0.75 6.8125q-3.0625 1.3125 -6.9375 1.3125q-2.375 0 -4.28125 -0.796875q-1.90625 -0.796875 -2.796875 -2.0625q-0.890625 -1.265625 -1.234375 -3.421875q-0.28125 -1.53125 -0.28125 -6.1875l0 -14.46875l-4.03125 0l0 -7.0l4.03125 0l0 -6.59375l8.8125 -5.1250153l0 11.718765l6.0 0zm3.0 23.71875l8.8125 -1.34375q0.5625 2.5625 2.28125 3.890625q1.71875 1.328125 4.8125 1.328125q3.40625 0 5.125 -1.25q1.15625 -0.875 1.15625 -2.34375q0 -1.0 -0.625 -1.65625q-0.65625 -0.625 -2.9375 -1.15625q-10.625 -2.34375 -13.46875 -4.28125q-3.9375 -2.6875 -3.9375 -7.46875q0 -4.3125 3.40625 -7.25q3.40625 -2.9375 10.5625 -2.9375q6.8125 0 10.125 2.21875q3.3125 2.21875 4.5625 6.5625l-8.28125 1.53125q-0.53125 -1.9375 -2.015625 -2.96875q-1.484375 -1.03125 -4.234375 -1.03125q-3.46875 0 -4.96875 0.96875q-1.0 0.6875 -1.0 1.78125q0 0.9375 0.875 1.59375q1.1875 0.875 8.203125 2.46875q7.015625 1.59375 9.796875 3.90625q2.75 2.34375 2.75 6.53125q0 4.5625 -3.8125 7.84375q-3.8125 3.28125 -11.28125 3.28125q-6.78125 0 -10.734375 -2.75q-3.953125 -2.75 -5.171875 -7.46875zm53.375 0l8.8125 -1.34375q0.5625 2.5625 2.28125 3.890625q1.71875 1.328125 4.8125 1.328125q3.40625 0 5.125 -1.25q1.15625 -0.875 1.15625 -2.34375q0 -1.0 -0.625 -1.65625q-0.65625 -0.625 -2.9375 -1.15625q-10.625 -2.34375 -13.46875 -4.28125q-3.9375 -2.6875 -3.9375 -7.46875q0 -4.3125 3.40625 -7.25q3.40625 -2.9375 10.5625 -2.9375q6.8125 0 10.125 2.21875q3.3125 2.21875 4.5625 6.5625l-8.28125 1.53125q-0.53125 -1.9375 -2.015625 -2.96875q-1.484375 -1.03125 -4.234375 -1.03125q-3.46875 0 -4.96875 0.96875q-1.0 0.6875 -1.0 1.78125q0 0.9375 0.875 1.59375q1.1875 0.875 8.203125 2.46875q7.015625 1.59375 9.796875 3.90625q2.75 2.34375 2.75 6.53125q0 4.5625 -3.8125 7.84375q-3.8125 3.28125 -11.28125 3.28125q-6.78125 0 -10.734375 -2.75q-3.953125 -2.75 -5.171875 -7.46875zm53.90625 -23.71875l0 7.0l-6.0 0l0 13.375q0 4.0625 0.171875 4.734375q0.171875 0.671875 0.78125 1.109375q0.609375 0.4375 1.484375 0.4375q1.21875 0 3.53125 -0.84375l0.75 6.8125q-3.0625 1.3125 -6.9375 1.3125q-2.375 0 -4.28125 -0.796875q-1.90625 -0.796875 -2.796875 -2.0625q-0.890625 -1.265625 -1.234375 -3.421875q-0.28125 -1.53125 -0.28125 -6.1875l0 -14.46875l-4.03125 0l0 -7.0l4.03125 0l0 -6.59375l8.8125 -5.1250153l0 11.718765l6.0 0zm27.9375 33.1875l0 -4.96875q-1.8125 2.65625 -4.765625 4.1875q-2.953125 1.53125 -6.234375 1.53125q-3.34375 0 -6.0 -1.46875q-2.65625 -1.46875 -3.84375 -4.125q-1.1875 -2.65625 -1.1875 -7.34375l0 -21.0l8.78125 0l0 15.25q0 7.0 0.484375 8.578125q0.484375 1.578125 1.765625 2.5q1.28125 0.921875 3.25 0.921875q2.25 0 4.03125 -1.234375q1.78125 -1.234375 2.4375 -3.0625q0.65625 -1.828125 0.65625 -8.953125l0 -14.0l8.7812195 0l0 33.1875l-8.1562195 0zm47.68747 0l-8.15625 0l0 -4.875q-2.03125 2.84375 -4.796875 4.234375q-2.765625 1.390625 -5.578125 1.390625q-5.71875 0 -9.796875 -4.609375q-4.078125 -4.609375 -4.078125 -12.859375q0 -8.4375 3.96875 -12.828125q3.96875 -4.390625 10.03125 -4.390625q5.5625 0 9.625 4.625l0 -16.500015l8.78125 0l0 45.812515zm-23.4375 -17.3125q0 5.3125 1.46875 7.6875q2.125 3.4375 5.9375 3.4375q3.03125 0 5.15625 -2.578125q2.125 -2.578125 2.125 -7.703125q0 -5.71875 -2.0625 -8.234375q-2.0625 -2.515625 -5.28125 -2.515625q-3.125 0 -5.234375 2.484375q-2.109375 2.484375 -2.109375 7.421875zm51.3125 6.75l8.75 1.46875q-1.6875 4.8125 -5.328125 7.328125q-3.640625 2.515625 -9.109375 2.515625q-8.65625 0 -12.8125 -5.65625q-3.28125 -4.53125 -3.28125 -11.4375q0 -8.25 4.3125 -12.921875q4.3125 -4.671875 10.90625 -4.671875q7.40625 0 11.6875 4.890625q4.28125 4.890625 4.09375 14.984375l-22.0 0q0.09375 3.90625 2.125 6.078125q2.03125 2.171875 5.0625 2.171875q2.0625 0 3.46875 -1.125q1.40625 -1.125 2.125 -3.625zm0.5 -8.875q-0.09375 -3.8125 -1.96875 -5.796875q-1.875 -1.984375 -4.5625 -1.984375q-2.875 0 -4.75 2.09375q-1.875 2.09375 -1.84375 5.6875l13.125 0zm46.0625 19.4375l-8.78125 0l0 -16.9375q0 -5.375 -0.5625 -6.953125q-0.5625 -1.578125 -1.828125 -2.453125q-1.265625 -0.875 -3.046875 -0.875q-2.28125 0 -4.09375 1.25q-1.8125 1.25 -2.484375 3.3125q-0.671875 2.0625 -0.671875 7.625l0 15.03125l-8.78125 0l0 -33.1875l8.15625 0l0 4.875q4.34375 -5.625 10.9375 -5.625q2.90625 0 5.3125 1.046875q2.40625 1.046875 3.640625 2.671875q1.234375 1.625 1.71875 3.6875q0.484375 2.0625 0.484375 5.90625l0 20.625zm24.125 -33.1875l0 7.0l-6.0 0l0 13.375q0 4.0625 0.171875 4.734375q0.171875 0.671875 0.78125 1.109375q0.609375 0.4375 1.484375 0.4375q1.21875 0 3.53125 -0.84375l0.75 6.8125q-3.0625 1.3125 -6.9375 1.3125q-2.375 0 -4.28125 -0.796875q-1.90625 -0.796875 -2.796875 -2.0625q-0.890625 -1.265625 -1.234375 -3.421875q-0.28125 -1.53125 -0.28125 -6.1875l0 -14.46875l-4.03125 0l0 -7.0l4.03125 0l0 -6.59375l8.8125 -5.1250153l0 11.718765l6.0 0zm3.0 23.71875l8.8125 -1.34375q0.5625 2.5625 2.28125 3.890625q1.71875 1.328125 4.8125 1.328125q3.40625 0 5.125 -1.25q1.15625 -0.875 1.15625 -2.34375q0 -1.0 -0.625 -1.65625q-0.65625 -0.625 -2.9375 -1.15625q-10.625 -2.34375 -13.46875 -4.28125q-3.9375 -2.6875 -3.9375 -7.46875q0 -4.3125 3.40625 -7.25q3.40625 -2.9375 10.5625 -2.9375q6.8125 0 10.125 2.21875q3.3125 2.21875 4.5625 6.5625l-8.28125 1.53125q-0.53125 -1.9375 -2.015625 -2.96875q-1.484375 -1.03125 -4.234375 -1.03125q-3.46875 0 -4.96875 0.96875q-1.0 0.6875 -1.0 1.78125q0 0.9375 0.875 1.59375q1.1875 0.875 8.203125 2.46875q7.015625 1.59375 9.796875 3.90625q2.75 2.34375 2.75 6.53125q0 4.5625 -3.8125 7.84375q-3.8125 3.28125 -11.28125 3.28125q-6.78125 0 -10.734375 -2.75q-3.953125 -2.75 -5.171875 -7.46875z" fill-rule="nonzero"/></g></svg>