<svg version="1.1" viewBox="0.0 0.0 960.0 540.0" fill="none" stroke="none" stroke-linecap="square" stroke-miterlimit="10" xmlns:xlink="http://www.w3.org/1999/xlink" xmlns="http://www.w3.org/2000/svg"><clipPath id="p24.0"><path d="m0 0l960.0 0l0 540.0l-960.0 0l0 -540.0z" clip-rule="nonzero"/></clipPath><g clip-path="url(#p24.0)"><path fill="#ffffff" d="m0 0l960.0 0l0 540.0l-960.0 0z" fill-rule="evenodd"/><path fill="#000000" fill-opacity="0.0" d="m51.477165 47.244095l668.5228 0l0 429.4677l-668.5228 0z" fill-rule="evenodd"/><path fill="#000000" d="m62.789665 270.1117l9.0 -0.875q0.8125 4.53125 3.296875 6.65625q2.484375 2.125 6.703125 2.125q4.46875 0 6.734375 -1.890625q2.265625 -1.890625 2.265625 -4.421875q0 -1.625 -0.953125 -2.765625q-0.953125 -1.140625 -3.328125 -1.984375q-1.625 -0.5625 -7.40625 -2.0q-7.4375 -1.84375 -10.4375 -4.53125q-4.21875 -3.78125 -4.21875 -9.218735q0 -3.5 1.984375 -6.546875q1.984375 -3.046875 5.71875 -4.640625q3.734375 -1.59375 9.015625 -1.59375q8.625 0 12.984375 3.78125q4.359375 3.78125 4.578125 10.09375l-9.25 0.40625q-0.59375 -3.53125 -2.546875 -5.078125q-1.953125 -1.546875 -5.859375 -1.546875q-4.03125 0 -6.3125 1.65625q-1.46875 1.0625 -1.46875 2.84375q0 1.625 1.375 2.78125q1.75 1.46875 8.5 3.0624847q6.75 1.59375 9.984375 3.296875q3.234375 1.703125 5.0625 4.65625q1.828125 2.953125 1.828125 7.296875q0 3.9375 -2.1875 7.375q-2.1875 3.4375 -6.1875 5.109375q-4.0 1.671875 -9.96875 1.671875q-8.6875 0 -13.34375 -4.015625q-4.65625 -4.015625 -5.5625 -11.703125zm42.9375 -2.15625q0 -4.375 2.15625 -8.46875q2.15625 -4.0937347 6.109375 -6.2499847q3.953125 -2.15625 8.828125 -2.15625q7.5312576 0 12.343758 4.890625q4.8125 4.8906097 4.8125 12.35936q0 7.53125 -4.859375 12.484375q-4.859375 4.953125 -12.234383 4.953125q-4.5625 0 -8.703125 -2.0625q-4.140625 -2.0625 -6.296875 -6.046875q-2.15625 -3.984375 -2.15625 -9.703125zm9.0 0.46875q0 4.9375 2.34375 7.5625q2.34375 2.625 5.78125 2.625q3.4375 0 5.7656326 -2.625q2.328125 -2.625 2.328125 -7.625q0 -4.875 -2.328125 -7.5q-2.3281326 -2.625 -5.7656326 -2.625q-3.4375 0 -5.78125 2.625q-2.34375 2.625 -2.34375 7.5625zm32.125008 16.59375l0 -45.812485l8.78125 0l0 45.812485l-8.78125 0zm39.625 0l0 -4.96875q-1.8125 2.65625 -4.765625 4.1875q-2.953125 1.53125 -6.234375 1.53125q-3.34375 0 -6.0 -1.46875q-2.65625 -1.46875 -3.84375 -4.125q-1.1875 -2.65625 -1.1875 -7.34375l0 -20.999985l8.78125 0l0 15.249985q0 7.0 0.484375 8.578125q0.484375 1.578125 1.765625 2.5q1.28125 0.921875 3.25 0.921875q2.25 0 4.03125 -1.234375q1.78125 -1.234375 2.4375 -3.0625q0.65625 -1.828125 0.65625 -8.953125l0 -13.999985l8.78125 0l0 33.187485l-8.15625 0zm32.46875 -33.187485l0 6.9999847l-6.0 0l0 13.375q0 4.0625 0.171875 4.734375q0.171875 0.671875 0.78125 1.109375q0.609375 0.4375 1.484375 0.4375q1.21875 0 3.53125 -0.84375l0.75 6.8125q-3.0625 1.3125 -6.9375 1.3125q-2.375 0 -4.28125 -0.796875q-1.90625 -0.796875 -2.796875 -2.0625q-0.890625 -1.265625 -1.234375 -3.421875q-0.28125 -1.53125 -0.28125 -6.1875l0 -14.46875l-4.03125 0l0 -6.9999847l4.03125 0l0 -6.59375l8.8125 -5.125l0 11.71875l6.0 0zm6.09375 -4.5l0 -8.125l8.78125 0l0 8.125l-8.78125 0zm0 37.687485l0 -33.187485l8.78125 0l0 33.187485l-8.78125 0zm15.75 -17.0625q0 -4.375 2.15625 -8.46875q2.15625 -4.0937347 6.109375 -6.2499847q3.953125 -2.15625 8.828125 -2.15625q7.53125 0 12.34375 4.890625q4.8125 4.8906097 4.8125 12.35936q0 7.53125 -4.859375 12.484375q-4.859375 4.953125 -12.234375 4.953125q-4.5625 0 -8.703125 -2.0625q-4.140625 -2.0625 -6.296875 -6.046875q-2.15625 -3.984375 -2.15625 -9.703125zm9.0 0.46875q0 4.9375 2.34375 7.5625q2.34375 2.625 5.78125 2.625q3.4375 0 5.765625 -2.625q2.328125 -2.625 2.328125 -7.625q0 -4.875 -2.328125 -7.5q-2.328125 -2.625 -5.765625 -2.625q-3.4375 0 -5.78125 2.625q-2.34375 2.625 -2.34375 7.5625zm62.3125 16.59375l-8.78125 0l0 -16.9375q0 -5.375 -0.5625 -6.953125q-0.5625 -1.578125 -1.828125 -2.453125q-1.265625 -0.875 -3.046875 -0.875q-2.28125 0 -4.09375 1.25q-1.8125 1.25 -2.484375 3.3125q-0.671875 2.0625 -0.671875 7.625l0 15.03125l-8.78125 0l0 -33.187485l8.15625 0l0 4.8749847q4.34375 -5.6249847 10.9375 -5.6249847q2.90625 0 5.3125 1.046875q2.40625 1.046875 3.640625 2.671875q1.234375 1.6249847 1.71875 3.6874847q0.484375 2.0625 0.484375 5.90625l0 20.625zm5.8125 -9.46875l8.8125 -1.34375q0.5625 2.5625 2.28125 3.890625q1.71875 1.328125 4.8125 1.328125q3.40625 0 5.125 -1.25q1.15625 -0.875 1.15625 -2.34375q0 -1.0 -0.625 -1.65625q-0.65625 -0.625 -2.9375 -1.15625q-10.625 -2.34375 -13.46875 -4.28125q-3.9375 -2.6875 -3.9375 -7.46875q0 -4.3125 3.40625 -7.2499847q3.40625 -2.9375 10.5625 -2.9375q6.8125 0 10.125 2.21875q3.3125 2.21875 4.5625 6.5624847l-8.28125 1.53125q-0.53125 -1.9375 -2.015625 -2.96875q-1.484375 -1.03125 -4.234375 -1.03125q-3.46875 0 -4.96875 0.96875q-1.0 0.6875 -1.0 1.78125q0 0.9375 0.875 1.59375q1.1875 0.875 8.203125 2.46875q7.015625 1.59375 9.796875 3.90625q2.75 2.34375 2.75 6.53125q0 4.5625 -3.8125 7.84375q-3.8125 3.28125 -11.28125 3.28125q-6.78125 0 -10.734375 -2.75q-3.953125 -2.75 -5.171875 -7.46875zm38.46875 0.6875l8.78125 0l0 6.28125q0 3.8125 -0.65625 6.015625q-0.65625 2.203125 -2.484375 3.953125q-1.828125 1.75 -4.640625 2.75l-1.71875 -3.625q2.65625 -0.875 3.78125 -2.40625q1.125 -1.53125 1.1875 -4.1875l-4.25 0l0 -8.78125z" fill-rule="nonzero"/><path fill="#000000" d="m410.13342 285.01794l-9.4375 0l8.0 -38.156235l-13.4375 0l1.59375 -7.65625l36.09375 0l-1.59375 7.65625l-13.25 0l-7.96875 38.156235zm18.03125 -13.78125q0 -9.21875 5.203125 -14.703125q5.203125 -5.4843597 13.671875 -5.4843597q7.34375 0 11.46875 4.046875q4.125 4.0468597 4.125 10.89061q0 8.0625 -5.15625 13.9375q-5.15625 5.875 -13.8125 5.875q-4.6875 0 -8.3125 -1.875q-3.625 -1.875 -5.40625 -5.3125q-1.78125 -3.4375 -1.78125 -7.375zm25.5625 -6.40625q0 -3.1875 -1.859375 -5.109375q-1.859375 -1.921875 -4.796875 -1.921875q-2.90625 0 -5.15625 1.796875q-2.25 1.796875 -3.5 5.21875q-1.25 3.421875 -1.25 6.296875q0 3.5625 1.9375 5.65625q1.9375 2.09375 4.875 2.09375q3.6875 0 6.1875 -3.15625q3.5625 -4.46875 3.5625 -10.875zm42.875 20.1875l-8.5 0l0.75 -3.59375q-2.4375 2.34375 -4.796875 3.359375q-2.359375 1.015625 -5.328125 1.015625q-5.15625 0 -8.359375 -3.515625q-3.203125 -3.515625 -3.203125 -10.390625q0 -7.96875 4.5 -14.40625q4.5 -6.4374847 11.90625 -6.4374847q6.6875 0 10.03125 5.3124847l3.59375 -17.156235l8.96875 0l-9.5625 45.812485zm-20.71875 -13.5q0 3.5625 1.796875 5.5625q1.796875 2.0 4.421875 2.0q2.4375 0 4.546875 -1.671875q2.109375 -1.671875 3.375 -5.109375q1.265625 -3.4375 1.265625 -6.59375q0 -3.59375 -1.9375 -5.8125q-1.9375 -2.21875 -4.46875 -2.21875q-3.9375 0 -6.46875 4.375q-2.53125 4.375 -2.53125 9.46875zm41.8125 -10.28125l-8.75 -0.75q1.5 -4.4375 5.234375 -6.9374847q3.734375 -2.5 9.890625 -2.5q6.40625 0 9.46875 2.578125q3.0625 2.5781097 3.0625 6.2968597q0 1.5 -0.265625 3.1875q-0.265625 1.6875 -1.859375 8.875q-1.3125 5.9375 -1.3125 8.3125q0 2.125 0.75 4.71875l-8.71875 0q-0.53125 -1.8125 -0.65625 -3.75q-1.96875 2.1875 -4.53125 3.359375q-2.5625 1.171875 -5.15625 1.171875q-4.125 0 -6.8125 -2.703125q-2.6875 -2.703125 -2.6875 -6.953125q0 -4.75 2.953125 -7.59375q2.953125 -2.84375 10.546875 -3.4375q6.40625 -0.53125 8.5625 -1.28125q0.5625 -1.875 0.5625 -3.0q0 -1.4375 -1.15625 -2.40625q-1.15625 -0.96875 -3.4375 -0.96875q-2.40625 0 -3.796875 0.984375q-1.390625 0.984375 -1.890625 2.796875zm8.53125 8.3125q-0.8125 0.21875 -2.15625 0.40625q-6.75 0.8125 -8.8125 2.375q-1.46875 1.125 -1.46875 3.03125q0 1.5625 1.125 2.640625q1.125 1.078125 2.96875 1.078125q2.03125 0 3.828125 -0.984375q1.796875 -0.984375 2.6875 -2.53125q0.890625 -1.546875 1.578125 -4.828125l0.25 -1.1875zm17.1875 -17.718735l8.9375 0l2.25 16.531235q0.84375 6.375 0.9375 8.9375q1.75 -5.09375 4.8125 -10.75l7.9375 -14.718735l9.5 0l-20.5 36.437485q-2.53125 4.53125 -3.984375 6.34375q-1.453125 1.8125 -3.5 2.84375q-2.046875 1.03125 -4.921875 1.03125q-2.84375 0 -6.40625 -1.0l0.78125 -6.6875q1.625 0.46875 3.15625 0.46875q4.125 0 6.78125 -6.25l-5.78125 -33.187485zm32.5 24.531235l8.875 0l-1.8125 8.65625l-8.875 0l1.8125 -8.65625z" fill-rule="nonzero"/></g></svg>