<svg version="1.1" viewBox="0.0 0.0 960.0 540.0" fill="none" stroke="none" stroke-linecap="square" stroke-miterlimit="10" xmlns:xlink="http://www.w3.org/1999/xlink" xmlns="http://www.w3.org/2000/svg"><clipPath id="p4.0"><path d="m0 0l960.0 0l0 540.0l-960.0 0l0 -540.0z" clip-rule="nonzero"/></clipPath><g clip-path="url(#p4.0)"><path fill="#ffffff" d="m0 0l960.0 0l0 540.0l-960.0 0z" fill-rule="evenodd"/><path fill="#000000" fill-opacity="0.0" d="m216.0 240.0l4.006302 0l0 1.3228302l-4.006302 0z" fill-rule="evenodd"/><path fill="#000000" fill-opacity="0.0" d="m164.0315 187.9937l631.937 0l0 105.335434l-631.937 0z" fill-rule="evenodd"/><path fill="#000000" d="m189.96521 232.8337l0 -26.71875l5.390625 0l0 10.515625l10.578125 0l0 -10.515625l5.390625 0l0 26.71875l-5.390625 0l0 -11.6875l-10.578125 0l0 11.6875l-5.390625 0zm25.722809 -9.953125q0 -2.546875 1.25 -4.9375q1.265625 -2.390625 3.5625 -3.640625q2.3125 -1.265625 5.15625 -1.265625q4.390625 0 7.1875 2.859375q2.8125 2.84375 2.8125 7.203125q0 4.390625 -2.84375 7.28125q-2.828125 2.890625 -7.125 2.890625q-2.65625 0 -5.078125 -1.203125q-2.40625 -1.203125 -3.671875 -3.515625q-1.25 -2.328125 -1.25 -5.671875zm5.25 0.28125q0 2.875 1.359375 4.40625q1.375 1.53125 3.375 1.53125q2.0 0 3.359375 -1.53125q1.359375 -1.53125 1.359375 -4.453125q0 -2.84375 -1.359375 -4.375q-1.359375 -1.53125 -3.359375 -1.53125q-2.0 0 -3.375 1.53125q-1.359375 1.53125 -1.359375 4.421875zm22.332764 9.671875l-6.125 -19.359375l4.984375 0l3.625 12.6875l3.34375 -12.6875l4.9375 0l3.21875 12.6875l3.703125 -12.6875l5.046875 0l-6.21875 19.359375l-4.921875 0l-3.328125 -12.453125l-3.28125 12.453125l-4.984375 0zm52.687225 -13.640625l-5.046875 0.921875q-0.265625 -1.515625 -1.171875 -2.28125q-0.890625 -0.765625 -2.328125 -0.765625q-1.921875 0 -3.0625 1.328125q-1.140625 1.3125 -1.140625 4.40625q0 3.453125 1.15625 4.875q1.15625 1.421875 3.109375 1.421875q1.46875 0 2.390625 -0.828125q0.9375 -0.828125 1.3125 -2.859375l5.03125 0.859375q-0.78125 3.46875 -3.015625 5.234375q-2.21875 1.765625 -5.953125 1.765625q-4.25 0 -6.78125 -2.671875q-2.515625 -2.6875 -2.515625 -7.421875q0 -4.796875 2.53125 -7.46875q2.53125 -2.671875 6.859375 -2.671875q3.53125 0 5.609375 1.53125q2.09375 1.515625 3.015625 4.625zm7.697632 0.1875l-4.640625 -0.84375q0.78125 -2.796875 2.6875 -4.140625q1.921875 -1.359375 5.703125 -1.359375q3.421875 0 5.09375 0.8125q1.6875 0.8125 2.359375 2.0625q0.6875 1.25 0.6875 4.578125l-0.046875 5.984375q0 2.546875 0.234375 3.765625q0.25 1.203125 0.921875 2.59375l-5.0625 0q-0.203125 -0.515625 -0.5 -1.515625q-0.125 -0.453125 -0.171875 -0.59375q-1.3125 1.265625 -2.8125 1.90625q-1.5 0.640625 -3.1875 0.640625q-2.984375 0 -4.71875 -1.625q-1.71875 -1.625 -1.71875 -4.09375q0 -1.640625 0.78125 -2.921875q0.78125 -1.296875 2.1875 -1.96875q1.421875 -0.6875 4.09375 -1.203125q3.578125 -0.671875 4.96875 -1.25l0 -0.515625q0 -1.484375 -0.734375 -2.109375q-0.71875 -0.625 -2.75 -0.625q-1.359375 0 -2.125 0.546875q-0.765625 0.53125 -1.25 1.875zm6.859375 4.15625q-0.984375 0.328125 -3.125 0.78125q-2.125 0.453125 -2.78125 0.890625q-1.0 0.71875 -1.0 1.8125q0 1.078125 0.796875 1.859375q0.8125 0.78125 2.046875 0.78125q1.390625 0 2.640625 -0.90625q0.9375 -0.703125 1.21875 -1.703125q0.203125 -0.65625 0.203125 -2.5l0 -1.015625zm27.682007 9.296875l-5.109375 0l0 -9.875q0 -3.140625 -0.328125 -4.0625q-0.328125 -0.921875 -1.078125 -1.421875q-0.734375 -0.515625 -1.765625 -0.515625q-1.34375 0 -2.40625 0.734375q-1.046875 0.71875 -1.4375 1.921875q-0.390625 1.203125 -0.390625 4.453125l0 8.765625l-5.125 0l0 -19.359375l4.765625 0l0 2.84375q2.53125 -3.28125 6.375 -3.28125q1.6875 0 3.09375 0.609375q1.40625 0.609375 2.125 1.5625q0.71875 0.953125 1.0 2.15625q0.28125 1.203125 0.28125 3.4375l0 12.03125zm15.56311 -26.71875l5.40625 0l0 14.46875q0 3.453125 0.203125 4.46875q0.34375 1.640625 1.640625 2.640625q1.3125 0.984375 3.5625 0.984375q2.296875 0 3.46875 -0.9375q1.171875 -0.9375 1.40625 -2.296875q0.234375 -1.375 0.234375 -4.546875l0 -14.78125l5.390625 0l0 14.03125q0 4.8125 -0.4375 6.796875q-0.4375 1.984375 -1.609375 3.359375q-1.171875 1.359375 -3.140625 2.171875q-1.96875 0.8125 -5.140625 0.8125q-3.828125 0 -5.8125 -0.875q-1.96875 -0.890625 -3.125 -2.296875q-1.140625 -1.421875 -1.515625 -2.96875q-0.53125 -2.296875 -0.53125 -6.78125l0 -14.25zm44.09781 16.890625l5.234375 1.65625q-1.203125 4.375 -4.0 6.5q-2.796875 2.125 -7.109375 2.125q-5.3125 0 -8.75 -3.625q-3.421875 -3.640625 -3.421875 -9.953125q0 -6.671875 3.4375 -10.359375q3.453125 -3.6875 9.0625 -3.6875q4.90625 0 7.96875 2.890625q1.828125 1.71875 2.734375 4.921875l-5.34375 1.28125q-0.46875 -2.078125 -1.96875 -3.28125q-1.5 -1.203125 -3.65625 -1.203125q-2.96875 0 -4.828125 2.140625q-1.84375 2.125 -1.84375 6.890625q0 5.078125 1.8125 7.234375q1.828125 2.140625 4.75 2.140625q2.15625 0 3.703125 -1.359375q1.546875 -1.375 2.21875 -4.3125zm8.644684 -0.125q0 -2.546875 1.25 -4.9375q1.265625 -2.390625 3.5625 -3.640625q2.3125 -1.265625 5.15625 -1.265625q4.390625 0 7.1875 2.859375q2.8125 2.84375 2.8125 7.203125q0 4.390625 -2.84375 7.28125q-2.828125 2.890625 -7.125 2.890625q-2.65625 0 -5.078125 -1.203125q-2.40625 -1.203125 -3.671875 -3.515625q-1.25 -2.328125 -1.25 -5.671875zm5.25 0.28125q0 2.875 1.359375 4.40625q1.375 1.53125 3.375 1.53125q2.0 0 3.359375 -1.53125q1.359375 -1.53125 1.359375 -4.453125q0 -2.84375 -1.359375 -4.375q-1.359375 -1.53125 -3.359375 -1.53125q-2.0 0 -3.375 1.53125q-1.359375 1.53125 -1.359375 4.421875zm36.332733 9.671875l-5.109375 0l0 -9.875q0 -3.140625 -0.328125 -4.0625q-0.328125 -0.921875 -1.078125 -1.421875q-0.734375 -0.515625 -1.765625 -0.515625q-1.34375 0 -2.40625 0.734375q-1.046875 0.71875 -1.4375 1.921875q-0.390625 1.203125 -0.390625 4.453125l0 8.765625l-5.125 0l0 -19.359375l4.765625 0l0 2.84375q2.53125 -3.28125 6.375 -3.28125q1.6875 0 3.09375 0.609375q1.40625 0.609375 2.125 1.5625q0.71875 0.953125 1.0 2.15625q0.28125 1.203125 0.28125 3.4375l0 12.03125zm22.801544 0l-5.109375 0l0 -9.875q0 -3.140625 -0.328125 -4.0625q-0.328125 -0.921875 -1.078125 -1.421875q-0.734375 -0.515625 -1.765625 -0.515625q-1.34375 0 -2.40625 0.734375q-1.046875 0.71875 -1.4375 1.921875q-0.390625 1.203125 -0.390625 4.453125l0 8.765625l-5.125 0l0 -19.359375l4.765625 0l0 2.84375q2.53125 -3.28125 6.375 -3.28125q1.6875 0 3.09375 0.609375q1.40625 0.609375 2.125 1.5625q0.71875 0.953125 1.0 2.15625q0.28125 1.203125 0.28125 3.4375l0 12.03125zm13.766235 -5.515625l5.140625 -0.796875q0.328125 1.5 1.328125 2.28125q1.0 0.765625 2.8125 0.765625q1.984375 0 2.984375 -0.71875q0.671875 -0.515625 0.671875 -1.375q0 -0.578125 -0.359375 -0.96875q-0.390625 -0.359375 -1.71875 -0.671875q-6.1875 -1.359375 -7.859375 -2.5q-2.296875 -1.5625 -2.296875 -4.359375q0 -2.515625 1.984375 -4.21875q2.0 -1.71875 6.171875 -1.71875q3.96875 0 5.90625 1.296875q1.9375 1.296875 2.65625 3.828125l-4.828125 0.890625q-0.3125 -1.125 -1.1875 -1.71875q-0.859375 -0.609375 -2.453125 -0.609375q-2.03125 0 -2.90625 0.5625q-0.578125 0.40625 -0.578125 1.03125q0 0.546875 0.515625 0.9375q0.6875 0.515625 4.78125 1.453125q4.09375 0.921875 5.71875 2.265625q1.59375 1.359375 1.59375 3.8125q0 2.65625 -2.21875 4.578125q-2.21875 1.90625 -6.578125 1.90625q-3.953125 0 -6.265625 -1.59375q-2.3125 -1.609375 -3.015625 -4.359375zm31.447632 -13.84375l0 4.078125l-3.5 0l0 7.8125q0 2.359375 0.09375 2.765625q0.09375 0.390625 0.453125 0.640625q0.359375 0.25 0.875 0.25q0.703125 0 2.046875 -0.484375l0.4375 3.96875q-1.78125 0.765625 -4.046875 0.765625q-1.375 0 -2.5 -0.453125q-1.109375 -0.46875 -1.625 -1.203125q-0.515625 -0.75 -0.71875 -2.0q-0.15625 -0.90625 -0.15625 -3.609375l0 -8.453125l-2.359375 0l0 -4.078125l2.359375 0l0 -3.84375l5.140625 -2.984375l0 6.828125l3.5 0zm16.289917 19.359375l0 -2.890625q-1.0625 1.546875 -2.78125 2.4375q-1.71875 0.890625 -3.640625 0.890625q-1.953125 0 -3.5 -0.859375q-1.546875 -0.859375 -2.25 -2.40625q-0.6875 -1.546875 -0.6875 -4.28125l0 -12.25l5.125 0l0 8.890625q0 4.09375 0.28125 5.015625q0.28125 0.921875 1.03125 1.453125q0.75 0.53125 1.90625 0.53125q1.3125 0 2.34375 -0.71875q1.046875 -0.71875 1.421875 -1.78125q0.390625 -1.0625 0.390625 -5.21875l0 -8.171875l5.109375 0l0 19.359375l-4.75 0zm27.817139 0l-4.765625 0l0 -2.84375q-1.1875 1.65625 -2.796875 2.46875q-1.609375 0.8125 -3.25 0.8125q-3.34375 0 -5.71875 -2.6875q-2.375 -2.6875 -2.375 -7.5q0 -4.921875 2.3125 -7.484375q2.3125 -2.5625 5.859375 -2.5625q3.234375 0 5.609375 2.703125l0 -9.625l5.125 0l0 26.71875zm-13.671875 -10.09375q0 3.09375 0.859375 4.484375q1.234375 2.0 3.453125 2.0q1.765625 0 3.0 -1.5q1.25 -1.5 1.25 -4.5q0 -3.328125 -1.203125 -4.796875q-1.203125 -1.46875 -3.078125 -1.46875q-1.828125 0 -3.0625 1.453125q-1.21875 1.4375 -1.21875 4.328125zm29.926514 3.9375l5.09375 0.859375q-0.96875 2.796875 -3.09375 4.265625q-2.125 1.46875 -5.3125 1.46875q-5.0625 0 -7.484375 -3.296875q-1.90625 -2.640625 -1.90625 -6.671875q0 -4.8125 2.515625 -7.53125q2.515625 -2.734375 6.359375 -2.734375q4.3125 0 6.8125 2.859375q2.5 2.84375 2.390625 8.734375l-12.828125 0q0.046875 2.28125 1.234375 3.546875q1.1875 1.265625 2.953125 1.265625q1.203125 0 2.015625 -0.65625q0.828125 -0.65625 1.25 -2.109375zm0.296875 -5.1875q-0.0625 -2.21875 -1.15625 -3.375q-1.09375 -1.15625 -2.65625 -1.15625q-1.6875 0 -2.78125 1.21875q-1.09375 1.21875 -1.0625 3.3125l7.65625 0zm26.853882 11.34375l-5.109375 0l0 -9.875q0 -3.140625 -0.328125 -4.0625q-0.328125 -0.921875 -1.078125 -1.421875q-0.734375 -0.515625 -1.765625 -0.515625q-1.34375 0 -2.40625 0.734375q-1.046875 0.71875 -1.4375 1.921875q-0.390625 1.203125 -0.390625 4.453125l0 8.765625l-5.125 0l0 -19.359375l4.765625 0l0 2.84375q2.53125 -3.28125 6.375 -3.28125q1.6875 0 3.09375 0.609375q1.40625 0.609375 2.125 1.5625q0.71875 0.953125 1.0 2.15625q0.28125 1.203125 0.28125 3.4375l0 12.03125zm14.082764 -19.359375l0 4.078125l-3.5 0l0 7.8125q0 2.359375 0.09375 2.765625q0.09375 0.390625 0.453125 0.640625q0.359375 0.25 0.875 0.25q0.703125 0 2.046875 -0.484375l0.4375 3.96875q-1.78125 0.765625 -4.046875 0.765625q-1.375 0 -2.5 -0.453125q-1.109375 -0.46875 -1.625 -1.203125q-0.515625 -0.75 -0.71875 -2.0q-0.15625 -0.90625 -0.15625 -3.609375l0 -8.453125l-2.359375 0l0 -4.078125l2.359375 0l0 -3.84375l5.140625 -2.984375l0 6.828125l3.5 0zm1.743042 13.84375l5.140625 -0.796875q0.328125 1.5 1.328125 2.28125q1.0 0.765625 2.8125 0.765625q1.984375 0 2.984375 -0.71875q0.671875 -0.515625 0.671875 -1.375q0 -0.578125 -0.359375 -0.96875q-0.390625 -0.359375 -1.71875 -0.671875q-6.1875 -1.359375 -7.859375 -2.5q-2.296875 -1.5625 -2.296875 -4.359375q0 -2.515625 1.984375 -4.21875q2.0 -1.71875 6.171875 -1.71875q3.96875 0 5.90625 1.296875q1.9375 1.296875 2.65625 3.828125l-4.828125 0.890625q-0.3125 -1.125 -1.1875 -1.71875q-0.859375 -0.609375 -2.453125 -0.609375q-2.03125 0 -2.90625 0.5625q-0.578125 0.40625 -0.578125 1.03125q0 0.546875 0.515625 0.9375q0.6875 0.515625 4.78125 1.453125q4.09375 0.921875 5.71875 2.265625q1.59375 1.359375 1.59375 3.8125q0 2.65625 -2.21875 4.578125q-2.21875 1.90625 -6.578125 1.90625q-3.953125 0 -6.265625 -1.59375q-2.3125 -1.609375 -3.015625 -4.359375zm32.70923 5.515625l0 -26.71875l5.125 0l0 9.625q2.375 -2.703125 5.625 -2.703125q3.53125 0 5.84375 2.5625q2.3125 2.5625 2.3125 7.359375q0 4.953125 -2.359375 7.640625q-2.359375 2.671875 -5.734375 2.671875q-1.65625 0 -3.265625 -0.828125q-1.609375 -0.828125 -2.78125 -2.453125l0 2.84375l-4.765625 0zm5.09375 -10.09375q0 3.0 0.953125 4.4375q1.328125 2.046875 3.53125 2.046875q1.6875 0 2.875 -1.4375q1.203125 -1.453125 1.203125 -4.578125q0 -3.3125 -1.203125 -4.78125q-1.203125 -1.46875 -3.078125 -1.46875q-1.84375 0 -3.0625 1.4375q-1.21875 1.421875 -1.21875 4.34375zm29.145264 3.9375l5.09375 0.859375q-0.96875 2.796875 -3.09375 4.265625q-2.125 1.46875 -5.3125 1.46875q-5.0625 0 -7.484375 -3.296875q-1.90625 -2.640625 -1.90625 -6.671875q0 -4.8125 2.515625 -7.53125q2.515625 -2.734375 6.359375 -2.734375q4.3125 0 6.8125 2.859375q2.5 2.84375 2.390625 8.734375l-12.828125 0q0.046875 2.28125 1.234375 3.546875q1.1875 1.265625 2.953125 1.265625q1.203125 0 2.015625 -0.65625q0.828125 -0.65625 1.25 -2.109375zm0.296875 -5.1875q-0.0625 -2.21875 -1.15625 -3.375q-1.09375 -1.15625 -2.65625 -1.15625q-1.6875 0 -2.78125 1.21875q-1.09375 1.21875 -1.0625 3.3125l7.65625 0zm26.135132 -2.296875l-5.046875 0.921875q-0.265625 -1.515625 -1.171875 -2.28125q-0.890625 -0.765625 -2.328125 -0.765625q-1.921875 0 -3.0625 1.328125q-1.140625 1.3125 -1.140625 4.40625q0 3.453125 1.15625 4.875q1.15625 1.421875 3.109375 1.421875q1.46875 0 2.390625 -0.828125q0.9375 -0.828125 1.3125 -2.859375l5.03125 0.859375q-0.78125 3.46875 -3.015625 5.234375q-2.21875 1.765625 -5.953125 1.765625q-4.25 0 -6.78125 -2.671875q-2.515625 -2.6875 -2.515625 -7.421875q0 -4.796875 2.53125 -7.46875q2.53125 -2.671875 6.859375 -2.671875q3.53125 0 5.609375 1.53125q2.09375 1.515625 3.015625 4.625zm2.6976318 3.6875q0 -2.546875 1.25 -4.9375q1.265625 -2.390625 3.5625 -3.640625q2.3125 -1.265625 5.15625 -1.265625q4.390625 0 7.1875 2.859375q2.8125 2.84375 2.8125 7.203125q0 4.390625 -2.84375 7.28125q-2.828125 2.890625 -7.125 2.890625q-2.65625 0 -5.078125 -1.203125q-2.40625 -1.203125 -3.671875 -3.515625q-1.25 -2.328125 -1.25 -5.671875zm5.25 0.28125q0 2.875 1.359375 4.40625q1.375 1.53125 3.375 1.53125q2.0 0 3.359375 -1.53125q1.359375 -1.53125 1.359375 -4.453125q0 -2.84375 -1.359375 -4.375q-1.359375 -1.53125 -3.359375 -1.53125q-2.0 0 -3.375 1.53125q-1.359375 1.53125 -1.359375 4.421875zm18.348389 -9.6875l4.71875 0l0 2.640625q2.53125 -3.078125 6.03125 -3.078125q1.859375 0 3.21875 0.765625q1.375 0.765625 2.25 2.3125q1.28125 -1.546875 2.75 -2.3125q1.484375 -0.765625 3.15625 -0.765625q2.140625 0 3.609375 0.875q1.484375 0.859375 2.203125 2.53125q0.53125 1.25 0.53125 4.015625l0 12.375l-5.125 0l0 -11.0625q0 -2.875 -0.53125 -3.71875q-0.703125 -1.09375 -2.1875 -1.09375q-1.0625 0 -2.015625 0.65625q-0.953125 0.65625 -1.375 1.921875q-0.40625 1.265625 -0.40625 4.0l0 9.296875l-5.125 0l0 -10.609375q0 -2.828125 -0.28125 -3.640625q-0.265625 -0.828125 -0.84375 -1.21875q-0.578125 -0.40625 -1.5625 -0.40625q-1.171875 0 -2.125 0.640625q-0.953125 0.640625 -1.359375 1.84375q-0.40625 1.203125 -0.40625 3.984375l0 9.40625l-5.125 0l0 -19.359375zm44.784424 13.203125l5.09375 0.859375q-0.96875 2.796875 -3.09375 4.265625q-2.125 1.46875 -5.3125 1.46875q-5.0625 0 -7.484375 -3.296875q-1.90625 -2.640625 -1.90625 -6.671875q0 -4.8125 2.515625 -7.53125q2.515625 -2.734375 6.359375 -2.734375q4.3125 0 6.8125 2.859375q2.5 2.84375 2.390625 8.734375l-12.828125 0q0.046875 2.28125 1.234375 3.546875q1.1875 1.265625 2.953125 1.265625q1.203125 0 2.015625 -0.65625q0.828125 -0.65625 1.25 -2.109375zm0.296875 -5.1875q-0.0625 -2.21875 -1.15625 -3.375q-1.09375 -1.15625 -2.65625 -1.15625q-1.6875 0 -2.78125 1.21875q-1.09375 1.21875 -1.0625 3.3125l7.65625 0z" fill-rule="nonzero"/><path fill="#000000" d="m324.25635 278.91495l5.859375 0.703125q0.140625 1.015625 0.671875 1.40625q0.71875 0.546875 2.296875 0.546875q2.0 0 3.0 -0.609375q0.671875 -0.390625 1.03125 -1.28125q0.234375 -0.640625 0.234375 -2.359375l0 -2.828125q-2.296875 3.140625 -5.796875 3.140625q-3.90625 0 -6.1875 -3.296875q-1.78125 -2.609375 -1.78125 -6.484375q0 -4.875 2.34375 -7.4375q2.34375 -2.578125 5.828125 -2.578125q3.578125 0 5.921875 3.15625l0 -2.71875l4.78125 0l0 17.375q0 3.421875 -0.5625 5.109375q-0.5625 1.703125 -1.578125 2.671875q-1.015625 0.96875 -2.734375 1.515625q-1.703125 0.546875 -4.296875 0.546875q-4.921875 0 -6.984375 -1.6875q-2.0625 -1.6875 -2.0625 -4.28125q0 -0.25 0.015625 -0.609375zm4.578125 -11.359375q0 3.078125 1.1875 4.515625q1.203125 1.421875 2.953125 1.421875q1.875 0 3.171875 -1.46875q1.296875 -1.46875 1.296875 -4.34375q0 -3.0 -1.25 -4.453125q-1.234375 -1.46875 -3.125 -1.46875q-1.84375 0 -3.046875 1.4375q-1.1875 1.421875 -1.1875 4.359375zm18.692139 10.078125l0 -26.71875l5.125 0l0 26.71875l-5.125 0zm9.199097 -9.953125q0 -2.546875 1.25 -4.9375q1.265625 -2.390625 3.5625 -3.640625q2.3125 -1.265625 5.15625 -1.265625q4.390625 0 7.1875 2.859375q2.8125 2.84375 2.8125 7.203125q0 4.390625 -2.84375 7.28125q-2.828125 2.890625 -7.125 2.890625q-2.65625 0 -5.078125 -1.203125q-2.40625 -1.203125 -3.671875 -3.515625q-1.25 -2.328125 -1.25 -5.671875zm5.25 0.28125q0 2.875 1.359375 4.40625q1.375 1.53125 3.375 1.53125q2.0 0 3.359375 -1.53125q1.359375 -1.53125 1.359375 -4.453125q0 -2.84375 -1.359375 -4.375q-1.359375 -1.53125 -3.359375 -1.53125q-2.0 0 -3.375 1.53125q-1.359375 1.53125 -1.359375 4.421875zm18.504639 9.671875l0 -26.71875l5.125 0l0 9.625q2.375 -2.703125 5.625 -2.703125q3.53125 0 5.84375 2.5625q2.3125 2.5625 2.3125 7.359375q0 4.953125 -2.359375 7.640625q-2.359375 2.671875 -5.734375 2.671875q-1.65625 0 -3.265625 -0.828125q-1.609375 -0.828125 -2.78125 -2.453125l0 2.84375l-4.765625 0zm5.09375 -10.09375q0 3.0 0.953125 4.4375q1.328125 2.046875 3.53125 2.046875q1.6875 0 2.875 -1.4375q1.203125 -1.453125 1.203125 -4.578125q0 -3.3125 -1.203125 -4.78125q-1.203125 -1.46875 -3.078125 -1.46875q-1.84375 0 -3.0625 1.4375q-1.21875 1.421875 -1.21875 4.34375zm21.754639 -3.359375l-4.640625 -0.84375q0.78125 -2.796875 2.6875 -4.140625q1.921875 -1.359375 5.703125 -1.359375q3.421875 0 5.09375 0.8125q1.6875 0.8125 2.359375 2.0625q0.6875 1.25 0.6875 4.578125l-0.046875 5.984375q0 2.546875 0.234375 3.765625q0.25 1.203125 0.921875 2.59375l-5.0625 0q-0.203125 -0.515625 -0.5 -1.515625q-0.125 -0.453125 -0.171875 -0.59375q-1.3125 1.265625 -2.8125 1.90625q-1.5 0.640625 -3.1875 0.640625q-2.984375 0 -4.71875 -1.625q-1.71875 -1.625 -1.71875 -4.09375q0 -1.640625 0.78125 -2.921875q0.78125 -1.296875 2.1875 -1.96875q1.421875 -0.6875 4.09375 -1.203125q3.578125 -0.671875 4.96875 -1.25l0 -0.515625q0 -1.484375 -0.734375 -2.109375q-0.71875 -0.625 -2.75 -0.625q-1.359375 0 -2.125 0.546875q-0.765625 0.53125 -1.25 1.875zm6.859375 4.15625q-0.984375 0.328125 -3.125 0.78125q-2.125 0.453125 -2.78125 0.890625q-1.0 0.71875 -1.0 1.8125q0 1.078125 0.796875 1.859375q0.8125 0.78125 2.046875 0.78125q1.390625 0 2.640625 -0.90625q0.9375 -0.703125 1.21875 -1.703125q0.203125 -0.65625 0.203125 -2.5l0 -1.015625zm10.072632 9.296875l0 -26.71875l5.125 0l0 26.71875l-5.125 0zm20.741882 -21.984375l0 -4.734375l5.125 0l0 4.734375l-5.125 0zm0 21.984375l0 -19.359375l5.125 0l0 19.359375l-5.125 0zm27.980347 0l-5.109375 0l0 -9.875q0 -3.140625 -0.328125 -4.0625q-0.328125 -0.921875 -1.078125 -1.421875q-0.734375 -0.515625 -1.765625 -0.515625q-1.34375 0 -2.40625 0.734375q-1.046875 0.71875 -1.4375 1.921875q-0.390625 1.203125 -0.390625 4.453125l0 8.765625l-5.125 0l0 -19.359375l4.765625 0l0 2.84375q2.53125 -3.28125 6.375 -3.28125q1.6875 0 3.09375 0.609375q1.40625 0.609375 2.125 1.5625q0.71875 0.953125 1.0 2.15625q0.28125 1.203125 0.28125 3.4375l0 12.03125zm22.801514 0l-5.109375 0l0 -9.875q0 -3.140625 -0.328125 -4.0625q-0.328125 -0.921875 -1.078125 -1.421875q-0.734375 -0.515625 -1.765625 -0.515625q-1.34375 0 -2.40625 0.734375q-1.046875 0.71875 -1.4375 1.921875q-0.390625 1.203125 -0.390625 4.453125l0 8.765625l-5.125 0l0 -19.359375l4.765625 0l0 2.84375q2.53125 -3.28125 6.375 -3.28125q1.6875 0 3.09375 0.609375q1.40625 0.609375 2.125 1.5625q0.71875 0.953125 1.0 2.15625q0.28125 1.203125 0.28125 3.4375l0 12.03125zm4.0202637 -9.953125q0 -2.546875 1.25 -4.9375q1.265625 -2.390625 3.5625 -3.640625q2.3125 -1.265625 5.15625 -1.265625q4.390625 0 7.1875 2.859375q2.8125 2.84375 2.8125 7.203125q0 4.390625 -2.84375 7.28125q-2.828125 2.890625 -7.125 2.890625q-2.65625 0 -5.078125 -1.203125q-2.40625 -1.203125 -3.671875 -3.515625q-1.25 -2.328125 -1.25 -5.671875zm5.25 0.28125q0 2.875 1.359375 4.40625q1.375 1.53125 3.375 1.53125q2.0 0 3.359375 -1.53125q1.359375 -1.53125 1.359375 -4.453125q0 -2.84375 -1.359375 -4.375q-1.359375 -1.53125 -3.359375 -1.53125q-2.0 0 -3.375 1.53125q-1.359375 1.53125 -1.359375 4.421875zm24.051514 9.671875l-7.796875 -19.359375l5.375 0l3.640625 9.875l1.0625 3.3125q0.421875 -1.265625 0.53125 -1.671875q0.25 -0.8125 0.546875 -1.640625l3.671875 -9.875l5.265625 0l-7.6875 19.359375l-4.609375 0zm19.260132 -13.453125l-4.640625 -0.84375q0.78125 -2.796875 2.6875 -4.140625q1.921875 -1.359375 5.703125 -1.359375q3.421875 0 5.09375 0.8125q1.6875 0.8125 2.359375 2.0625q0.6875 1.25 0.6875 4.578125l-0.046875 5.984375q0 2.546875 0.234375 3.765625q0.25 1.203125 0.921875 2.59375l-5.0625 0q-0.203125 -0.515625 -0.5 -1.515625q-0.125 -0.453125 -0.171875 -0.59375q-1.3125 1.265625 -2.8125 1.90625q-1.5 0.640625 -3.1875 0.640625q-2.984375 0 -4.71875 -1.625q-1.71875 -1.625 -1.71875 -4.09375q0 -1.640625 0.78125 -2.921875q0.78125 -1.296875 2.1875 -1.96875q1.421875 -0.6875 4.09375 -1.203125q3.578125 -0.671875 4.96875 -1.25l0 -0.515625q0 -1.484375 -0.734375 -2.109375q-0.71875 -0.625 -2.75 -0.625q-1.359375 0 -2.125 0.546875q-0.765625 0.53125 -1.25 1.875zm6.859375 4.15625q-0.984375 0.328125 -3.125 0.78125q-2.125 0.453125 -2.78125 0.890625q-1.0 0.71875 -1.0 1.8125q0 1.078125 0.796875 1.859375q0.8125 0.78125 2.046875 0.78125q1.390625 0 2.640625 -0.90625q0.9375 -0.703125 1.21875 -1.703125q0.203125 -0.65625 0.203125 -2.5l0 -1.015625zm18.963257 -10.0625l0 4.078125l-3.5 0l0 7.8125q0 2.359375 0.09375 2.765625q0.09375 0.390625 0.453125 0.640625q0.359375 0.25 0.875 0.25q0.703125 0 2.046875 -0.484375l0.4375 3.96875q-1.78125 0.765625 -4.046875 0.765625q-1.375 0 -2.5 -0.453125q-1.109375 -0.46875 -1.625 -1.203125q-0.515625 -0.75 -0.71875 -2.0q-0.15625 -0.90625 -0.15625 -3.609375l0 -8.453125l-2.359375 0l0 -4.078125l2.359375 0l0 -3.84375l5.140625 -2.984375l0 6.828125l3.5 0zm2.368042 9.40625q0 -2.546875 1.25 -4.9375q1.265625 -2.390625 3.5625 -3.640625q2.3125 -1.265625 5.15625 -1.265625q4.390625 0 7.1875 2.859375q2.8125 2.84375 2.8125 7.203125q0 4.390625 -2.84375 7.28125q-2.828125 2.890625 -7.125 2.890625q-2.65625 0 -5.078125 -1.203125q-2.40625 -1.203125 -3.671875 -3.515625q-1.25 -2.328125 -1.25 -5.671875zm5.25 0.28125q0 2.875 1.359375 4.40625q1.375 1.53125 3.375 1.53125q2.0 0 3.359375 -1.53125q1.359375 -1.53125 1.359375 -4.453125q0 -2.84375 -1.359375 -4.375q-1.359375 -1.53125 -3.359375 -1.53125q-2.0 0 -3.375 1.53125q-1.359375 1.53125 -1.359375 4.421875zm23.629639 9.671875l-5.125 0l0 -19.359375l4.765625 0l0 2.75q1.21875 -1.953125 2.1875 -2.5625q0.984375 -0.625 2.21875 -0.625q1.75 0 3.375 0.96875l-1.578125 4.46875q-1.296875 -0.84375 -2.40625 -0.84375q-1.078125 0 -1.828125 0.59375q-0.75 0.59375 -1.1875 2.140625q-0.421875 1.546875 -0.421875 6.484375l0 5.984375zm7.8234863 -5.515625l5.140625 -0.796875q0.328125 1.5 1.328125 2.28125q1.0 0.765625 2.8125 0.765625q1.984375 0 2.984375 -0.71875q0.671875 -0.515625 0.671875 -1.375q0 -0.578125 -0.359375 -0.96875q-0.390625 -0.359375 -1.71875 -0.671875q-6.1875 -1.359375 -7.859375 -2.5q-2.296875 -1.5625 -2.296875 -4.359375q0 -2.515625 1.984375 -4.21875q2.0 -1.71875 6.171875 -1.71875q3.96875 0 5.90625 1.296875q1.9375 1.296875 2.65625 3.828125l-4.828125 0.890625q-0.3125 -1.125 -1.1875 -1.71875q-0.859375 -0.609375 -2.453125 -0.609375q-2.03125 0 -2.90625 0.5625q-0.578125 0.40625 -0.578125 1.03125q0 0.546875 0.515625 0.9375q0.6875 0.515625 4.78125 1.453125q4.09375 0.921875 5.71875 2.265625q1.59375 1.359375 1.59375 3.8125q0 2.65625 -2.21875 4.578125q-2.21875 1.90625 -6.578125 1.90625q-3.953125 0 -6.265625 -1.59375q-2.3125 -1.609375 -3.015625 -4.359375zm33.57263 -1.375l-4.640625 0q-0.03125 -1.0 -0.03125 -1.21875q0 -2.265625 0.75 -3.71875q0.75 -1.453125 2.984375 -3.28125q2.25 -1.828125 2.6875 -2.390625q0.671875 -0.890625 0.671875 -1.96875q0 -1.484375 -1.203125 -2.546875q-1.1875 -1.078125 -3.203125 -1.078125q-1.953125 0 -3.265625 1.109375q-1.3125 1.109375 -1.796875 3.390625l-4.703125 -0.578125q0.1875 -3.265625 2.765625 -5.546875q2.59375 -2.28125 6.78125 -2.28125q4.40625 0 7.015625 2.3125q2.609375 2.3125 2.609375 5.375q0 1.6875 -0.96875 3.203125q-0.953125 1.515625 -4.078125 4.109375q-1.625 1.359375 -2.015625 2.1875q-0.390625 0.8125 -0.359375 2.921875zm-4.640625 6.890625l0 -5.125l5.109375 0l0 5.125l-5.109375 0z" fill-rule="nonzero"/></g></svg>