<svg version="1.1" viewBox="0.0 0.0 960.0 540.0" fill="none" stroke="none" stroke-linecap="square" stroke-miterlimit="10" xmlns:xlink="http://www.w3.org/1999/xlink" xmlns="http://www.w3.org/2000/svg"><clipPath id="p5.0"><path d="m0 0l960.0 0l0 540.0l-960.0 0l0 -540.0z" clip-rule="nonzero"/></clipPath><g clip-path="url(#p5.0)"><path fill="#000000" d="m0 0l960.0 0l0 540.0l-960.0 0z" fill-rule="evenodd"/><path fill="#000000" fill-opacity="0.0" d="m126.1799 0l701.48035 0l0 98.89764l-701.48035 0z" fill-rule="evenodd"/><path fill="#ffffff" d="m153.68567 72.48882l-10.9375 -45.8125l9.46875 0l6.90625 31.46875l8.375 -31.46875l11.0 0l8.03125 32.0l7.03125 -32.0l9.3125 0l-11.125 45.8125l-9.8125 0l-9.125 -34.25l-9.09375 34.25l-10.03125 0zm62.59375 -45.8125l0 16.84375q4.25 -4.96875 10.15625 -4.96875q3.03125 0 5.46875 1.125q2.4375 1.125 3.671875 2.875q1.234375 1.75 1.6875 3.875q0.453125 2.125 0.453125 6.59375l0 19.46875l-8.78125 0l0 -17.53125q0 -5.21875 -0.5 -6.625q-0.5 -1.40625 -1.765625 -2.234375q-1.265625 -0.828125 -3.171875 -0.828125q-2.1875 0 -3.90625 1.0625q-1.71875 1.0625 -2.515625 3.203125q-0.796875 2.140625 -0.796875 6.328125l0 16.625l-8.78125 0l0 -45.8125l8.78125 0zm36.90625 22.75l-7.96875 -1.4375q1.34375 -4.8125 4.625 -7.125q3.28125 -2.3125 9.75 -2.3125q5.875 0 8.75 1.390625q2.875 1.390625 4.046875 3.53125q1.171875 2.140625 1.171875 7.859375l-0.09375 10.25q0 4.375 0.421875 6.453125q0.421875 2.078125 1.578125 4.453125l-8.6875 0q-0.34375 -0.875 -0.84375 -2.59375q-0.21875 -0.78125 -0.3125 -1.03125q-2.25 2.1875 -4.8125 3.28125q-2.5625 1.09375 -5.46875 1.09375q-5.125 0 -8.078125 -2.78125q-2.953125 -2.78125 -2.953125 -7.03125q0 -2.8125 1.34375 -5.015625q1.34375 -2.203125 3.765625 -3.375q2.421875 -1.171875 6.984375 -2.046875q6.15625 -1.15625 8.53125 -2.15625l0 -0.875q0 -2.53125 -1.25 -3.609375q-1.25 -1.078125 -4.71875 -1.078125q-2.34375 0 -3.65625 0.921875q-1.3125 0.921875 -2.125 3.234375zm11.75 7.125q-1.6875 0.5625 -5.34375 1.34375q-3.65625 0.78125 -4.78125 1.53125q-1.71875 1.21875 -1.71875 3.09375q0 1.84375 1.375 3.1875q1.375 1.34375 3.5 1.34375q2.375 0 4.53125 -1.5625q1.59375 -1.1875 2.09375 -2.90625q0.34375 -1.125 0.34375 -4.28125l0 -1.75zm32.5 -17.25l0 7.0l-6.0 0l0 13.375q0 4.0625 0.171875 4.734375q0.171875 0.671875 0.78125 1.109375q0.609375 0.4375 1.484375 0.4375q1.21875 0 3.53125 -0.84375l0.75 6.8125q-3.0625 1.3125 -6.9375 1.3125q-2.375 0 -4.28125 -0.796875q-1.90625 -0.796875 -2.796875 -2.0625q-0.890625 -1.265625 -1.234375 -3.421875q-0.28125 -1.53125 -0.28125 -6.1875l0 -14.46875l-4.03125 0l0 -7.0l4.03125 0l0 -6.59375l8.8125 -5.125l0 11.71875l6.0 0zm23.875 -4.5l0 -8.125l8.78125 0l0 8.125l-8.78125 0zm0 37.6875l0 -33.1875l8.78125 0l0 33.1875l-8.78125 0zm14.6875 -9.46875l8.8125 -1.34375q0.5625 2.5625 2.28125 3.890625q1.71875 1.328125 4.8125 1.328125q3.40625 0 5.125 -1.25q1.15625 -0.875 1.15625 -2.34375q0 -1.0 -0.625 -1.65625q-0.65625 -0.625 -2.9375 -1.15625q-10.625 -2.34375 -13.46875 -4.28125q-3.9375 -2.6875 -3.9375 -7.46875q0 -4.3125 3.40625 -7.25q3.40625 -2.9375 10.5625 -2.9375q6.8125 0 10.125 2.21875q3.3125 2.21875 4.5625 6.5625l-8.28125 1.53125q-0.53125 -1.9375 -2.015625 -2.96875q-1.484375 -1.03125 -4.234375 -1.03125q-3.46875 0 -4.96875 0.96875q-1.0 0.6875 -1.0 1.78125q0 0.9375 0.875 1.59375q1.1875 0.875 8.203125 2.46875q7.015625 1.59375 9.796875 3.90625q2.75 2.34375 2.75 6.53125q0 4.5625 -3.8125 7.84375q-3.8125 3.28125 -11.28125 3.28125q-6.78125 0 -10.734375 -2.75q-3.953125 -2.75 -5.171875 -7.46875zm63.03125 -13.59375l-7.96875 -1.4375q1.34375 -4.8125 4.625 -7.125q3.28125 -2.3125 9.75 -2.3125q5.875 0 8.75 1.390625q2.875 1.390625 4.046875 3.53125q1.171875 2.140625 1.171875 7.859375l-0.09375 10.25q0 4.375 0.421875 6.453125q0.421875 2.078125 1.578125 4.453125l-8.6875 0q-0.34375 -0.875 -0.84375 -2.59375q-0.21875 -0.78125 -0.3125 -1.03125q-2.25 2.1875 -4.8125 3.28125q-2.5625 1.09375 -5.46875 1.09375q-5.125 0 -8.078125 -2.78125q-2.953125 -2.78125 -2.953125 -7.03125q0 -2.8125 1.34375 -5.015625q1.34375 -2.203125 3.765625 -3.375q2.421875 -1.171875 6.984375 -2.046875q6.15625 -1.15625 8.53125 -2.15625l0 -0.875q0 -2.53125 -1.25 -3.609375q-1.25 -1.078125 -4.71875 -1.078125q-2.34375 0 -3.65625 0.921875q-1.3125 0.921875 -2.125 3.234375zm11.75 7.125q-1.6875 0.5625 -5.34375 1.34375q-3.65625 0.78125 -4.78125 1.53125q-1.71875 1.21875 -1.71875 3.09375q0 1.84375 1.375 3.1875q1.375 1.34375 3.5 1.34375q2.375 0 4.53125 -1.5625q1.59375 -1.1875 2.09375 -2.90625q0.34375 -1.125 0.34375 -4.28125l0 -1.75zm34.40625 -17.25l8.09375 0l0 4.53125q4.34375 -5.28125 10.34375 -5.28125q3.1875 0 5.53125 1.3125q2.34375 1.3125 3.84375 3.96875q2.1875 -2.65625 4.71875 -3.96875q2.53125 -1.3125 5.40625 -1.3125q3.65625 0 6.1875 1.484375q2.53125 1.484375 3.78125 4.359375q0.90625 2.125 0.90625 6.875l0 21.21875l-8.78125 0l0 -18.96875q0 -4.9375 -0.90625 -6.375q-1.21875 -1.875 -3.75 -1.875q-1.84375 0 -3.46875 1.125q-1.625 1.125 -2.34375 3.296875q-0.71875 2.171875 -0.71875 6.859375l0 15.9375l-8.78125 0l0 -18.1875q0 -4.84375 -0.46875 -6.25q-0.46875 -1.40625 -1.453125 -2.09375q-0.984375 -0.6875 -2.671875 -0.6875q-2.03125 0 -3.65625 1.09375q-1.625 1.09375 -2.328125 3.15625q-0.703125 2.0625 -0.703125 6.84375l0 16.125l-8.78125 0l0 -33.1875zm64.125 10.125l-7.96875 -1.4375q1.34375 -4.8125 4.625 -7.125q3.28125 -2.3125 9.75 -2.3125q5.875 0 8.75 1.390625q2.875 1.390625 4.046875 3.53125q1.171875 2.140625 1.171875 7.859375l-0.09375 10.25q0 4.375 0.421875 6.453125q0.421875 2.078125 1.578125 4.453125l-8.6875 0q-0.34375 -0.875 -0.84375 -2.59375q-0.21875 -0.78125 -0.3125 -1.03125q-2.25 2.1875 -4.8125 3.28125q-2.5625 1.09375 -5.46875 1.09375q-5.125 0 -8.078125 -2.78125q-2.953125 -2.78125 -2.953125 -7.03125q0 -2.8125 1.34375 -5.015625q1.34375 -2.203125 3.765625 -3.375q2.421875 -1.171875 6.984375 -2.046875q6.15625 -1.15625 8.53125 -2.15625l0 -0.875q0 -2.53125 -1.25 -3.609375q-1.25 -1.078125 -4.71875 -1.078125q-2.34375 0 -3.65625 0.921875q-1.3125 0.921875 -2.125 3.234375zm11.75 7.125q-1.6875 0.5625 -5.34375 1.34375q-3.65625 0.78125 -4.78125 1.53125q-1.71875 1.21875 -1.71875 3.09375q0 1.84375 1.375 3.1875q1.375 1.34375 3.5 1.34375q2.375 0 4.53125 -1.5625q1.59375 -1.1875 2.09375 -2.90625q0.34375 -1.125 0.34375 -4.28125l0 -1.75zm16.96875 15.9375l0 -45.8125l8.78125 0l0 24.3125l10.28125 -11.6875l10.8125 0l-11.34375 12.125l12.15625 21.0625l-9.46875 0l-8.34375 -14.90625l-4.09375 4.28125l0 10.625l-8.78125 0zm55.125 -10.5625l8.75 1.46875q-1.6875 4.8125 -5.328125 7.328125q-3.640625 2.515625 -9.109375 2.515625q-8.65625 0 -12.8125 -5.65625q-3.28125 -4.53125 -3.28125 -11.4375q0 -8.25 4.3125 -12.921875q4.3125 -4.671875 10.90625 -4.671875q7.40625 0 11.6875 4.890625q4.28125 4.890625 4.09375 14.984375l-22.0 0q0.09375 3.90625 2.125 6.078125q2.03125 2.171875 5.0625 2.171875q2.0625 0 3.46875 -1.125q1.40625 -1.125 2.125 -3.625zm0.5 -8.875q-0.09375 -3.8125 -1.96875 -5.796875q-1.875 -1.984375 -4.5625 -1.984375q-2.875 0 -4.75 2.09375q-1.875 2.09375 -1.84375 5.6875l13.125 0zm24.28125 19.4375l-8.78125 0l0 -33.1875l8.15625 0l0 4.71875q2.09375 -3.34375 3.765625 -4.40625q1.671875 -1.0625 3.796875 -1.0625q3.0 0 5.78125 1.65625l-2.71875 7.65625q-2.21875 -1.4375 -4.125 -1.4375q-1.84375 0 -3.125 1.015625q-1.28125 1.015625 -2.015625 3.671875q-0.734375 2.65625 -0.734375 11.125l0 10.25zm13.40625 -9.46875l8.812439 -1.34375q0.5625 2.5625 2.28125 3.890625q1.71875 1.328125 4.8125 1.328125q3.40625 0 5.125 -1.25q1.15625 -0.875 1.15625 -2.34375q0 -1.0 -0.625 -1.65625q-0.65625 -0.625 -2.9375 -1.15625q-10.625 -2.34375 -13.468689 -4.28125q-3.9375 -2.6875 -3.9375 -7.46875q0 -4.3125 3.40625 -7.25q3.406189 -2.9375 10.562439 -2.9375q6.8125 0 10.125 2.21875q3.3125 2.21875 4.5625 6.5625l-8.28125 1.53125q-0.53125 -1.9375 -2.015625 -2.96875q-1.484375 -1.03125 -4.234375 -1.03125q-3.46875 0 -4.96875 0.96875q-1.0 0.6875 -1.0 1.78125q0 0.9375 0.875 1.59375q1.1875 0.875 8.203125 2.46875q7.015625 1.59375 9.796875 3.90625q2.75 2.34375 2.75 6.53125q0 4.5625 -3.8125 7.84375q-3.8125 3.28125 -11.28125 3.28125q-6.78125 0 -10.734314 -2.75q-3.953125 -2.75 -5.171875 -7.46875zm38.43744 -23.71875l8.1875 0l0 4.875q1.59375 -2.5 4.3125 -4.0625q2.71875 -1.5625 6.03125 -1.5625q5.78125 0 9.8125 4.53125q4.03125 4.53125 4.03125 12.625q0 8.3125 -4.0625 12.921875q-4.0625 4.609375 -9.84375 4.609375q-2.75 0 -4.984375 -1.09375q-2.234375 -1.09375 -4.703125 -3.75l0 16.71875l-8.78125 0l0 -45.8125zm8.6875 16.03125q0 5.59375 2.21875 8.265625q2.21875 2.671875 5.40625 2.671875q3.0625 0 5.09375 -2.453125q2.03125 -2.453125 2.03125 -8.046875q0 -5.21875 -2.09375 -7.75q-2.09375 -2.53125 -5.1875 -2.53125q-3.21875 0 -5.34375 2.484375q-2.125 2.484375 -2.125 7.359375zm37.21875 -5.90625l-7.96875 -1.4375q1.34375 -4.8125 4.625 -7.125q3.28125 -2.3125 9.75 -2.3125q5.875 0 8.75 1.390625q2.875 1.390625 4.046875 3.53125q1.171875 2.140625 1.171875 7.859375l-0.09375 10.25q0 4.375 0.421875 6.453125q0.421875 2.078125 1.578125 4.453125l-8.6875 0q-0.34375 -0.875 -0.84375 -2.59375q-0.21875 -0.78125 -0.3125 -1.03125q-2.25 2.1875 -4.8125 3.28125q-2.5625 1.09375 -5.46875 1.09375q-5.125 0 -8.078125 -2.78125q-2.953125 -2.78125 -2.953125 -7.03125q0 -2.8125 1.34375 -5.015625q1.34375 -2.203125 3.765625 -3.375q2.421875 -1.171875 6.984375 -2.046875q6.15625 -1.15625 8.53125 -2.15625l0 -0.875q0 -2.53125 -1.25 -3.609375q-1.25 -1.078125 -4.71875 -1.078125q-2.34375 0 -3.65625 0.921875q-1.3125 0.921875 -2.125 3.234375zm11.75 7.125q-1.6875 0.5625 -5.34375 1.34375q-3.65625 0.78125 -4.78125 1.53125q-1.71875 1.21875 -1.71875 3.09375q0 1.84375 1.375 3.1875q1.375 1.34375 3.5 1.34375q2.375 0 4.53125 -1.5625q1.59375 -1.1875 2.09375 -2.90625q0.34375 -1.125 0.34375 -4.28125l0 -1.75zm46.21875 -7.4375l-8.65625 1.5625q-0.4375 -2.59375 -1.984375 -3.90625q-1.546875 -1.3125 -4.015625 -1.3125q-3.28125 0 -5.234375 2.265625q-1.953125 2.265625 -1.953125 7.578125q0 5.90625 1.984375 8.34375q1.984375 2.4375 5.328125 2.4375q2.5 0 4.09375 -1.421875q1.59375 -1.421875 2.25 -4.890625l8.625 1.46875q-1.34375 5.9375 -5.15625 8.96875q-3.8125 3.03125 -10.21875 3.03125q-7.28125 0 -11.609375 -4.59375q-4.328125 -4.59375 -4.328125 -12.71875q0 -8.21875 4.34375 -12.796875q4.34375 -4.578125 11.75 -4.578125q6.0625 0 9.640625 2.609375q3.578125 2.609375 5.140625 7.953125zm25.875 12.8125l8.75 1.46875q-1.6875 4.8125 -5.328125 7.328125q-3.640625 2.515625 -9.109375 2.515625q-8.65625 0 -12.8125 -5.65625q-3.28125 -4.53125 -3.28125 -11.4375q0 -8.25 4.3125 -12.921875q4.3125 -4.671875 10.90625 -4.671875q7.40625 0 11.6875 4.890625q4.28125 4.890625 4.09375 14.984375l-22.0 0q0.09375 3.90625 2.125 6.078125q2.03125 2.171875 5.0625 2.171875q2.0625 0 3.46875 -1.125q1.40625 -1.125 2.125 -3.625zm0.5 -8.875q-0.09375 -3.8125 -1.96875 -5.796875q-1.875 -1.984375 -4.5625 -1.984375q-2.875 0 -4.75 2.09375q-1.875 2.09375 -1.84375 5.6875l13.125 0z" fill-rule="nonzero"/></g></svg>