<svg version="1.1" viewBox="0.0 0.0 960.0 540.0" fill="none" stroke="none" stroke-linecap="square" stroke-miterlimit="10" xmlns:xlink="http://www.w3.org/1999/xlink" xmlns="http://www.w3.org/2000/svg"><clipPath id="p12.0"><path d="m0 0l960.0 0l0 540.0l-960.0 0l0 -540.0z" clip-rule="nonzero"/></clipPath><g clip-path="url(#p12.0)"><path fill="#ffffff" d="m0 0l960.0 0l0 540.0l-960.0 0z" fill-rule="evenodd"/><path fill="#000000" fill-opacity="0.0" d="m32.73071 78.16063l894.5386 0l0 215.50865l-894.5386 0z" fill-rule="evenodd"/><path fill="#000000" d="m219.9234 268.0293l-11.84375 -49.625015l10.265625 0l7.46875 34.09375l9.078125 -34.09375l11.921875 0l8.6875 34.65625l7.625 -34.65625l10.09375 0l-12.0625 49.625015l-10.625 0l-9.890625 -37.093765l-9.84375 37.093765l-10.875 0zm67.81018 -49.625015l0 18.25q4.609375 -5.390625 11.0 -5.390625q3.28125 0 5.921875 1.21875q2.640625 1.21875 3.96875 3.125q1.34375 1.890625 1.828125 4.1875q0.5 2.296875 0.5 7.140625l0 21.093765l-9.5 0l0 -18.98439q0 -5.65625 -0.546875 -7.171875q-0.546875 -1.53125 -1.921875 -2.421875q-1.359375 -0.90625 -3.421875 -0.90625q-2.375 0 -4.234375 1.15625q-1.859375 1.140625 -2.734375 3.46875q-0.859375 2.3125 -0.859375 6.84375l0 18.01564l-9.515625 0l0 -49.625015l9.515625 0zm39.97339 24.640625l-8.625 -1.5625q1.453125 -5.203125 5.0 -7.703125q3.5625 -2.515625 10.578125 -2.515625q6.359375 0 9.46875 1.515625q3.125 1.5 4.390625 3.828125q1.265625 2.3125 1.265625 8.5l-0.09375 11.10939q0 4.734375 0.453125 6.984375q0.453125 2.25 1.703125 4.828125l-9.40625 0q-0.375 -0.953125 -0.921875 -2.8125q-0.234375 -0.84375 -0.328125 -1.109375q-2.4375 2.359375 -5.21875 3.546875q-2.78125 1.1875 -5.921875 1.1875q-5.546875 0 -8.75 -3.015625q-3.203125 -3.015625 -3.203125 -7.609375q0 -3.0468903 1.453125 -5.4375153q1.453125 -2.390625 4.078125 -3.65625q2.625 -1.265625 7.578125 -2.21875q6.65625 -1.25 9.234375 -2.328125l0 -0.953125q0 -2.75 -1.359375 -3.90625q-1.34375 -1.171875 -5.109375 -1.171875q-2.53125 0 -3.953125 1.0q-1.421875 1.0 -2.3125 3.5zm12.734375 7.71875q-1.828125 0.609375 -5.796875 1.453125q-3.953125 0.84375 -5.171875 1.65625q-1.859375 1.328125 -1.859375 3.3593903q0 2.0 1.484375 3.453125q1.5 1.453125 3.796875 1.453125q2.578125 0 4.90625 -1.6875q1.734375 -1.296875 2.265625 -3.15625q0.375 -1.21875 0.375 -4.6406403l0 -1.890625zm35.213257 -18.6875l0 7.578125l-6.5 0l0 14.5q0 4.3906403 0.171875 5.1250153q0.1875 0.734375 0.84375 1.203125q0.671875 0.46875 1.625 0.46875q1.3125 0 3.8125 -0.90625l0.8125 7.375q-3.3125 1.421875 -7.515625 1.421875q-2.5625 0 -4.640625 -0.859375q-2.0625 -0.859375 -3.03125 -2.234375q-0.953125 -1.375 -1.328125 -3.703125q-0.296875 -1.671875 -0.296875 -6.7031403l0 -15.6875l-4.375 0l0 -7.578125l4.375 0l0 -7.140625l9.546875 -5.546875l0 12.6875l6.5 0zm25.848389 -13.671875l10.03125 0l0 26.875q0 6.40625 0.375 8.296875q0.640625 3.0468903 3.0625 4.8906403q2.421875 1.84375 6.609375 1.84375q4.265625 0 6.4375 -1.734375q2.171875 -1.75 2.609375 -4.2812653q0.4375 -2.546875 0.4375 -8.4375l0 -27.453125l10.015625 0l0 26.0625q0 8.9375 -0.8125 12.625015q-0.8125 3.6875 -3.0 6.234375q-2.171875 2.53125 -5.828125 4.046875q-3.65625 1.5 -9.546875 1.5q-7.109375 0 -10.78125 -1.640625q-3.671875 -1.640625 -5.8125 -4.265625q-2.125 -2.625 -2.8125 -5.5q-0.984375 -4.2656403 -0.984375 -12.593765l0 -26.46875zm81.894714 31.375l9.71875 3.078125q-2.234375 8.125015 -7.4375 12.07814q-5.1875 3.9375 -13.1875 3.9375q-9.875 0 -16.25 -6.75q-6.359375 -6.7500153 -6.359375 -18.468765q0 -12.390625 6.390625 -19.234375q6.40625 -6.859375 16.828125 -6.859375q9.109375 0 14.796875 5.375q3.390625 3.1875 5.078125 9.140625l-9.921875 2.375q-0.875 -3.859375 -3.671875 -6.09375q-2.78125 -2.234375 -6.78125 -2.234375q-5.515625 0 -8.953125 3.96875q-3.4375 3.953125 -3.4375 12.8125q0 9.421875 3.375 13.42189q3.390625 3.984375 8.8125 3.984375q4.0 0 6.875 -2.53125q2.875 -2.5468903 4.125 -8.000015zm16.050903 -0.234375q0 -4.734375 2.328125 -9.171875q2.34375 -4.4375 6.625 -6.765625q4.28125 -2.34375 9.5625 -2.34375q8.15625 0 13.359375 5.296875q5.21875 5.296875 5.21875 13.390625q0 8.156265 -5.265625 13.531265q-5.265625 5.359375 -13.25 5.359375q-4.9375 0 -9.421875 -2.234375q-4.484375 -2.234375 -6.828125 -6.546875q-2.328125 -4.3125153 -2.328125 -10.51564zm9.75 0.515625q0 5.34375 2.53125 8.187515q2.546875 2.84375 6.265625 2.84375q3.71875 0 6.234375 -2.84375q2.53125 -2.8437653 2.53125 -8.26564q0 -5.28125 -2.53125 -8.125q-2.515625 -2.84375 -6.234375 -2.84375q-3.71875 0 -6.265625 2.84375q-2.53125 2.84375 -2.53125 8.203125zm67.48901 17.968765l-9.5 0l0 -18.343765q0 -5.828125 -0.609375 -7.53125q-0.609375 -1.71875 -1.984375 -2.65625q-1.375 -0.953125 -3.296875 -0.953125q-2.484375 0 -4.453125 1.359375q-1.953125 1.34375 -2.6875 3.578125q-0.71875 2.234375 -0.71875 8.265625l0 16.281265l-9.515625 0l0 -35.95314l8.84375 0l0 5.28125q4.703125 -6.09375 11.84375 -6.09375q3.140625 0 5.75 1.140625q2.609375 1.125 3.9375 2.890625q1.34375 1.765625 1.859375 4.0q0.53125 2.234375 0.53125 6.390625l0 22.343765zm42.34839 0l-9.5 0l0 -18.343765q0 -5.828125 -0.609375 -7.53125q-0.609375 -1.71875 -1.984375 -2.65625q-1.375 -0.953125 -3.296875 -0.953125q-2.484375 0 -4.453125 1.359375q-1.953125 1.34375 -2.6875 3.578125q-0.71875 2.234375 -0.71875 8.265625l0 16.281265l-9.515625 0l0 -35.95314l8.84375 0l0 5.28125q4.703125 -6.09375 11.84375 -6.09375q3.140625 0 5.75 1.140625q2.609375 1.125 3.9375 2.890625q1.34375 1.765625 1.859375 4.0q0.53125 2.234375 0.53125 6.390625l0 22.343765zm29.016235 0l0 -49.625015l10.015625 0l0 19.53125l19.640625 0l0 -19.53125l10.015625 0l0 49.625015l-10.015625 0l0 -21.70314l-19.640625 0l0 21.70314l-10.015625 0zm57.06653 -24.98439l-8.625 -1.5625q1.453125 -5.203125 5.0 -7.703125q3.5625 -2.515625 10.578125 -2.515625q6.359375 0 9.46875 1.515625q3.125 1.5 4.390625 3.828125q1.265625 2.3125 1.265625 8.5l-0.09375 11.10939q0 4.734375 0.453125 6.984375q0.453125 2.25 1.703125 4.828125l-9.40625 0q-0.375 -0.953125 -0.921875 -2.8125q-0.234375 -0.84375 -0.328125 -1.109375q-2.4375 2.359375 -5.21875 3.546875q-2.78125 1.1875 -5.921875 1.1875q-5.546875 0 -8.75 -3.015625q-3.203125 -3.015625 -3.203125 -7.609375q0 -3.0468903 1.453125 -5.4375153q1.453125 -2.390625 4.078125 -3.65625q2.625 -1.265625 7.578125 -2.21875q6.65625 -1.25 9.234375 -2.328125l0 -0.953125q0 -2.75 -1.359375 -3.90625q-1.34375 -1.171875 -5.109375 -1.171875q-2.53125 0 -3.953125 1.0q-1.421875 1.0 -2.3125 3.5zm12.734375 7.71875q-1.828125 0.609375 -5.796875 1.453125q-3.953125 0.84375 -5.171875 1.65625q-1.859375 1.328125 -1.859375 3.3593903q0 2.0 1.484375 3.453125q1.5 1.453125 3.796875 1.453125q2.578125 0 4.90625 -1.6875q1.734375 -1.296875 2.265625 -3.15625q0.375 -1.21875 0.375 -4.6406403l0 -1.890625zm15.369568 7.0156403l9.546875 -1.46875q0.609375 2.78125 2.46875 4.21875q1.859375 1.4375 5.21875 1.4375q3.6875 0 5.546875 -1.34375q1.25 -0.953125 1.25 -2.546875q0 -1.078125 -0.671875 -1.796875q-0.71875 -0.67189026 -3.1875 -1.2500153q-11.5 -2.53125 -14.59375 -4.640625q-4.265625 -2.90625 -4.265625 -8.09375q0 -4.671875 3.6875 -7.84375q3.703125 -3.1875 11.453125 -3.1875q7.375 0 10.96875 2.40625q3.59375 2.40625 4.9375 7.109375l-8.96875 1.65625q-0.578125 -2.09375 -2.1875 -3.203125q-1.609375 -1.125 -4.578125 -1.125q-3.765625 0 -5.390625 1.046875q-1.078125 0.75 -1.078125 1.921875q0 1.015625 0.953125 1.734375q1.28125 0.953125 8.875 2.6875q7.609375 1.71875 10.625 4.21875q2.96875 2.53125 2.96875 7.0781403q0 4.9375 -4.125 8.5q-4.125 3.546875 -12.21875 3.546875q-7.34375 0 -11.640625 -2.96875q-4.28125 -2.984375 -5.59375 -8.09375z" fill-rule="nonzero"/><path fill="#000000" fill-opacity="0.0" d="m32.73071 297.5622l894.5386 0l0 83.22522l-894.5386 0z" fill-rule="evenodd"/></g></svg>