<svg version="1.1" viewBox="0.0 0.0 960.0 540.0" fill="none" stroke="none" stroke-linecap="square" stroke-miterlimit="10" xmlns:xlink="http://www.w3.org/1999/xlink" xmlns="http://www.w3.org/2000/svg"><clipPath id="p30.0"><path d="m0 0l960.0 0l0 540.0l-960.0 0l0 -540.0z" clip-rule="nonzero"/></clipPath><g clip-path="url(#p30.0)"><path fill="#ffffff" d="m0 0l960.0 0l0 540.0l-960.0 0z" fill-rule="evenodd"/><path fill="#000000" fill-opacity="0.0" d="m38.097637 55.256695l668.5228 0l0 429.4677l-668.5228 0z" fill-rule="evenodd"/><path fill="#000000" d="m62.066387 293.03055l0 -38.062485l-13.59375 0l0 -7.75l36.406254 0l0 7.75l-13.5625 0l0 38.062485l-9.250004 0zm37.468754 -45.812485l0 16.843735q4.25 -4.96875 10.15625 -4.96875q3.03125 0 5.46875 1.125q2.4375 1.125 3.671875 2.875q1.234375 1.75 1.6875 3.875q0.453125 2.125 0.453125 6.59375l0 19.46875l-8.78125 0l0 -17.53125q0 -5.21875 -0.5 -6.625q-0.5 -1.40625 -1.765625 -2.234375q-1.265625 -0.828125 -3.171875 -0.828125q-2.1875 0 -3.90625 1.0625q-1.71875 1.0625 -2.515625 3.203125q-0.796875 2.140625 -0.796875 6.328125l0 16.625l-8.78125 0l0 -45.812485l8.78125 0zm36.90625 22.749985l-7.96875 -1.4375q1.34375 -4.8125 4.625 -7.125q3.28125 -2.3125 9.75 -2.3125q5.875 0 8.75 1.390625q2.875 1.390625 4.046875 3.53125q1.171875 2.140625 1.171875 7.859375l-0.09375 10.25q0 4.375 0.421875 6.453125q0.421875 2.078125 1.578125 4.453125l-8.6875 0q-0.34375 -0.875 -0.84375 -2.59375q-0.21875 -0.78125 -0.3125 -1.03125q-2.25 2.1875 -4.8125 3.28125q-2.5625 1.09375 -5.46875 1.09375q-5.125 0 -8.078125 -2.78125q-2.953125 -2.78125 -2.953125 -7.03125q0 -2.8125 1.34375 -5.015625q1.34375 -2.203125 3.765625 -3.375q2.421875 -1.171875 6.984375 -2.046875q6.15625 -1.15625 8.53125 -2.15625l0 -0.875q0 -2.53125 -1.25 -3.609375q-1.25 -1.078125 -4.71875 -1.078125q-2.34375 0 -3.65625 0.921875q-1.3125 0.921875 -2.125 3.234375zm11.75 7.125q-1.6875 0.5625 -5.34375 1.34375q-3.65625 0.78125 -4.78125 1.53125q-1.71875 1.21875 -1.71875 3.09375q0 1.84375 1.375 3.1875q1.375 1.34375 3.5 1.34375q2.375 0 4.53125 -1.5625q1.59375 -1.1875 2.09375 -2.90625q0.34375 -1.125 0.34375 -4.28125l0 -1.75zm47.46875 15.9375l-8.78125 0l0 -16.9375q0 -5.375 -0.5625 -6.953125q-0.5625 -1.578125 -1.828125 -2.453125q-1.265625 -0.875 -3.046875 -0.875q-2.28125 0 -4.09375 1.25q-1.8125 1.25 -2.484375 3.3125q-0.671875 2.0625 -0.671875 7.625l0 15.03125l-8.78125 0l0 -33.1875l8.15625 0l0 4.875q4.34375 -5.625 10.9375 -5.625q2.90625 0 5.3125 1.046875q2.40625 1.046875 3.640625 2.671875q1.234375 1.625 1.71875 3.6875q0.484375 2.0625 0.484375 5.90625l0 20.625zm8.59375 0l0 -45.812485l8.78125 0l0 24.312485l10.28125 -11.6875l10.8125 0l-11.34375 12.125l12.15625 21.0625l-9.46875 0l-8.34375 -14.90625l-4.09375 4.28125l0 10.625l-8.78125 0zm49.53125 -33.1875l9.343735 0l7.9375 23.5625l7.75 -23.5625l9.09375 0l-11.71875 31.9375l-2.09375 5.78125q-1.15625 2.90625 -2.203125 4.4375q-1.046875 1.53125 -2.40625 2.484375q-1.359375 0.953125 -3.34375 1.484375q-1.984375 0.53125 -4.484375 0.53125q-2.53125 0 -4.96875 -0.53125l-0.78123474 -6.875q2.0624847 0.40625 3.7187347 0.40625q3.0625 0 4.53125 -1.796875q1.46875 -1.796875 2.25 -4.578125l-12.624985 -33.28125zm37.718735 16.125q0 -4.375 2.15625 -8.46875q2.15625 -4.09375 6.109375 -6.25q3.953125 -2.15625 8.828125 -2.15625q7.53125 0 12.34375 4.890625q4.8125 4.890625 4.8125 12.359375q0 7.53125 -4.859375 12.484375q-4.859375 4.953125 -12.234375 4.953125q-4.5625 0 -8.703125 -2.0625q-4.140625 -2.0625 -6.296875 -6.046875q-2.15625 -3.984375 -2.15625 -9.703125zm9.0 0.46875q0 4.9375 2.34375 7.5625q2.34375 2.625 5.78125 2.625q3.4375 0 5.765625 -2.625q2.328125 -2.625 2.328125 -7.625q0 -4.875 -2.328125 -7.5q-2.328125 -2.625 -5.765625 -2.625q-3.4375 0 -5.78125 2.625q-2.34375 2.625 -2.34375 7.5625zm53.96875 16.59375l0 -4.96875q-1.8125 2.65625 -4.765625 4.1875q-2.953125 1.53125 -6.234375 1.53125q-3.34375 0 -6.0 -1.46875q-2.65625 -1.46875 -3.84375 -4.125q-1.1875 -2.65625 -1.1875 -7.34375l0 -21.0l8.78125 0l0 15.25q0 7.0 0.484375 8.578125q0.484375 1.578125 1.765625 2.5q1.28125 0.921875 3.25 0.921875q2.25 0 4.03125 -1.234375q1.78125 -1.234375 2.4375 -3.0625q0.65625 -1.828125 0.65625 -8.953125l0 -14.0l8.78125 0l0 33.1875l-8.15625 0zm17.25 0l0 -8.78125l8.78125 0l0 8.78125l-8.78125 0z" fill-rule="nonzero"/></g></svg>