<?xml version="1.0" encoding="UTF-8" standalone="no"?>
<!-- Uploaded to: SVG Repo, www.svgrepo.com, Generator: SVG Repo Mixer Tools -->

<svg
   fill="#000000"
   width="300"
   height="250"
   viewBox="0 0 18.75 15.625"
   version="1.1"
   id="svg4"
   sodipodi:docname="sleepanalyzerlogo.svg"
   inkscape:version="1.2.2 (b0a8486541, 2022-12-01)"
   inkscape:export-filename="sleepanalyzerlogo.png"
   inkscape:export-xdpi="96"
   inkscape:export-ydpi="96"
   xmlns:inkscape="http://www.inkscape.org/namespaces/inkscape"
   xmlns:sodipodi="http://sodipodi.sourceforge.net/DTD/sodipodi-0.dtd"
   xmlns:xlink="http://www.w3.org/1999/xlink"
   xmlns="http://www.w3.org/2000/svg"
   xmlns:svg="http://www.w3.org/2000/svg">
  <defs
     id="defs8">
    <linearGradient
       inkscape:collect="always"
       id="linearGradient5053">
      <stop
         style="stop-color:#281ae6;stop-opacity:1;"
         offset="0"
         id="stop5049" />
      <stop
         style="stop-color:#281ae6;stop-opacity:1;"
         offset="0.1578065"
         id="stop5057" />
      <stop
         style="stop-color:#531ae6;stop-opacity:1;"
         offset="1"
         id="stop5051" />
    </linearGradient>
    <linearGradient
       id="linearGradient3014"
       inkscape:swatch="solid">
      <stop
         style="stop-color:#281ae6;stop-opacity:1;"
         offset="0"
         id="stop3012" />
    </linearGradient>
    <linearGradient
       inkscape:collect="always"
       xlink:href="#linearGradient5053"
       id="linearGradient5055"
       x1="6.4445993"
       y1="6.3236683"
       x2="24.779181"
       y2="6.3236683"
       gradientUnits="userSpaceOnUse"
       gradientTransform="matrix(0.74150404,0,0,0.74150404,3.361767,2.167631)" />
  </defs>
  <sodipodi:namedview
     id="namedview6"
     pagecolor="#505050"
     bordercolor="#eeeeee"
     borderopacity="1"
     inkscape:showpageshadow="0"
     inkscape:pageopacity="0"
     inkscape:pagecheckerboard="0"
     inkscape:deskcolor="#505050"
     showgrid="false"
     inkscape:zoom="2.5861588"
     inkscape:cx="149.06277"
     inkscape:cy="114.06879"
     inkscape:window-width="1904"
     inkscape:window-height="1115"
     inkscape:window-x="8"
     inkscape:window-y="40"
     inkscape:window-maximized="0"
     inkscape:current-layer="g2796"
     showguides="true" />
  <g
     id="g2796"
     transform="matrix(0.8511315,0,0,0.8511315,0.06168857,1.9765858)"
     inkscape:transform-center-x="-2.2526778"
     inkscape:transform-center-y="-0.0063896451">
    <g
       id="g5124"
       transform="matrix(1.0661108,0,0,1.0661108,1.6946858,-0.45329883)">
      <path
         d="M 1.0305545,1.1781209 C 0.9338103,1.1726909 0.837737,1.1739209 0.74451452,1.1862809 0.55824516,1.2109749 0.38368394,1.2794989 0.23826451,1.4239679 0.10000034,1.5609518 0.04771743,1.7457463 0.03960946,1.9086629 0.03150146,2.0715796 0.0583852,2.2281856 0.09262298,2.3869499 0.16109841,2.7044779 0.26616367,3.0349507 0.30059908,3.3138127 0.33266816,3.5732347 0.2687969,4.0474602 0.18350331,4.6519629 0.09820971,5.2564657 -5.0419042e-6,5.9998242 -5.0419042e-6,6.8563934 c 0,0.4140246 0.066110461904,1.0907589 0.3256544919042,1.7931387 0.065905,0.1783524 0.14539407,0.358693 0.23943467,0.5359607 0.0300252,0.3914687 -0.19367481,0.8932232 -0.30293441,1.4395212 -0.024289,0.120959 -0.13237893,0.409389 -0.19632478,0.707817 -0.03199736,0.149328 -0.05444867,0.306279 -0.04019706,0.470712 0.01425153,0.164434 0.07287698,0.346848 0.21263664,0.485278 l 5.8163e-4,5.97e-4 c 0.29210873,0.288114 0.70037564,0.272998 1.08415556,0.212636 0.3837801,-0.06036 0.7880561,-0.18772 1.14416,-0.287788 0.8793938,-0.247271 2.5224948,-0.0064 4.5323647,-0.0064 h 0.1590414 0.1590406 c 1.0259341,0 1.9506756,-0.06982 2.7328176,-0.09962 0.243269,-0.0091 0.472411,-0.01426 0.685681,-0.01281 0.445571,0.0028 0.822709,0.037 1.113866,0.118845 0.356104,0.100067 0.760342,0.228007 1.14416,0.288369 0.383818,0.06036 0.791924,0.07535 1.084155,-0.212636 0.209718,-0.206737 0.22421,-0.487757 0.19982,-0.701411 -0.02438,-0.213651 -0.08681,-0.40521 -0.1136,-0.517318 -0.04064,-0.170108 -0.124043,-0.335553 -0.22953,-0.547611 -0.01863,-0.03746 -0.04303,-0.08431 -0.06292,-0.123504 0.04565,-0.31239 0.148341,-0.9370417 0.247007,-1.6230289 0.103557,-0.7199816 0.198073,-1.4593258 0.198073,-1.9207358 0,-0.8565692 -0.09822,-1.5999277 -0.183508,-2.2044304 C 14.04834,4.0475006 13.984468,3.573275 14.016538,3.313849 c 0.03444,-0.278862 0.1395,-0.6093348 0.207976,-0.9268628 0.03424,-0.1587643 0.06113,-0.3153703 0.05301,-0.478287 -0.0081,-0.1629167 -0.06039,-0.3477111 -0.198655,-0.484695 -0.145419,-0.1444688 -0.31998,-0.2129927 -0.50625,-0.2376869 -0.186446,-0.024718 -0.384241,-0.00573 -0.576157,0.024468 -0.383836,0.060386 -0.788745,0.1878993 -1.145908,0.2877876 -0.880193,0.2463808 -2.5231973,0.00641 -4.5329478,0.00641 H 7.1585678 6.9995273 c -0.4797056,0 -1.6136744,-0.037066 -2.7497123,0.357113 C 3.7296624,1.8698592 2.8962283,1.6188826 2.46658,1.4985321 2.1094169,1.3986439 1.7045076,1.271131 1.3206724,1.2107445 1.2247137,1.195648 1.1272987,1.1835534 1.0305545,1.1781209 Z"
         id="path2-6"
         sodipodi:nodetypes="sscsscsssccssccscscscccscscscssscsscsscscsccss"
         style="display:inline;fill:#e6e6e6;stroke-width:0.298274" />
      <path
         id="path2"
         style="display:inline;stroke-width:0.298274"
         d="m 13.395055,1.1749853 c -0.1319,-3.943e-4 -0.266628,0.015066 -0.39857,0.035824 -0.383836,0.060386 -0.78881,0.1878612 -1.145972,0.2877495 -0.880192,0.2463805 -2.523112,0.00644 -4.5328604,0.00644 H 7.1585077 6.9994916 c -0.4797052,0 -1.6136269,-0.037102 -2.7496635,0.3570774 C 3.7296759,1.8698849 2.8962794,1.6189089 2.4666317,1.4985585 2.1094689,1.3986704 1.704494,1.2711954 1.3206593,1.2108091 1.2247006,1.1957125 1.1273344,1.1835105 1.0305903,1.178078 0.9338463,1.172648 0.83773843,1.173968 0.74451606,1.186328 0.55824689,1.211022 0.3836354,1.279482 0.23821612,1.42395 0.09995208,1.5609338 0.04774731,1.7458135 0.03963933,1.90873 0.03153133,2.0716465 0.05836397,2.228174 0.09260173,2.3869379 0.16107706,2.7044657 0.26615008,3.0349827 0.30058546,3.3138443 0.33265446,3.5732702 0.26874316,4.0474482 0.18344964,4.6519504 0.09815615,5.2564524 -5.0255895e-5,5.9998292 -5.0255895e-5,6.8563975 c 0,0.4140243 0.0662201059,1.0907397 0.325763865895,1.7931189 0.0659049,0.1783523 0.14538563,0.3586706 0.23942614,0.5359381 0.0300252,0.3914683 -0.19369577,0.8932235 -0.30295525,1.4395215 -0.024289,0.120958 -0.13244033,0.409411 -0.19638613,0.707839 -0.03199733,0.149327 -0.05445664,0.306301 -0.04020503,0.470733 0.01425152,0.164433 0.07286326,0.346866 0.21262278,0.485296 l 6.443e-4,6.44e-4 c 0.29210844,0.288113 0.70033882,0.272986 1.08411838,0.212623 0.3837797,-0.06036 0.7880648,-0.187812 1.1441683,-0.287878 0.8793929,-0.247273 2.5224766,-0.0063 4.5323445,-0.0063 h 0.1590161 0.1591449 c 1.0259331,0 1.9506413,-0.06981 2.7327824,-0.09962 0.243269,-0.0091 0.472406,-0.01434 0.685676,-0.01288 0.445572,0.0028 0.822728,0.0371 1.113886,0.11894 0.356103,0.100067 0.760351,0.227902 1.144168,0.288264 0.383819,0.06036 0.791888,0.07536 1.084119,-0.212622 0.209717,-0.206714 0.224254,-0.487722 0.199865,-0.701375 -0.02438,-0.213651 -0.08687,-0.405144 -0.113657,-0.517253 -0.04064,-0.170108 -0.124016,-0.335606 -0.229504,-0.547664 -0.01863,-0.03746 -0.043,-0.08426 -0.06288,-0.12345 0.04565,-0.312389 0.148234,-0.9370337 0.246901,-1.6230202 0.103556,-0.7199808 0.19819,-1.4594118 0.19819,-1.9208213 0,-0.5974915 -0.04795,-1.1396333 -0.105797,-1.6182526 -4.44e-4,-5.813e-4 -8.44e-4,-0.00122 -0.0013,-0.00181 -0.01156,-0.015115 -0.0231,-0.030019 -0.03466,-0.044716 -0.01156,-0.014695 -0.0231,-0.02916 -0.03466,-0.043427 -0.01156,-0.014266 -0.0231,-0.028311 -0.03466,-0.042138 -0.01156,-0.013827 -0.0231,-0.027344 -0.03466,-0.04072 -0.01156,-0.013376 -0.02323,-0.026644 -0.03479,-0.03956 -0.01156,-0.012917 -0.0231,-0.025568 -0.03466,-0.038014 -0.01156,-0.012447 -0.0231,-0.024632 -0.03466,-0.036597 -0.01156,-0.011965 -0.0231,-0.023706 -0.03466,-0.03518 -0.01156,-0.011474 -0.02323,-0.022661 -0.03479,-0.033634 -0.01156,-0.010973 -0.0231,-0.021756 -0.03466,-0.032216 -0.01156,-0.010458 -0.0231,-0.020603 -0.03466,-0.03054 -0.01156,-0.00993 -0.0231,-0.01959 -0.03466,-0.028994 -0.01156,-0.00941 -0.0231,-0.018587 -0.03466,-0.027448 -0.01156,-0.00886 -0.02323,-0.017466 -0.03479,-0.025772 -0.01156,-0.00831 -0.0231,-0.016354 -0.03466,-0.024098 -0.01156,-0.00775 -0.0231,-0.015125 -0.03466,-0.022293 -0.01156,-0.00717 -0.0231,-0.014035 -0.03466,-0.020618 -0.01156,-0.00659 -0.0231,-0.012955 -0.03466,-0.018942 -0.01156,-0.00598 -0.02323,-0.011627 -0.03479,-0.017011 -0.008,-0.00374 -0.01606,-0.00713 -0.0241,-0.010566 0.0053,0.037125 0.01061,0.073398 0.01598,0.1114658 0.08462,0.599928 0.177699,1.309994 0.177699,2.1210734 0,0.3734581 -0.08985,1.123672 -0.192261,1.8356433 C 13.48127,9.0194848 13.4528,9.1946745 13.409033,9.4761943 13.3506,9.3513295 13.296904,9.230091 13.252792,9.1184434 13.168315,8.9046316 13.124059,8.7162279 13.124059,8.6460343 h -0.596504 c 0,0.2280798 0.07431,0.4477261 0.170614,0.691475 0.0963,0.2437491 0.220859,0.5035342 0.347284,0.7550037 0.126424,0.251471 0.2547,0.494579 0.355272,0.696759 0.100572,0.202177 0.173582,0.379091 0.1835,0.420606 0.03614,0.151268 0.08635,0.314353 0.101413,0.446248 0.01506,0.131898 -0.0045,0.187782 -0.02565,0.208628 -0.05705,0.05622 -0.256202,0.09818 -0.573179,0.04833 -0.316972,-0.04985 -0.70703,-0.169321 -1.074836,-0.272677 -0.375186,-0.105469 -0.799227,-0.138419 -1.271742,-0.14149 -0.226384,-0.0016 -0.463677,0.004 -0.711965,0.01341 h -6.44e-4 c -0.7993042,0.03045 -1.7112254,0.09896 -2.7099736,0.09896 H 7.1585077 6.9994916 c -1.9565741,0 -3.5603707,-0.290241 -4.6943244,0.02861 -0.3677916,0.103357 -0.7579007,0.222694 -1.0748403,0.272544 -0.31661939,0.0498 -0.51491915,0.0084 -0.57201973,-0.04768 h -6.443e-4 c -0.0168551,-0.01682 -0.0316146,-0.04214 -0.0377566,-0.113012 -0.00618,-0.0713 0.00415,-0.177647 0.0291229,-0.294192 0.0499457,-0.233093 0.15214657,-0.486583 0.19806125,-0.715961 C 0.89455867,10.504252 1.0014075,10.22862 1.0794291,9.9258935 1.2907093,10.158852 1.5420423,10.368814 1.840361,10.539407 L 2.1368731,10.02151 C 1.4965944,9.6553705 1.1125065,9.0570391 0.88549139,8.4426895 0.6584764,7.8283398 0.59658214,7.2035646 0.59658214,6.8563947 c 0,-0.8110792 0.0930533,-1.521147 0.17770111,-2.1210732 C 0.85893111,4.135395 0.94359931,3.6541676 0.89244996,3.2403901 0.84784286,2.8791565 0.73434707,2.5325044 0.67583246,2.2611656 0.64657514,2.1254962 0.63205608,2.010125 0.63562742,1.9383655 c 0.003571,-0.071759 0.0153385,-0.084213 0.0220354,-0.090848 h 6.4431e-4 v -6.446e-4 c 0.041248,-0.041035 0.16280164,-0.074901 0.35475787,-0.068168 0.063986,0.00224 0.1356467,0.00918 0.2149423,0.021649 0.3171828,0.0499 0.7086709,0.1693075 1.0778042,0.2725436 C 2.5252017,2.134352 2.8804092,2.2442646 3.2699592,2.3321686 2.854321,2.5970861 2.465033,2.9427376 2.1420276,3.404174 L 2.6302868,3.74669 C 3.8307022,2.031811 6.1508732,2.1015051 6.9994916,2.1015052 h 0.1590161 0.1591449 c 1.9566936,0 3.5599284,0.2887492 4.6936794,-0.028608 0.369133,-0.1032361 0.760622,-0.2226435 1.077804,-0.2725438 0.317183,-0.0499 0.514707,-0.00819 0.569701,0.046519 v 6.443e-4 h 6.44e-4 c 0.0067,0.00663 0.01846,0.019089 0.02203,0.090848 0.0036,0.071759 -0.01082,0.1871307 -0.04008,0.3228 -0.05852,0.2713389 -0.172138,0.617991 -0.216746,0.9792245 -0.04791,0.3875213 0.02341,0.8355298 0.10219,1.3834655 0.008,0.00344 0.01606,0.00683 0.0241,0.010566 0.01156,0.00538 0.02323,0.011022 0.03479,0.017011 0.01156,0.00598 0.0231,0.01236 0.03466,0.018943 0.01156,0.00659 0.0231,0.01345 0.03466,0.020618 0.01156,0.00717 0.0231,0.01455 0.03466,0.022293 0.01156,0.00775 0.0231,0.01579 0.03466,0.024098 0.01156,0.00831 0.02323,0.016912 0.03479,0.025772 0.01156,0.00886 0.0231,0.018044 0.03466,0.027448 0.01156,0.00941 0.0231,0.019057 0.03466,0.028994 0.01156,0.00993 0.0231,0.020081 0.03466,0.03054 0.01156,0.010458 0.0231,0.021244 0.03466,0.032216 0.01156,0.010973 0.02323,0.02216 0.03479,0.033633 0.01156,0.011474 0.0231,0.023214 0.03466,0.03518 0.01156,0.011965 0.0231,0.02415 0.03466,0.036597 0.01156,0.012446 0.0231,0.025097 0.03466,0.038014 0.01156,0.012917 0.02323,0.026184 0.03479,0.03956 0.01156,0.013376 0.0231,0.026893 0.03466,0.040721 0.01156,0.013827 0.0231,0.027872 0.03466,0.042138 0.01156,0.014267 0.0231,0.02873 0.03466,0.043427 0.01156,0.014695 0.0231,0.029601 0.03466,0.044716 4.44e-4,5.807e-4 8.44e-4,0.00122 0.0013,0.00181 -0.02509,-0.2075331 -0.05204,-0.4033575 -0.07784,-0.5861946 -0.08529,-0.6045021 -0.149076,-1.0786802 -0.117007,-1.338106 0.03444,-0.2788617 0.139509,-0.6093787 0.207985,-0.9269065 0.03424,-0.1587638 0.06107,-0.3152914 0.05296,-0.4782078 C 14.26934,1.7457795 14.217146,1.5609321 14.07888,1.4239484 13.933509,1.2794779 13.758897,1.2110188 13.572629,1.1863245 13.51436,1.1785995 13.45501,1.1751638 13.395055,1.1749853 Z" />
      <path
         style="display:inline;fill:#cbcbcb;fill-opacity:1;stroke:none;stroke-width:0.0186421px;stroke-linecap:butt;stroke-linejoin:miter;stroke-opacity:1"
         d="m 1.0794908,9.9259419 c 0,0 -0.32123263,0.5157091 -0.46972968,1.0331521 -0.45777767,1.59514 1.41236818,0.75155 2.29315978,0.75155 1.1557543,0 2.3055099,0.01516 3.4636442,0.01516 1.0750527,0 2.1474302,-0.09226 3.2156939,-0.09226 0.426687,0 0.880809,-0.08739 1.305961,-0.03714 0.806756,0.09536 2.007432,0.699461 2.771785,0.268315 C 14.050373,11.419956 12.733155,9.9114142 12.527497,8.6460441 11.349612,9.510112 2.2284171,11.042683 1.0794908,9.9259419 Z"
         id="path1329"
         sodipodi:nodetypes="csssssccc" />
    </g>
    <path
       id="path501-3"
       style="display:inline;fill:none;fill-opacity:1;stroke:url(#linearGradient5055);stroke-width:1.21203;stroke-linecap:round;stroke-dasharray:none;stroke-opacity:1"
       d="m 14.938047,6.8566103 c 0.305382,-0.5666589 0.610764,-1.1272129 0.916147,-1.4807221 0.305381,-0.3535098 0.610763,-0.4915556 0.916132,-0.3657194 0.305381,0.1258614 0.610765,0.5142761 0.916146,1.0246875 0.305383,0.5104364 0.610765,1.1328253 0.916147,1.6434828 0.305382,0.5106583 0.610765,0.8983589 0.916146,1.0246874 0.305382,0.1263538 0.610764,-0.012605 0.916145,-0.3656942 0.305383,-0.3531154 0.610712,-0.9140632 0.916094,-1.480722 m -12.8259154,0 C 8.8304709,6.2899514 9.1358532,5.7293974 9.4412347,5.3758882 9.746617,5.0223784 10.051999,4.8843326 10.357368,5.0101688 c 0.305382,0.1258614 0.610765,0.5142761 0.916147,1.0246875 0.305382,0.5104364 0.610763,1.1328253 0.916146,1.6434828 0.305382,0.5106575 0.610763,0.8983589 0.916146,1.0246874 0.305383,0.1263538 0.610764,-0.012605 0.916147,-0.3656942 0.305382,-0.3531154 0.610711,-0.9140632 0.916093,-1.480722" />
  </g>
</svg>
